%FSLAX44Y44*%
%MOMM*%
G71*
G01*
G75*
G04 Layer_Color=16711935*
%ADD10R,1.3000X1.5000*%
%ADD11R,1.1000X1.0000*%
%ADD12R,2.1000X2.9000*%
%ADD13R,0.5000X1.6000*%
%ADD14R,1.0000X1.1000*%
%ADD15R,2.4000X3.3000*%
%ADD16R,2.4000X1.0000*%
%ADD17R,1.0000X0.8500*%
%ADD18R,1.0000X0.8500*%
%ADD19R,0.8000X0.8000*%
%ADD20R,2.8000X1.5000*%
%ADD21R,0.8000X0.8000*%
%ADD22R,4.5000X5.0000*%
G04:AMPARAMS|DCode=23|XSize=5.6mm|YSize=2.1mm|CornerRadius=0.525mm|HoleSize=0mm|Usage=FLASHONLY|Rotation=270.000|XOffset=0mm|YOffset=0mm|HoleType=Round|Shape=RoundedRectangle|*
%AMROUNDEDRECTD23*
21,1,5.6000,1.0500,0,0,270.0*
21,1,4.5500,2.1000,0,0,270.0*
1,1,1.0500,-0.5250,-2.2750*
1,1,1.0500,-0.5250,2.2750*
1,1,1.0500,0.5250,2.2750*
1,1,1.0500,0.5250,-2.2750*
%
%ADD23ROUNDEDRECTD23*%
%ADD24C,0.3000*%
%ADD25C,0.5000*%
%ADD26C,0.7500*%
%ADD27C,1.8000*%
%ADD28O,1.0000X1.7000*%
%ADD29C,6.0000*%
%ADD30C,1.6000*%
%ADD31C,0.6000*%
%ADD32C,0.2500*%
%ADD33C,0.1000*%
%ADD34C,0.2000*%
%ADD35C,0.0800*%
%ADD36R,1.5032X1.7032*%
%ADD37R,1.3032X1.2032*%
%ADD38R,2.3032X3.1032*%
%ADD39R,0.7032X1.8032*%
%ADD40R,1.2032X1.3032*%
%ADD41R,2.6032X3.5032*%
%ADD42R,2.6032X1.2032*%
%ADD43R,1.2032X1.0532*%
%ADD44R,1.2032X1.0532*%
%ADD45R,1.0032X1.0032*%
%ADD46R,3.4000X2.1000*%
%ADD47R,1.0032X1.0032*%
%ADD48R,4.7032X5.2032*%
G04:AMPARAMS|DCode=49|XSize=5.8032mm|YSize=2.3032mm|CornerRadius=0.6266mm|HoleSize=0mm|Usage=FLASHONLY|Rotation=270.000|XOffset=0mm|YOffset=0mm|HoleType=Round|Shape=RoundedRectangle|*
%AMROUNDEDRECTD49*
21,1,5.8032,1.0500,0,0,270.0*
21,1,4.5500,2.3032,0,0,270.0*
1,1,1.2532,-0.5250,-2.2750*
1,1,1.2532,-0.5250,2.2750*
1,1,1.2532,0.5250,2.2750*
1,1,1.2532,0.5250,-2.2750*
%
%ADD49ROUNDEDRECTD49*%
%ADD50C,2.0032*%
%ADD51O,1.2032X1.9032*%
%ADD52C,6.2032*%
%ADD53C,1.8032*%
%ADD54C,0.2540*%
%ADD55C,0.1524*%
D33*
X1820000Y360000D02*
Y860000D01*
X1520000D02*
X1820000D01*
X1520000Y360000D02*
Y860000D01*
Y360000D02*
X1820000D01*
X1520000Y860000D02*
X1820000D01*
X1520000Y360000D02*
Y860000D01*
Y360000D02*
X1817500D01*
D54*
X1820540D02*
X1919986D01*
X1823040Y860000D02*
X1919986D01*
X1917446Y360000D02*
Y567593D01*
Y644279D02*
Y860000D01*
Y360000D02*
X1922526Y375240D01*
X1912366D02*
X1917446Y360000D01*
X1912366Y844760D02*
X1917446Y860000D01*
X1922526Y844760D01*
X1820000Y863040D02*
Y936040D01*
X1520000Y863040D02*
Y936040D01*
X1704872Y933500D02*
X1820000D01*
X1520000D02*
X1628186D01*
X1804760Y938580D02*
X1820000Y933500D01*
X1804760Y928420D02*
X1820000Y933500D01*
X1520000D02*
X1535240Y928420D01*
X1520000Y933500D02*
X1535240Y938580D01*
D55*
X1911353Y581814D02*
Y571657D01*
X1918970D01*
X1916431Y576735D01*
Y579275D01*
X1918970Y581814D01*
X1924048D01*
X1926588Y579275D01*
Y574196D01*
X1924048Y571657D01*
X1913892Y586892D02*
X1911353Y589431D01*
Y594510D01*
X1913892Y597049D01*
X1924048D01*
X1926588Y594510D01*
Y589431D01*
X1924048Y586892D01*
X1913892D01*
X1926588Y602127D02*
X1924048D01*
Y604666D01*
X1926588D01*
Y602127D01*
X1913892Y614823D02*
X1911353Y617362D01*
Y622441D01*
X1913892Y624980D01*
X1924048D01*
X1926588Y622441D01*
Y617362D01*
X1924048Y614823D01*
X1913892D01*
Y630058D02*
X1911353Y632597D01*
Y637676D01*
X1913892Y640215D01*
X1924048D01*
X1926588Y637676D01*
Y632597D01*
X1924048Y630058D01*
X1913892D01*
X1632250Y943446D02*
X1634789Y945985D01*
X1639868D01*
X1642407Y943446D01*
Y940907D01*
X1639868Y938367D01*
X1637328D01*
X1639868D01*
X1642407Y935828D01*
Y933289D01*
X1639868Y930750D01*
X1634789D01*
X1632250Y933289D01*
X1647485Y943446D02*
X1650024Y945985D01*
X1655103D01*
X1657642Y943446D01*
Y933289D01*
X1655103Y930750D01*
X1650024D01*
X1647485Y933289D01*
Y943446D01*
X1662720Y930750D02*
Y933289D01*
X1665259D01*
Y930750D01*
X1662720D01*
X1675416Y943446D02*
X1677955Y945985D01*
X1683034D01*
X1685573Y943446D01*
Y933289D01*
X1683034Y930750D01*
X1677955D01*
X1675416Y933289D01*
Y943446D01*
X1690651D02*
X1693190Y945985D01*
X1698269D01*
X1700808Y943446D01*
Y933289D01*
X1698269Y930750D01*
X1693190D01*
X1690651Y933289D01*
Y943446D01*
M02*
