%FSLAX44Y44*%
%MOMM*%
G71*
G01*
G75*
G04 Layer_Physical_Order=4*
G04 Layer_Color=16711680*
%ADD10R,1.3000X1.5000*%
%ADD11R,1.1000X1.0000*%
%ADD12R,2.1000X2.9000*%
%ADD13R,0.5000X1.6000*%
%ADD14R,1.0000X1.1000*%
%ADD15R,2.4000X3.3000*%
%ADD16R,2.4000X1.0000*%
%ADD17R,1.0000X0.8500*%
%ADD18R,1.0000X0.8500*%
%ADD19R,0.8000X0.8000*%
%ADD20R,2.8000X1.5000*%
%ADD21R,0.8000X0.8000*%
%ADD22R,4.5000X5.0000*%
G04:AMPARAMS|DCode=23|XSize=5.6mm|YSize=2.1mm|CornerRadius=0.525mm|HoleSize=0mm|Usage=FLASHONLY|Rotation=270.000|XOffset=0mm|YOffset=0mm|HoleType=Round|Shape=RoundedRectangle|*
%AMROUNDEDRECTD23*
21,1,5.6000,1.0500,0,0,270.0*
21,1,4.5500,2.1000,0,0,270.0*
1,1,1.0500,-0.5250,-2.2750*
1,1,1.0500,-0.5250,2.2750*
1,1,1.0500,0.5250,2.2750*
1,1,1.0500,0.5250,-2.2750*
%
%ADD23ROUNDEDRECTD23*%
%ADD24C,0.3000*%
%ADD25C,0.5000*%
%ADD26C,0.7500*%
%ADD27C,1.8000*%
%ADD28O,1.0000X1.7000*%
%ADD29C,6.0000*%
%ADD30C,1.6000*%
%ADD31C,0.6000*%
G36*
X1623158Y561225D02*
X1622157Y558811D01*
X1621814Y556200D01*
X1622157Y553590D01*
X1623165Y551157D01*
X1624768Y549068D01*
X1626784Y547521D01*
X1626375Y546319D01*
X1624978D01*
X1576069Y595228D01*
Y597178D01*
X1575797Y598543D01*
X1575023Y599701D01*
X1567701Y607023D01*
X1566543Y607797D01*
X1566393Y608441D01*
X1567845Y609555D01*
X1569608Y611852D01*
X1570027Y612862D01*
X1571272Y613110D01*
X1623158Y561225D01*
D02*
G37*
G36*
X1526755Y610455D02*
X1529053Y608691D01*
X1531729Y607583D01*
X1534600Y607205D01*
X1537472Y607583D01*
X1540148Y608691D01*
X1542445Y610455D01*
X1542630Y610695D01*
X1543897Y610778D01*
X1552699Y601977D01*
X1552986Y601785D01*
X1553028Y600515D01*
X1552155Y599845D01*
X1550392Y597547D01*
X1549283Y594872D01*
X1548905Y592000D01*
X1549283Y589128D01*
X1550392Y586452D01*
X1552155Y584155D01*
X1554453Y582392D01*
X1557128Y581283D01*
X1560000Y580905D01*
X1562872Y581283D01*
X1564850Y582103D01*
X1568931Y578022D01*
Y570047D01*
X1567792Y569486D01*
X1565547Y571208D01*
X1562872Y572317D01*
X1560000Y572695D01*
X1557128Y572317D01*
X1554453Y571208D01*
X1552208Y569486D01*
X1551069Y570047D01*
Y580000D01*
X1550797Y581366D01*
X1550023Y582523D01*
X1544497Y588050D01*
X1545317Y590028D01*
X1545695Y592900D01*
X1545317Y595772D01*
X1544209Y598447D01*
X1542445Y600745D01*
X1540148Y602508D01*
X1537472Y603617D01*
X1534600Y603995D01*
X1531729Y603617D01*
X1529053Y602508D01*
X1526755Y600745D01*
X1526203Y600026D01*
X1525000Y600434D01*
Y610766D01*
X1526203Y611174D01*
X1526755Y610455D01*
D02*
G37*
G36*
X1684328Y853733D02*
X1681929Y853417D01*
X1679253Y852309D01*
X1676955Y850545D01*
X1675192Y848248D01*
X1674083Y845572D01*
X1673705Y842700D01*
X1674083Y839828D01*
X1674903Y837850D01*
X1669727Y832673D01*
X1668953Y831516D01*
X1668681Y830150D01*
Y825249D01*
X1667479Y824841D01*
X1667245Y825145D01*
X1664948Y826908D01*
X1662272Y828017D01*
X1659400Y828395D01*
X1656528Y828017D01*
X1653853Y826908D01*
X1651555Y825145D01*
X1650271Y823473D01*
X1649069Y823881D01*
Y827322D01*
X1654550Y832803D01*
X1656528Y831983D01*
X1659400Y831605D01*
X1662272Y831983D01*
X1664948Y833092D01*
X1667245Y834855D01*
X1669008Y837153D01*
X1670117Y839828D01*
X1670495Y842700D01*
X1670117Y845572D01*
X1669008Y848248D01*
X1667245Y850545D01*
X1664948Y852309D01*
X1662272Y853417D01*
X1659872Y853733D01*
X1659956Y855000D01*
X1684245D01*
X1684328Y853733D01*
D02*
G37*
G36*
X1719131Y808852D02*
Y800878D01*
X1712185Y793932D01*
X1710710Y794543D01*
X1708100Y794886D01*
X1705490Y794543D01*
X1703057Y793535D01*
X1700968Y791932D01*
X1700271Y791024D01*
X1699069Y791432D01*
Y801122D01*
X1705350Y807403D01*
X1707328Y806583D01*
X1710200Y806205D01*
X1713072Y806583D01*
X1715748Y807692D01*
X1717992Y809414D01*
X1719131Y808852D01*
D02*
G37*
G36*
X1620977Y540227D02*
X1622134Y539453D01*
X1623500Y539181D01*
X1624421D01*
X1624829Y537979D01*
X1624768Y537932D01*
X1623165Y535843D01*
X1622157Y533410D01*
X1621814Y530800D01*
X1622157Y528190D01*
X1622184Y528125D01*
X1621479Y527069D01*
X1593545D01*
X1593136Y528271D01*
X1593245Y528355D01*
X1595009Y530653D01*
X1596117Y533328D01*
X1596297Y534700D01*
X1585397D01*
Y536197D01*
X1583900D01*
Y547097D01*
X1582528Y546917D01*
X1579852Y545808D01*
X1577555Y544045D01*
X1577271Y543676D01*
X1576069Y544084D01*
Y553716D01*
X1577271Y554124D01*
X1577555Y553755D01*
X1579852Y551992D01*
X1582528Y550883D01*
X1583900Y550703D01*
Y561603D01*
X1585397D01*
Y563100D01*
X1596297D01*
X1596281Y563221D01*
X1597421Y563783D01*
X1620977Y540227D01*
D02*
G37*
G36*
X1770799Y853754D02*
X1770427Y853600D01*
X1766133Y850969D01*
X1762303Y847697D01*
X1759031Y843867D01*
X1756400Y839573D01*
X1754472Y834919D01*
X1753296Y830021D01*
X1752901Y825000D01*
X1753296Y819979D01*
X1754472Y815081D01*
X1756400Y810427D01*
X1759031Y806133D01*
X1762303Y802303D01*
X1766133Y799031D01*
X1770427Y796400D01*
X1775081Y794472D01*
X1779979Y793296D01*
X1785000Y792901D01*
X1790021Y793296D01*
X1794919Y794472D01*
X1799573Y796400D01*
X1803867Y799031D01*
X1807697Y802303D01*
X1810969Y806133D01*
X1813600Y810427D01*
X1813754Y810799D01*
X1815000Y810551D01*
Y365000D01*
X1684449D01*
X1684201Y366246D01*
X1684573Y366400D01*
X1688867Y369031D01*
X1692697Y372303D01*
X1695969Y376133D01*
X1698600Y380427D01*
X1700528Y385081D01*
X1701704Y389979D01*
X1702099Y395000D01*
X1701704Y400021D01*
X1700528Y404919D01*
X1698600Y409573D01*
X1695969Y413867D01*
X1692697Y417697D01*
X1688867Y420969D01*
X1684573Y423600D01*
X1679919Y425528D01*
X1675021Y426704D01*
X1670000Y427099D01*
X1664979Y426704D01*
X1660081Y425528D01*
X1655427Y423600D01*
X1651133Y420969D01*
X1647303Y417697D01*
X1644031Y413867D01*
X1641400Y409573D01*
X1639472Y404919D01*
X1638296Y400021D01*
X1637901Y395000D01*
X1638296Y389979D01*
X1639472Y385081D01*
X1641400Y380427D01*
X1644031Y376133D01*
X1647303Y372303D01*
X1651133Y369031D01*
X1655427Y366400D01*
X1655799Y366246D01*
X1655551Y365000D01*
X1525000D01*
Y477866D01*
X1526203Y478274D01*
X1526755Y477555D01*
X1529052Y475792D01*
X1531728Y474683D01*
X1534600Y474305D01*
X1537472Y474683D01*
X1540148Y475792D01*
X1542445Y477555D01*
X1544209Y479852D01*
X1545317Y482528D01*
X1545695Y485400D01*
X1545317Y488271D01*
X1544209Y490947D01*
X1542445Y493245D01*
X1540148Y495008D01*
X1537472Y496117D01*
X1534600Y496495D01*
X1531728Y496117D01*
X1529052Y495008D01*
X1526755Y493245D01*
X1526203Y492526D01*
X1525000Y492934D01*
Y503266D01*
X1526203Y503674D01*
X1526755Y502955D01*
X1529052Y501191D01*
X1531728Y500083D01*
X1534600Y499705D01*
X1537472Y500083D01*
X1540148Y501191D01*
X1542445Y502955D01*
X1543186Y503920D01*
X1544456Y503879D01*
X1544977Y503099D01*
X1552299Y495777D01*
X1552299Y495777D01*
X1552299D01*
X1552299Y495777D01*
X1552299D01*
X1552299Y495776D01*
Y495777D01*
Y495776D01*
D01*
D01*
X1552299D01*
Y495777D01*
X1553079Y495256D01*
X1553120Y493986D01*
X1552155Y493245D01*
X1550392Y490947D01*
X1549283Y488271D01*
X1548905Y485400D01*
X1549283Y482528D01*
X1550392Y479852D01*
X1552155Y477555D01*
X1554453Y475792D01*
X1557128Y474683D01*
X1560000Y474305D01*
X1562872Y474683D01*
X1565547Y475792D01*
X1567845Y477555D01*
X1569608Y479852D01*
X1570717Y482528D01*
X1571095Y485400D01*
X1570717Y488271D01*
X1569608Y490947D01*
X1567845Y493245D01*
X1567476Y493529D01*
X1567884Y494731D01*
X1577516D01*
X1577924Y493529D01*
X1577555Y493245D01*
X1575791Y490947D01*
X1574683Y488271D01*
X1574503Y486900D01*
X1596297D01*
X1596117Y488271D01*
X1595009Y490947D01*
X1593245Y493245D01*
X1592876Y493529D01*
X1593284Y494731D01*
X1621259D01*
X1624613Y491377D01*
X1625771Y490603D01*
X1627137Y490331D01*
X1627456D01*
X1627704Y489086D01*
X1626857Y488735D01*
X1624768Y487132D01*
X1623165Y485043D01*
X1622157Y482611D01*
X1621814Y480000D01*
X1622157Y477389D01*
X1623165Y474957D01*
X1624768Y472868D01*
X1626857Y471265D01*
X1629290Y470257D01*
X1631900Y469914D01*
X1634510Y470257D01*
X1636943Y471265D01*
X1639032Y472868D01*
X1640635Y474957D01*
X1641643Y477389D01*
X1641986Y480000D01*
X1641643Y482611D01*
X1640635Y485043D01*
X1639032Y487132D01*
X1636943Y488735D01*
X1636096Y489086D01*
X1636344Y490331D01*
X1656437D01*
X1656895Y489645D01*
X1658549Y488540D01*
X1660500Y488152D01*
X1662451Y488540D01*
X1664105Y489645D01*
X1665210Y491299D01*
X1665598Y493250D01*
X1665210Y495201D01*
X1664105Y496855D01*
X1662451Y497960D01*
X1660500Y498348D01*
X1658549Y497960D01*
X1657814Y497469D01*
X1639854D01*
X1639293Y498608D01*
X1640635Y500357D01*
X1641643Y502789D01*
X1641986Y505400D01*
X1641643Y508010D01*
X1640635Y510443D01*
X1639032Y512532D01*
X1636943Y514135D01*
X1634510Y515143D01*
X1631900Y515486D01*
X1632145Y515731D01*
X1657921D01*
X1658145Y515395D01*
X1659799Y514290D01*
X1661750Y513902D01*
X1663701Y514290D01*
X1665355Y515395D01*
X1666460Y517049D01*
X1666848Y519000D01*
X1666460Y520951D01*
X1665355Y522605D01*
X1663701Y523710D01*
X1661750Y524098D01*
X1659799Y523710D01*
X1658540Y522869D01*
X1639854D01*
X1639293Y524008D01*
X1640635Y525757D01*
X1641643Y528190D01*
X1641986Y530800D01*
X1641643Y533410D01*
X1640635Y535843D01*
X1639032Y537932D01*
X1638971Y537979D01*
X1639379Y539181D01*
X1643871D01*
X1643895Y539145D01*
X1645549Y538040D01*
X1647500Y537652D01*
X1649451Y538040D01*
X1651105Y539145D01*
X1652210Y540799D01*
X1652598Y542750D01*
X1652210Y544701D01*
X1651105Y546355D01*
X1649451Y547460D01*
X1647500Y547848D01*
X1645549Y547460D01*
X1643895Y546355D01*
X1643871Y546319D01*
X1637424D01*
X1637016Y547521D01*
X1639032Y549068D01*
X1640635Y551157D01*
X1641643Y553590D01*
X1641986Y556200D01*
X1641643Y558811D01*
X1640635Y561243D01*
X1639032Y563332D01*
X1636943Y564935D01*
X1636992Y565181D01*
X1694072D01*
X1698968Y560285D01*
X1698357Y558811D01*
X1698014Y556200D01*
X1698357Y553590D01*
X1699365Y551157D01*
X1700968Y549068D01*
X1702006Y548271D01*
X1701598Y547069D01*
X1701000D01*
X1699634Y546797D01*
X1698477Y546023D01*
X1668977Y516523D01*
X1668203Y515366D01*
X1667931Y514000D01*
Y442613D01*
X1615928D01*
X1602896Y455645D01*
X1600993Y456916D01*
X1598750Y457363D01*
X1596507Y456916D01*
X1594604Y455645D01*
X1593334Y453744D01*
X1592887Y451500D01*
X1593334Y449257D01*
X1594604Y447355D01*
X1609355Y432604D01*
X1611256Y431334D01*
X1611256Y431334D01*
X1611257Y431334D01*
D01*
X1611257Y431334D01*
X1611257Y431334D01*
X1613500Y430887D01*
X1701000D01*
X1703244Y431334D01*
X1705146Y432604D01*
X1706416Y434506D01*
X1706863Y436750D01*
X1706416Y438993D01*
X1705146Y440896D01*
X1703244Y442166D01*
X1701000Y442613D01*
X1675069D01*
Y512522D01*
X1697753Y535206D01*
X1698809Y534501D01*
X1698357Y533410D01*
X1698014Y530800D01*
X1698357Y528190D01*
X1699365Y525757D01*
X1700968Y523668D01*
X1703057Y522065D01*
X1705490Y521057D01*
X1708100Y520714D01*
X1710710Y521057D01*
X1713143Y522065D01*
X1715232Y523668D01*
X1716835Y525757D01*
X1717843Y528190D01*
X1718186Y530800D01*
X1717843Y533410D01*
X1716835Y535843D01*
X1715232Y537932D01*
X1713143Y539535D01*
X1713222Y539931D01*
X1714000D01*
X1715366Y540203D01*
X1716523Y540977D01*
X1716523Y540977D01*
X1716523Y540977D01*
X1731457Y555910D01*
X1731500Y555902D01*
X1733451Y556290D01*
X1735105Y557395D01*
X1736210Y559049D01*
X1736598Y561000D01*
X1736210Y562951D01*
X1735105Y564605D01*
X1733451Y565710D01*
X1731500Y566098D01*
X1729549Y565710D01*
X1727895Y564605D01*
X1726790Y562951D01*
X1726402Y561000D01*
X1726411Y560957D01*
X1719057Y553604D01*
X1717919Y554166D01*
X1718186Y556200D01*
X1717843Y558811D01*
X1716835Y561243D01*
X1715232Y563332D01*
X1713143Y564935D01*
X1710710Y565943D01*
X1708100Y566286D01*
X1705490Y565943D01*
X1704015Y565332D01*
X1698073Y571273D01*
X1696916Y572047D01*
X1695550Y572319D01*
X1638206D01*
X1637798Y573521D01*
X1639032Y574468D01*
X1640635Y576557D01*
X1641643Y578989D01*
X1641986Y581600D01*
X1641643Y584211D01*
X1640635Y586643D01*
X1639032Y588732D01*
X1636943Y590335D01*
X1634510Y591343D01*
X1631900Y591686D01*
X1629290Y591343D01*
X1626857Y590335D01*
X1624768Y588732D01*
X1623235Y586734D01*
X1621967Y586651D01*
X1570123Y638495D01*
X1570717Y639928D01*
X1571095Y642800D01*
X1570717Y645672D01*
X1569608Y648347D01*
X1567845Y650645D01*
X1565547Y652409D01*
X1562872Y653517D01*
X1560000Y653895D01*
X1557128Y653517D01*
X1554453Y652409D01*
X1552155Y650645D01*
X1550392Y648347D01*
X1549283Y645672D01*
X1548914Y642866D01*
X1547711Y642458D01*
X1545578Y644592D01*
X1545317Y646572D01*
X1544209Y649247D01*
X1542445Y651545D01*
X1540148Y653308D01*
X1537472Y654417D01*
X1534600Y654795D01*
X1531729Y654417D01*
X1529053Y653308D01*
X1526755Y651545D01*
X1526203Y650826D01*
X1525000Y651234D01*
Y661566D01*
X1526203Y661974D01*
X1526755Y661255D01*
X1529053Y659492D01*
X1531729Y658383D01*
X1533100Y658203D01*
Y669097D01*
Y679997D01*
X1531729Y679817D01*
X1529053Y678708D01*
X1526755Y676945D01*
X1526203Y676226D01*
X1525000Y676634D01*
Y692116D01*
X1526203Y692524D01*
X1526755Y691805D01*
X1529053Y690042D01*
X1531728Y688933D01*
X1534600Y688555D01*
X1537472Y688933D01*
X1540147Y690042D01*
X1542445Y691805D01*
X1544209Y694102D01*
X1545317Y696778D01*
X1545695Y699650D01*
X1545317Y702522D01*
X1544209Y705197D01*
X1542445Y707495D01*
X1540147Y709258D01*
X1537472Y710367D01*
X1534600Y710745D01*
X1531728Y710367D01*
X1529053Y709258D01*
X1526755Y707495D01*
X1526203Y706776D01*
X1525000Y707184D01*
Y717516D01*
X1526203Y717924D01*
X1526755Y717205D01*
X1529053Y715442D01*
X1531728Y714333D01*
X1534600Y713955D01*
X1537472Y714333D01*
X1540147Y715442D01*
X1542445Y717205D01*
X1544209Y719502D01*
X1545317Y722178D01*
X1545695Y725050D01*
X1545317Y727922D01*
X1544209Y730597D01*
X1542445Y732895D01*
X1540147Y734658D01*
X1537472Y735767D01*
X1534600Y736145D01*
X1531728Y735767D01*
X1529053Y734658D01*
X1526755Y732895D01*
X1526203Y732176D01*
X1525000Y732584D01*
Y742916D01*
X1526203Y743324D01*
X1526755Y742605D01*
X1529053Y740842D01*
X1531728Y739733D01*
X1534600Y739355D01*
X1537472Y739733D01*
X1540147Y740842D01*
X1542445Y742605D01*
X1544209Y744902D01*
X1545317Y747578D01*
X1545695Y750450D01*
X1545317Y753322D01*
X1544209Y755997D01*
X1542445Y758295D01*
X1540147Y760058D01*
X1537472Y761167D01*
X1534600Y761545D01*
X1531728Y761167D01*
X1529053Y760058D01*
X1526755Y758295D01*
X1526203Y757576D01*
X1525000Y757984D01*
Y768316D01*
X1526203Y768724D01*
X1526755Y768005D01*
X1529053Y766242D01*
X1531728Y765133D01*
X1534600Y764755D01*
X1537472Y765133D01*
X1540147Y766242D01*
X1542445Y768005D01*
X1544209Y770303D01*
X1545317Y772978D01*
X1545695Y775850D01*
X1545317Y778722D01*
X1544209Y781397D01*
X1542445Y783695D01*
X1540147Y785458D01*
X1537472Y786567D01*
X1534600Y786945D01*
X1531728Y786567D01*
X1529053Y785458D01*
X1526755Y783695D01*
X1526203Y782976D01*
X1525000Y783384D01*
Y810551D01*
X1526246Y810799D01*
X1526400Y810427D01*
X1529031Y806133D01*
X1532303Y802303D01*
X1536133Y799031D01*
X1540427Y796400D01*
X1545081Y794472D01*
X1549979Y793296D01*
X1555000Y792901D01*
X1560021Y793296D01*
X1564919Y794472D01*
X1569573Y796400D01*
X1573867Y799031D01*
X1577697Y802303D01*
X1580969Y806133D01*
X1583600Y810427D01*
X1585528Y815081D01*
X1586704Y819979D01*
X1587099Y825000D01*
X1586704Y830021D01*
X1585528Y834919D01*
X1583600Y839573D01*
X1580969Y843867D01*
X1577697Y847697D01*
X1573867Y850969D01*
X1569573Y853600D01*
X1569201Y853754D01*
X1569449Y855000D01*
X1658844D01*
X1658927Y853733D01*
X1656528Y853417D01*
X1653853Y852309D01*
X1651555Y850545D01*
X1649792Y848248D01*
X1648683Y845572D01*
X1648305Y842700D01*
X1648683Y839828D01*
X1649503Y837850D01*
X1642977Y831323D01*
X1642203Y830166D01*
X1641931Y828800D01*
Y789968D01*
X1640686Y789720D01*
X1640635Y789843D01*
X1639032Y791932D01*
X1636943Y793535D01*
X1634510Y794543D01*
X1631900Y794886D01*
X1629290Y794543D01*
X1626857Y793535D01*
X1624768Y791932D01*
X1623165Y789843D01*
X1622157Y787411D01*
X1621814Y784800D01*
X1622157Y782189D01*
X1623165Y779757D01*
X1624768Y777668D01*
X1626857Y776065D01*
X1629290Y775057D01*
X1631900Y774714D01*
X1634510Y775057D01*
X1636943Y776065D01*
X1639032Y777668D01*
X1640635Y779757D01*
X1640686Y779880D01*
X1641931Y779632D01*
Y764568D01*
X1640686Y764320D01*
X1640635Y764443D01*
X1639032Y766532D01*
X1636943Y768135D01*
X1634510Y769143D01*
X1631900Y769486D01*
X1629290Y769143D01*
X1626857Y768135D01*
X1624768Y766532D01*
X1623165Y764443D01*
X1622157Y762010D01*
X1621814Y759400D01*
X1622157Y756789D01*
X1623165Y754357D01*
X1624768Y752268D01*
X1626857Y750665D01*
X1629290Y749657D01*
X1631900Y749314D01*
X1634510Y749657D01*
X1636943Y750665D01*
X1639032Y752268D01*
X1640635Y754357D01*
X1640686Y754480D01*
X1641931Y754232D01*
Y739168D01*
X1640686Y738920D01*
X1640635Y739043D01*
X1639032Y741132D01*
X1636943Y742735D01*
X1634510Y743743D01*
X1631900Y744086D01*
X1629290Y743743D01*
X1626857Y742735D01*
X1624768Y741132D01*
X1623165Y739043D01*
X1622157Y736610D01*
X1621814Y734000D01*
X1622157Y731389D01*
X1623165Y728957D01*
X1624768Y726868D01*
X1626857Y725265D01*
X1629290Y724257D01*
X1631900Y723914D01*
X1634510Y724257D01*
X1636943Y725265D01*
X1639032Y726868D01*
X1640635Y728957D01*
X1640686Y729080D01*
X1641931Y728832D01*
Y723678D01*
X1635985Y717732D01*
X1634510Y718343D01*
X1631900Y718686D01*
X1629290Y718343D01*
X1626857Y717335D01*
X1624768Y715732D01*
X1623165Y713643D01*
X1622157Y711210D01*
X1621814Y708600D01*
X1622157Y705990D01*
X1623165Y703557D01*
X1624768Y701468D01*
X1626857Y699865D01*
X1629290Y698857D01*
X1631900Y698514D01*
X1634510Y698857D01*
X1636943Y699865D01*
X1639032Y701468D01*
X1640635Y703557D01*
X1641643Y705990D01*
X1641986Y708600D01*
X1641643Y711210D01*
X1641032Y712685D01*
X1648023Y719677D01*
X1648797Y720834D01*
X1649069Y722200D01*
Y810719D01*
X1650271Y811127D01*
X1651555Y809455D01*
X1653853Y807692D01*
X1656528Y806583D01*
X1659400Y806205D01*
X1662272Y806583D01*
X1664948Y807692D01*
X1667245Y809455D01*
X1667479Y809759D01*
X1668681Y809351D01*
Y725028D01*
X1635985Y692332D01*
X1634510Y692943D01*
X1631900Y693286D01*
X1629290Y692943D01*
X1626857Y691935D01*
X1624768Y690332D01*
X1623165Y688243D01*
X1622157Y685810D01*
X1621814Y683200D01*
X1622157Y680590D01*
X1623165Y678157D01*
X1624768Y676068D01*
X1626857Y674465D01*
X1629290Y673457D01*
X1631900Y673114D01*
X1634510Y673457D01*
X1636943Y674465D01*
X1639032Y676068D01*
X1640635Y678157D01*
X1641643Y680590D01*
X1641986Y683200D01*
X1641643Y685810D01*
X1641032Y687285D01*
X1674773Y721027D01*
X1675547Y722184D01*
X1675819Y723550D01*
Y808891D01*
X1676958Y809453D01*
X1679253Y807692D01*
X1681929Y806583D01*
X1684800Y806205D01*
X1687672Y806583D01*
X1690347Y807692D01*
X1692645Y809455D01*
X1694409Y811753D01*
X1695517Y814428D01*
X1695895Y817300D01*
X1695517Y820172D01*
X1694409Y822848D01*
X1692645Y825145D01*
X1690347Y826908D01*
X1687672Y828017D01*
X1684800Y828395D01*
X1681929Y828017D01*
X1679253Y826908D01*
X1676958Y825147D01*
X1675819Y825709D01*
Y828672D01*
X1679950Y832803D01*
X1681929Y831983D01*
X1684800Y831605D01*
X1687672Y831983D01*
X1690347Y833092D01*
X1692645Y834855D01*
X1694409Y837153D01*
X1695517Y839828D01*
X1695895Y842700D01*
X1695517Y845572D01*
X1694409Y848248D01*
X1692645Y850545D01*
X1690347Y852309D01*
X1687672Y853417D01*
X1685273Y853733D01*
X1685356Y855000D01*
X1709644D01*
X1709727Y853733D01*
X1709727Y853733D01*
D01*
X1707328Y853417D01*
X1704653Y852309D01*
X1702355Y850545D01*
X1700592Y848248D01*
X1699483Y845572D01*
X1699105Y842700D01*
X1699483Y839828D01*
X1700592Y837153D01*
X1702355Y834855D01*
X1704653Y833092D01*
X1707328Y831983D01*
X1710200Y831605D01*
X1713072Y831983D01*
X1714768Y832686D01*
X1719131Y828322D01*
Y825748D01*
X1717992Y825186D01*
X1715748Y826908D01*
X1713072Y828017D01*
X1710200Y828395D01*
X1707328Y828017D01*
X1704653Y826908D01*
X1702355Y825145D01*
X1700592Y822848D01*
X1699483Y820172D01*
X1699105Y817300D01*
X1699483Y814428D01*
X1700303Y812450D01*
X1692977Y805123D01*
X1692203Y803966D01*
X1691931Y802600D01*
Y772000D01*
X1691931Y772000D01*
X1691931D01*
X1692203Y770634D01*
X1692977Y769477D01*
X1698968Y763485D01*
X1698357Y762010D01*
X1698014Y759400D01*
X1698357Y756789D01*
X1699365Y754357D01*
X1700968Y752268D01*
X1703057Y750665D01*
X1705490Y749657D01*
X1708100Y749314D01*
X1710710Y749657D01*
X1713143Y750665D01*
X1715232Y752268D01*
X1716835Y754357D01*
X1717843Y756789D01*
X1718186Y759400D01*
X1717843Y762010D01*
X1716835Y764443D01*
X1715232Y766532D01*
X1713143Y768135D01*
X1710710Y769143D01*
X1708100Y769486D01*
X1705490Y769143D01*
X1704015Y768532D01*
X1699069Y773478D01*
Y778168D01*
X1700271Y778576D01*
X1700968Y777668D01*
X1703057Y776065D01*
X1705490Y775057D01*
X1708100Y774714D01*
X1710710Y775057D01*
X1713143Y776065D01*
X1715232Y777668D01*
X1716835Y779757D01*
X1717843Y782189D01*
X1718186Y784800D01*
X1717843Y787411D01*
X1717232Y788885D01*
X1725223Y796877D01*
X1725997Y798034D01*
X1726269Y799400D01*
X1726269Y799400D01*
X1726269Y799400D01*
Y799400D01*
Y809416D01*
X1727471Y809824D01*
X1727755Y809455D01*
X1729737Y807933D01*
Y803900D01*
X1730184Y801656D01*
X1730184Y801656D01*
X1730184Y801656D01*
X1731454Y799754D01*
X1801637Y729572D01*
Y521069D01*
X1763379D01*
X1763355Y521105D01*
X1761701Y522210D01*
X1759750Y522598D01*
X1757799Y522210D01*
X1756145Y521105D01*
X1755040Y519451D01*
X1754652Y517500D01*
X1755040Y515549D01*
X1756145Y513895D01*
X1757799Y512790D01*
X1759750Y512402D01*
X1761701Y512790D01*
X1763355Y513895D01*
X1763379Y513931D01*
X1801637D01*
Y471428D01*
X1719854Y389646D01*
X1718584Y387743D01*
X1718137Y385500D01*
X1718584Y383256D01*
X1719854Y381354D01*
X1721756Y380084D01*
X1724000Y379637D01*
X1726243Y380084D01*
X1728145Y381354D01*
X1811646Y464855D01*
X1812916Y466756D01*
X1812916Y466756D01*
X1812916Y466757D01*
X1813363Y469000D01*
Y518250D01*
Y732000D01*
X1812916Y734243D01*
X1811646Y736145D01*
X1741463Y806328D01*
Y807933D01*
X1743445Y809455D01*
X1745208Y811753D01*
X1746317Y814428D01*
X1746695Y817300D01*
X1746317Y820172D01*
X1745208Y822848D01*
X1743445Y825145D01*
X1741147Y826908D01*
X1738472Y828017D01*
X1735600Y828395D01*
X1732728Y828017D01*
X1730053Y826908D01*
X1727755Y825145D01*
X1727471Y824776D01*
X1726269Y825184D01*
Y829800D01*
X1725997Y831166D01*
X1725223Y832323D01*
X1719980Y837567D01*
X1720917Y839828D01*
X1721295Y842700D01*
X1720917Y845572D01*
X1719809Y848248D01*
X1718045Y850545D01*
X1715748Y852309D01*
X1713072Y853417D01*
X1710673Y853733D01*
X1710756Y855000D01*
X1735045D01*
X1735128Y853733D01*
X1735600Y853795D01*
X1736073Y853733D01*
X1736156Y855000D01*
X1770551D01*
X1770799Y853754D01*
D02*
G37*
G36*
X1526755Y585055D02*
X1529053Y583292D01*
X1531729Y582183D01*
X1534600Y581805D01*
X1537472Y582183D01*
X1539451Y583003D01*
X1543931Y578522D01*
Y569484D01*
X1542729Y569076D01*
X1542445Y569445D01*
X1540148Y571208D01*
X1537472Y572317D01*
X1534600Y572695D01*
X1531728Y572317D01*
X1529052Y571208D01*
X1526755Y569445D01*
X1526203Y568726D01*
X1525000Y569134D01*
Y585366D01*
X1526203Y585774D01*
X1526755Y585055D01*
D02*
G37*
G36*
Y635855D02*
X1529053Y634091D01*
X1531729Y632983D01*
X1534600Y632605D01*
X1537472Y632983D01*
X1540148Y634091D01*
X1542445Y635855D01*
X1542630Y636095D01*
X1543897Y636178D01*
X1552299Y627777D01*
X1553079Y627256D01*
X1553120Y625986D01*
X1552155Y625245D01*
X1550392Y622948D01*
X1549283Y620272D01*
X1548914Y617466D01*
X1547711Y617058D01*
X1545578Y619192D01*
X1545317Y621172D01*
X1544209Y623847D01*
X1542445Y626145D01*
X1540148Y627908D01*
X1537472Y629017D01*
X1534600Y629395D01*
X1531729Y629017D01*
X1529053Y627908D01*
X1526755Y626145D01*
X1526203Y625426D01*
X1525000Y625834D01*
Y636166D01*
X1526203Y636574D01*
X1526755Y635855D01*
D02*
G37*
G36*
X1569366Y528641D02*
X1569977Y527727D01*
X1576727Y520977D01*
X1577884Y520203D01*
D01*
D01*
X1577928Y518932D01*
X1577555Y518645D01*
X1575791Y516347D01*
X1574683Y513671D01*
X1574503Y512300D01*
X1596297D01*
X1596117Y513671D01*
X1595009Y516347D01*
X1593245Y518645D01*
X1593136Y518729D01*
X1593545Y519931D01*
X1621458D01*
X1624613Y516777D01*
X1625771Y516003D01*
X1627137Y515731D01*
X1627456D01*
X1627704Y514486D01*
X1626857Y514135D01*
X1624768Y512532D01*
X1623165Y510443D01*
X1622157Y508010D01*
X1621814Y505400D01*
X1622153Y502823D01*
X1621316Y501869D01*
X1593848D01*
X1593286Y503008D01*
X1595009Y505252D01*
X1596117Y507928D01*
X1596297Y509300D01*
X1574503D01*
X1574683Y507928D01*
X1575791Y505252D01*
X1577514Y503008D01*
X1576952Y501869D01*
X1568448D01*
X1567886Y503008D01*
X1569608Y505252D01*
X1570717Y507928D01*
X1571095Y510800D01*
X1570717Y513671D01*
X1569608Y516347D01*
X1567845Y518645D01*
X1565547Y520408D01*
X1562872Y521517D01*
X1560000Y521895D01*
X1557128Y521517D01*
X1554453Y520408D01*
X1552208Y518686D01*
X1551069Y519248D01*
Y527752D01*
X1552208Y528314D01*
X1554453Y526591D01*
X1557128Y525483D01*
X1560000Y525105D01*
X1562872Y525483D01*
X1565547Y526591D01*
X1567845Y528355D01*
X1568097Y528682D01*
X1569366Y528641D01*
D02*
G37*
%LPC*%
G36*
X1708100Y591686D02*
X1705490Y591343D01*
X1703057Y590335D01*
X1700968Y588732D01*
X1699365Y586643D01*
X1698357Y584211D01*
X1698014Y581600D01*
X1698357Y578989D01*
X1699365Y576557D01*
X1700968Y574468D01*
X1703057Y572865D01*
X1705490Y571857D01*
X1708100Y571514D01*
X1710710Y571857D01*
X1713143Y572865D01*
X1715232Y574468D01*
X1716835Y576557D01*
X1717843Y578989D01*
X1718186Y581600D01*
X1717843Y584211D01*
X1716835Y586643D01*
X1715232Y588732D01*
X1713143Y590335D01*
X1710710Y591343D01*
X1708100Y591686D01*
D02*
G37*
G36*
X1661500Y594800D02*
Y591500D01*
X1664800D01*
X1664710Y591951D01*
X1663605Y593605D01*
X1661951Y594710D01*
X1661500Y594800D01*
D02*
G37*
G36*
X1708100Y617086D02*
X1705490Y616743D01*
X1703057Y615735D01*
X1700968Y614132D01*
X1699365Y612043D01*
X1698357Y609610D01*
X1698014Y607000D01*
X1698357Y604389D01*
X1699365Y601957D01*
X1700968Y599868D01*
X1703057Y598265D01*
X1705490Y597257D01*
X1708100Y596914D01*
X1710710Y597257D01*
X1713143Y598265D01*
X1715232Y599868D01*
X1716835Y601957D01*
X1717843Y604389D01*
X1718186Y607000D01*
X1717843Y609610D01*
X1716835Y612043D01*
X1715232Y614132D01*
X1713143Y615735D01*
X1710710Y616743D01*
X1708100Y617086D01*
D02*
G37*
G36*
X1630400Y605500D02*
X1622011D01*
X1622157Y604389D01*
X1623165Y601957D01*
X1624768Y599868D01*
X1626857Y598265D01*
X1629290Y597257D01*
X1630400Y597111D01*
Y605500D01*
D02*
G37*
G36*
X1658500Y588500D02*
X1655200D01*
X1655290Y588049D01*
X1656395Y586395D01*
X1658049Y585290D01*
X1658500Y585200D01*
Y588500D01*
D02*
G37*
G36*
X1664800D02*
X1661500D01*
Y585200D01*
X1661951Y585290D01*
X1663605Y586395D01*
X1664710Y588049D01*
X1664800Y588500D01*
D02*
G37*
G36*
X1658500Y594800D02*
X1658049Y594710D01*
X1656395Y593605D01*
X1655290Y591951D01*
X1655200Y591500D01*
X1658500D01*
Y594800D01*
D02*
G37*
G36*
X1786000Y546000D02*
X1782700D01*
X1782790Y545549D01*
X1783895Y543895D01*
X1785549Y542790D01*
X1786000Y542700D01*
Y546000D01*
D02*
G37*
G36*
X1792300D02*
X1789000D01*
Y542700D01*
X1789451Y542790D01*
X1791105Y543895D01*
X1792210Y545549D01*
X1792300Y546000D01*
D02*
G37*
G36*
X1741000D02*
X1737700D01*
X1737790Y545549D01*
X1738895Y543895D01*
X1740549Y542790D01*
X1741000Y542700D01*
Y546000D01*
D02*
G37*
G36*
X1747300D02*
X1744000D01*
Y542700D01*
X1744451Y542790D01*
X1746105Y543895D01*
X1747210Y545549D01*
X1747300Y546000D01*
D02*
G37*
G36*
X1741000Y552300D02*
X1740549Y552210D01*
X1738895Y551105D01*
X1737790Y549451D01*
X1737700Y549000D01*
X1741000D01*
Y552300D01*
D02*
G37*
G36*
X1789000D02*
Y549000D01*
X1792300D01*
X1792210Y549451D01*
X1791105Y551105D01*
X1789451Y552210D01*
X1789000Y552300D01*
D02*
G37*
G36*
X1596297Y560100D02*
X1586900D01*
Y550703D01*
X1588272Y550883D01*
X1590948Y551992D01*
X1593245Y553755D01*
X1595009Y556053D01*
X1596117Y558728D01*
X1596297Y560100D01*
D02*
G37*
G36*
X1744000Y552300D02*
Y549000D01*
X1747300D01*
X1747210Y549451D01*
X1746105Y551105D01*
X1744451Y552210D01*
X1744000Y552300D01*
D02*
G37*
G36*
X1786000D02*
X1785549Y552210D01*
X1783895Y551105D01*
X1782790Y549451D01*
X1782700Y549000D01*
X1786000D01*
Y552300D01*
D02*
G37*
G36*
X1641789Y605500D02*
X1633400D01*
Y597111D01*
X1634510Y597257D01*
X1636943Y598265D01*
X1639032Y599868D01*
X1640635Y601957D01*
X1641643Y604389D01*
X1641789Y605500D01*
D02*
G37*
G36*
X1709600Y642289D02*
Y633900D01*
X1717989D01*
X1717843Y635010D01*
X1716835Y637443D01*
X1715232Y639532D01*
X1713143Y641135D01*
X1710710Y642143D01*
X1709600Y642289D01*
D02*
G37*
G36*
X1762500Y659195D02*
X1759628Y658817D01*
X1756953Y657709D01*
X1754655Y655945D01*
X1752892Y653648D01*
X1751783Y650972D01*
X1751405Y648100D01*
X1751783Y645228D01*
X1752892Y642552D01*
X1754655Y640255D01*
X1756953Y638492D01*
X1759628Y637383D01*
X1762500Y637005D01*
X1765372Y637383D01*
X1768047Y638492D01*
X1770345Y640255D01*
X1772108Y642552D01*
X1773217Y645228D01*
X1773595Y648100D01*
X1773217Y650972D01*
X1772108Y653648D01*
X1770345Y655945D01*
X1768047Y657709D01*
X1765372Y658817D01*
X1762500Y659195D01*
D02*
G37*
G36*
X1706600Y642289D02*
X1705490Y642143D01*
X1703057Y641135D01*
X1700968Y639532D01*
X1699365Y637443D01*
X1698357Y635010D01*
X1698211Y633900D01*
X1706600D01*
Y642289D01*
D02*
G37*
G36*
Y630900D02*
X1698211D01*
X1698357Y629790D01*
X1699365Y627357D01*
X1700968Y625268D01*
X1703057Y623665D01*
X1705490Y622657D01*
X1706600Y622511D01*
Y630900D01*
D02*
G37*
G36*
X1717989D02*
X1709600D01*
Y622511D01*
X1710710Y622657D01*
X1713143Y623665D01*
X1715232Y625268D01*
X1716835Y627357D01*
X1717843Y629790D01*
X1717989Y630900D01*
D02*
G37*
G36*
X1674800Y661000D02*
X1671500D01*
Y657700D01*
X1671951Y657790D01*
X1673605Y658895D01*
X1674710Y660549D01*
X1674800Y661000D01*
D02*
G37*
G36*
X1686000D02*
X1682700D01*
X1682790Y660549D01*
X1683895Y658895D01*
X1685549Y657790D01*
X1686000Y657700D01*
Y661000D01*
D02*
G37*
G36*
X1668500D02*
X1665200D01*
X1665290Y660549D01*
X1666395Y658895D01*
X1668049Y657790D01*
X1668500Y657700D01*
Y661000D01*
D02*
G37*
G36*
X1560000Y679295D02*
X1557128Y678917D01*
X1554453Y677809D01*
X1552155Y676045D01*
X1550392Y673747D01*
X1549283Y671072D01*
X1548905Y668200D01*
X1549283Y665328D01*
X1550392Y662653D01*
X1552155Y660355D01*
X1554453Y658592D01*
X1557128Y657483D01*
X1560000Y657105D01*
X1562872Y657483D01*
X1563831Y657880D01*
X1567156Y654556D01*
X1568644Y653561D01*
X1570400Y653212D01*
X1622977D01*
X1623165Y652757D01*
X1624768Y650668D01*
X1626857Y649065D01*
X1629290Y648057D01*
X1631900Y647714D01*
X1634510Y648057D01*
X1636943Y649065D01*
X1639032Y650668D01*
X1640635Y652757D01*
X1641643Y655190D01*
X1641986Y657800D01*
X1641643Y660411D01*
X1640635Y662843D01*
X1639032Y664932D01*
X1636943Y666535D01*
X1634510Y667543D01*
X1631900Y667886D01*
X1629290Y667543D01*
X1626857Y666535D01*
X1624768Y664932D01*
X1623165Y662843D01*
X1622977Y662388D01*
X1572301D01*
X1570320Y664369D01*
X1570717Y665328D01*
X1571095Y668200D01*
X1570717Y671072D01*
X1569608Y673747D01*
X1567845Y676045D01*
X1565547Y677809D01*
X1562872Y678917D01*
X1560000Y679295D01*
D02*
G37*
G36*
X1708100Y667886D02*
X1705490Y667543D01*
X1703057Y666535D01*
X1700968Y664932D01*
X1699365Y662843D01*
X1698357Y660411D01*
X1698014Y657800D01*
X1698357Y655190D01*
X1699365Y652757D01*
X1700968Y650668D01*
X1703057Y649065D01*
X1705490Y648057D01*
X1708100Y647714D01*
X1710710Y648057D01*
X1713143Y649065D01*
X1715232Y650668D01*
X1716835Y652757D01*
X1717843Y655190D01*
X1718186Y657800D01*
X1717843Y660411D01*
X1716835Y662843D01*
X1715232Y664932D01*
X1713143Y666535D01*
X1710710Y667543D01*
X1708100Y667886D01*
D02*
G37*
G36*
X1631900Y642486D02*
X1629290Y642143D01*
X1626857Y641135D01*
X1624768Y639532D01*
X1623165Y637443D01*
X1622157Y635010D01*
X1621814Y632400D01*
X1622157Y629790D01*
X1623165Y627357D01*
X1624768Y625268D01*
X1626857Y623665D01*
X1629290Y622657D01*
X1631900Y622314D01*
X1634510Y622657D01*
X1636943Y623665D01*
X1639032Y625268D01*
X1640635Y627357D01*
X1641643Y629790D01*
X1641986Y632400D01*
X1641643Y635010D01*
X1640635Y637443D01*
X1639032Y639532D01*
X1636943Y641135D01*
X1634510Y642143D01*
X1631900Y642486D01*
D02*
G37*
G36*
X1798300Y613250D02*
X1795000D01*
Y609950D01*
X1795451Y610040D01*
X1797105Y611145D01*
X1798210Y612799D01*
X1798300Y613250D01*
D02*
G37*
G36*
X1733500Y613500D02*
X1730200D01*
X1730290Y613049D01*
X1731395Y611395D01*
X1733049Y610290D01*
X1733500Y610200D01*
Y613500D01*
D02*
G37*
G36*
X1792000Y613250D02*
X1788700D01*
X1788790Y612799D01*
X1789895Y611145D01*
X1791549Y610040D01*
X1792000Y609950D01*
Y613250D01*
D02*
G37*
G36*
X1630400Y616889D02*
X1629290Y616743D01*
X1626857Y615735D01*
X1624768Y614132D01*
X1623165Y612043D01*
X1622157Y609610D01*
X1622011Y608500D01*
X1630400D01*
Y616889D01*
D02*
G37*
G36*
X1633400D02*
Y608500D01*
X1641789D01*
X1641643Y609610D01*
X1640635Y612043D01*
X1639032Y614132D01*
X1636943Y615735D01*
X1634510Y616743D01*
X1633400Y616889D01*
D02*
G37*
G36*
X1733500Y619800D02*
X1733049Y619710D01*
X1731395Y618605D01*
X1730290Y616951D01*
X1730200Y616500D01*
X1733500D01*
Y619800D01*
D02*
G37*
G36*
X1736500D02*
Y616500D01*
X1739800D01*
X1739710Y616951D01*
X1738605Y618605D01*
X1736951Y619710D01*
X1736500Y619800D01*
D02*
G37*
G36*
X1795000Y619550D02*
Y616250D01*
X1798300D01*
X1798210Y616701D01*
X1797105Y618355D01*
X1795451Y619460D01*
X1795000Y619550D01*
D02*
G37*
G36*
X1739800Y613500D02*
X1736500D01*
Y610200D01*
X1736951Y610290D01*
X1738605Y611395D01*
X1739710Y613049D01*
X1739800Y613500D01*
D02*
G37*
G36*
X1792000Y619550D02*
X1791549Y619460D01*
X1789895Y618355D01*
X1788790Y616701D01*
X1788700Y616250D01*
X1792000D01*
Y619550D01*
D02*
G37*
G36*
X1610000Y402863D02*
X1609673Y402820D01*
X1607970Y402114D01*
X1606508Y400992D01*
X1605385Y399530D01*
X1604680Y397827D01*
X1604440Y396000D01*
Y394000D01*
X1610000D01*
Y402863D01*
D02*
G37*
G36*
X1613000D02*
Y394000D01*
X1618560D01*
Y396000D01*
X1618320Y397827D01*
X1617614Y399530D01*
X1616492Y400992D01*
X1615030Y402114D01*
X1613327Y402820D01*
X1613000Y402863D01*
D02*
G37*
G36*
X1540000D02*
Y394000D01*
X1545560D01*
Y396000D01*
X1545320Y397827D01*
X1544615Y399530D01*
X1543492Y400992D01*
X1542030Y402114D01*
X1540327Y402820D01*
X1540000Y402863D01*
D02*
G37*
G36*
X1618560Y391000D02*
X1613000D01*
Y382137D01*
X1613327Y382180D01*
X1615030Y382886D01*
X1616492Y384008D01*
X1617614Y385470D01*
X1618320Y387173D01*
X1618560Y389000D01*
Y391000D01*
D02*
G37*
G36*
X1537000Y402863D02*
X1536673Y402820D01*
X1534970Y402114D01*
X1533508Y400992D01*
X1532386Y399530D01*
X1531680Y397827D01*
X1531440Y396000D01*
Y394000D01*
X1537000D01*
Y402863D01*
D02*
G37*
G36*
X1539797Y416230D02*
X1536497D01*
Y412930D01*
X1536948Y413020D01*
X1538602Y414125D01*
X1539707Y415779D01*
X1539797Y416230D01*
D02*
G37*
G36*
X1636000Y421000D02*
X1632700D01*
X1632790Y420549D01*
X1633895Y418895D01*
X1635549Y417790D01*
X1636000Y417700D01*
Y421000D01*
D02*
G37*
G36*
X1533497Y416230D02*
X1530198D01*
X1530288Y415779D01*
X1531393Y414125D01*
X1533047Y413020D01*
X1533497Y412930D01*
Y416230D01*
D02*
G37*
G36*
X1613250Y415750D02*
X1609950D01*
X1610040Y415299D01*
X1611145Y413645D01*
X1612799Y412540D01*
X1613250Y412450D01*
Y415750D01*
D02*
G37*
G36*
X1619550D02*
X1616250D01*
Y412450D01*
X1616701Y412540D01*
X1618355Y413645D01*
X1619460Y415299D01*
X1619550Y415750D01*
D02*
G37*
G36*
X1610000Y391000D02*
X1604440D01*
Y389000D01*
X1604680Y387173D01*
X1605385Y385470D01*
X1606508Y384008D01*
X1607970Y382886D01*
X1609673Y382180D01*
X1610000Y382137D01*
Y391000D01*
D02*
G37*
G36*
X1812300Y376000D02*
X1809000D01*
Y372700D01*
X1809451Y372790D01*
X1811105Y373895D01*
X1812210Y375549D01*
X1812300Y376000D01*
D02*
G37*
G36*
X1708500Y377300D02*
X1708049Y377210D01*
X1706395Y376105D01*
X1705290Y374451D01*
X1705200Y374000D01*
X1708500D01*
Y377300D01*
D02*
G37*
G36*
X1806000Y376000D02*
X1802700D01*
X1802790Y375549D01*
X1803895Y373895D01*
X1805549Y372790D01*
X1806000Y372700D01*
Y376000D01*
D02*
G37*
G36*
X1708500Y371000D02*
X1705200D01*
X1705290Y370549D01*
X1706395Y368895D01*
X1708049Y367790D01*
X1708500Y367700D01*
Y371000D01*
D02*
G37*
G36*
X1714800D02*
X1711500D01*
Y367700D01*
X1711951Y367790D01*
X1713605Y368895D01*
X1714710Y370549D01*
X1714800Y371000D01*
D02*
G37*
G36*
X1537000Y391000D02*
X1531440D01*
Y389000D01*
X1531680Y387173D01*
X1532386Y385470D01*
X1533508Y384008D01*
X1534970Y382886D01*
X1536673Y382180D01*
X1537000Y382137D01*
Y391000D01*
D02*
G37*
G36*
X1545560D02*
X1540000D01*
Y382137D01*
X1540327Y382180D01*
X1542030Y382886D01*
X1543492Y384008D01*
X1544615Y385470D01*
X1545320Y387173D01*
X1545560Y389000D01*
Y391000D01*
D02*
G37*
G36*
X1809000Y382300D02*
Y379000D01*
X1812300D01*
X1812210Y379451D01*
X1811105Y381105D01*
X1809451Y382210D01*
X1809000Y382300D01*
D02*
G37*
G36*
X1711500Y377300D02*
Y374000D01*
X1714800D01*
X1714710Y374451D01*
X1713605Y376105D01*
X1711951Y377210D01*
X1711500Y377300D01*
D02*
G37*
G36*
X1806000Y382300D02*
X1805549Y382210D01*
X1803895Y381105D01*
X1802790Y379451D01*
X1802700Y379000D01*
X1806000D01*
Y382300D01*
D02*
G37*
G36*
X1642300Y421000D02*
X1639000D01*
Y417700D01*
X1639451Y417790D01*
X1641105Y418895D01*
X1642210Y420549D01*
X1642300Y421000D01*
D02*
G37*
G36*
X1596297Y483900D02*
X1586900D01*
Y474502D01*
X1588272Y474683D01*
X1590948Y475792D01*
X1593245Y477555D01*
X1595009Y479852D01*
X1596117Y482528D01*
X1596297Y483900D01*
D02*
G37*
G36*
X1793500Y478500D02*
X1790200D01*
X1790290Y478049D01*
X1791395Y476395D01*
X1793049Y475290D01*
X1793500Y475200D01*
Y478500D01*
D02*
G37*
G36*
X1583900Y483900D02*
X1574503D01*
X1574683Y482528D01*
X1575791Y479852D01*
X1577555Y477555D01*
X1579852Y475792D01*
X1582528Y474683D01*
X1583900Y474502D01*
Y483900D01*
D02*
G37*
G36*
X1809000Y452300D02*
Y449000D01*
X1812300D01*
X1812210Y449451D01*
X1811105Y451105D01*
X1809451Y452210D01*
X1809000Y452300D01*
D02*
G37*
G36*
X1708100Y490086D02*
X1705490Y489743D01*
X1703057Y488735D01*
X1700968Y487132D01*
X1699365Y485043D01*
X1698357Y482611D01*
X1698014Y480000D01*
X1698357Y477389D01*
X1699365Y474957D01*
X1700968Y472868D01*
X1703057Y471265D01*
X1705490Y470257D01*
X1708100Y469914D01*
X1710710Y470257D01*
X1713143Y471265D01*
X1715232Y472868D01*
X1716835Y474957D01*
X1717843Y477389D01*
X1718186Y480000D01*
X1717843Y482611D01*
X1716835Y485043D01*
X1715232Y487132D01*
X1713143Y488735D01*
X1710710Y489743D01*
X1708100Y490086D01*
D02*
G37*
G36*
Y515486D02*
X1705490Y515143D01*
X1703057Y514135D01*
X1700968Y512532D01*
X1699365Y510443D01*
X1698357Y508010D01*
X1698014Y505400D01*
X1698357Y502789D01*
X1699365Y500357D01*
X1700968Y498268D01*
X1703057Y496665D01*
X1705490Y495657D01*
X1708100Y495314D01*
X1710710Y495657D01*
X1713143Y496665D01*
X1715232Y498268D01*
X1716835Y500357D01*
X1717843Y502789D01*
X1718186Y505400D01*
X1717843Y508010D01*
X1716835Y510443D01*
X1715232Y512532D01*
X1713143Y514135D01*
X1710710Y515143D01*
X1708100Y515486D01*
D02*
G37*
G36*
X1586900Y547097D02*
Y537700D01*
X1596297D01*
X1596117Y539072D01*
X1595009Y541747D01*
X1593245Y544045D01*
X1590948Y545808D01*
X1588272Y546917D01*
X1586900Y547097D01*
D02*
G37*
G36*
X1796500Y484800D02*
Y481500D01*
X1799800D01*
X1799710Y481951D01*
X1798605Y483605D01*
X1796951Y484710D01*
X1796500Y484800D01*
D02*
G37*
G36*
X1799800Y478500D02*
X1796500D01*
Y475200D01*
X1796951Y475290D01*
X1798605Y476395D01*
X1799710Y478049D01*
X1799800Y478500D01*
D02*
G37*
G36*
X1793500Y484800D02*
X1793049Y484710D01*
X1791395Y483605D01*
X1790290Y481951D01*
X1790200Y481500D01*
X1793500D01*
Y484800D01*
D02*
G37*
G36*
X1806000Y452300D02*
X1805549Y452210D01*
X1803895Y451105D01*
X1802790Y449451D01*
X1802700Y449000D01*
X1806000D01*
Y452300D01*
D02*
G37*
G36*
X1536497Y422530D02*
Y419230D01*
X1539797D01*
X1539707Y419681D01*
X1538602Y421335D01*
X1536948Y422440D01*
X1536497Y422530D01*
D02*
G37*
G36*
X1636000Y427300D02*
X1635549Y427210D01*
X1633895Y426105D01*
X1632790Y424451D01*
X1632700Y424000D01*
X1636000D01*
Y427300D01*
D02*
G37*
G36*
X1533497Y422530D02*
X1533047Y422440D01*
X1531393Y421335D01*
X1530288Y419681D01*
X1530198Y419230D01*
X1533497D01*
Y422530D01*
D02*
G37*
G36*
X1613250Y422050D02*
X1612799Y421960D01*
X1611145Y420855D01*
X1610040Y419201D01*
X1609950Y418750D01*
X1613250D01*
Y422050D01*
D02*
G37*
G36*
X1616250D02*
Y418750D01*
X1619550D01*
X1619460Y419201D01*
X1618355Y420855D01*
X1616701Y421960D01*
X1616250Y422050D01*
D02*
G37*
G36*
X1631900Y464686D02*
X1629290Y464343D01*
X1626857Y463335D01*
X1624768Y461732D01*
X1623165Y459643D01*
X1622157Y457211D01*
X1621814Y454600D01*
X1622157Y451990D01*
X1623165Y449557D01*
X1624768Y447468D01*
X1626857Y445865D01*
X1629290Y444857D01*
X1631900Y444514D01*
X1634510Y444857D01*
X1636943Y445865D01*
X1639032Y447468D01*
X1640635Y449557D01*
X1641643Y451990D01*
X1641986Y454600D01*
X1641643Y457211D01*
X1640635Y459643D01*
X1639032Y461732D01*
X1636943Y463335D01*
X1634510Y464343D01*
X1631900Y464686D01*
D02*
G37*
G36*
X1708100D02*
X1705490Y464343D01*
X1703057Y463335D01*
X1700968Y461732D01*
X1699365Y459643D01*
X1698357Y457211D01*
X1698014Y454600D01*
X1698357Y451990D01*
X1699365Y449557D01*
X1700968Y447468D01*
X1703057Y445865D01*
X1705490Y444857D01*
X1708100Y444514D01*
X1710710Y444857D01*
X1713143Y445865D01*
X1715232Y447468D01*
X1716835Y449557D01*
X1717843Y451990D01*
X1718186Y454600D01*
X1717843Y457211D01*
X1716835Y459643D01*
X1715232Y461732D01*
X1713143Y463335D01*
X1710710Y464343D01*
X1708100Y464686D01*
D02*
G37*
G36*
X1812300Y446000D02*
X1809000D01*
Y442700D01*
X1809451Y442790D01*
X1811105Y443895D01*
X1812210Y445549D01*
X1812300Y446000D01*
D02*
G37*
G36*
X1639000Y427300D02*
Y424000D01*
X1642300D01*
X1642210Y424451D01*
X1641105Y426105D01*
X1639451Y427210D01*
X1639000Y427300D01*
D02*
G37*
G36*
X1806000Y446000D02*
X1802700D01*
X1802790Y445549D01*
X1803895Y443895D01*
X1805549Y442790D01*
X1806000Y442700D01*
Y446000D01*
D02*
G37*
G36*
X1787300Y773500D02*
X1784000D01*
Y770200D01*
X1784451Y770290D01*
X1786105Y771395D01*
X1787210Y773049D01*
X1787300Y773500D01*
D02*
G37*
G36*
X1798500D02*
X1795200D01*
X1795290Y773049D01*
X1796395Y771395D01*
X1798049Y770290D01*
X1798500Y770200D01*
Y773500D01*
D02*
G37*
G36*
X1781000D02*
X1777700D01*
X1777790Y773049D01*
X1778895Y771395D01*
X1780549Y770290D01*
X1781000Y770200D01*
Y773500D01*
D02*
G37*
G36*
X1743500D02*
X1740200D01*
X1740290Y773049D01*
X1741395Y771395D01*
X1743049Y770290D01*
X1743500Y770200D01*
Y773500D01*
D02*
G37*
G36*
X1749800D02*
X1746500D01*
Y770200D01*
X1746951Y770290D01*
X1748605Y771395D01*
X1749710Y773049D01*
X1749800Y773500D01*
D02*
G37*
G36*
X1728500Y779800D02*
X1728049Y779710D01*
X1726395Y778605D01*
X1725290Y776951D01*
X1725200Y776500D01*
X1728500D01*
Y779800D01*
D02*
G37*
G36*
X1731500D02*
Y776500D01*
X1734800D01*
X1734710Y776951D01*
X1733605Y778605D01*
X1731951Y779710D01*
X1731500Y779800D01*
D02*
G37*
G36*
X1664800Y776000D02*
X1661500D01*
Y772700D01*
X1661951Y772790D01*
X1663605Y773895D01*
X1664710Y775549D01*
X1664800Y776000D01*
D02*
G37*
G36*
X1804800Y773500D02*
X1801500D01*
Y770200D01*
X1801951Y770290D01*
X1803605Y771395D01*
X1804710Y773049D01*
X1804800Y773500D01*
D02*
G37*
G36*
X1658500Y776000D02*
X1655200D01*
X1655290Y775549D01*
X1656395Y773895D01*
X1658049Y772790D01*
X1658500Y772700D01*
Y776000D01*
D02*
G37*
G36*
X1734800Y773500D02*
X1731500D01*
Y770200D01*
X1731951Y770290D01*
X1733605Y771395D01*
X1734710Y773049D01*
X1734800Y773500D01*
D02*
G37*
G36*
X1731500Y764800D02*
Y761500D01*
X1734800D01*
X1734710Y761951D01*
X1733605Y763605D01*
X1731951Y764710D01*
X1731500Y764800D01*
D02*
G37*
G36*
X1560000Y786945D02*
X1557128Y786567D01*
X1554453Y785458D01*
X1552155Y783695D01*
X1550392Y781397D01*
X1549283Y778722D01*
X1548905Y775850D01*
X1549283Y772978D01*
X1550392Y770303D01*
X1552155Y768005D01*
X1554453Y766242D01*
X1557128Y765133D01*
X1560000Y764755D01*
X1562872Y765133D01*
X1565547Y766242D01*
X1567845Y768005D01*
X1569608Y770303D01*
X1570717Y772978D01*
X1571095Y775850D01*
X1570717Y778722D01*
X1569608Y781397D01*
X1567845Y783695D01*
X1565547Y785458D01*
X1562872Y786567D01*
X1560000Y786945D01*
D02*
G37*
G36*
X1728500Y764800D02*
X1728049Y764710D01*
X1726395Y763605D01*
X1725290Y761951D01*
X1725200Y761500D01*
X1728500D01*
Y764800D01*
D02*
G37*
G36*
X1611000Y763500D02*
X1607700D01*
X1607790Y763049D01*
X1608895Y761395D01*
X1610549Y760290D01*
X1611000Y760200D01*
Y763500D01*
D02*
G37*
G36*
X1617300D02*
X1614000D01*
Y760200D01*
X1614451Y760290D01*
X1616105Y761395D01*
X1617210Y763049D01*
X1617300Y763500D01*
D02*
G37*
G36*
X1614000Y769800D02*
Y766500D01*
X1617300D01*
X1617210Y766951D01*
X1616105Y768605D01*
X1614451Y769710D01*
X1614000Y769800D01*
D02*
G37*
G36*
X1728500Y773500D02*
X1725200D01*
X1725290Y773049D01*
X1726395Y771395D01*
X1728049Y770290D01*
X1728500Y770200D01*
Y773500D01*
D02*
G37*
G36*
X1611000Y769800D02*
X1610549Y769710D01*
X1608895Y768605D01*
X1607790Y766951D01*
X1607700Y766500D01*
X1611000D01*
Y769800D01*
D02*
G37*
G36*
X1583900Y774350D02*
X1574503D01*
X1574683Y772978D01*
X1575791Y770303D01*
X1577555Y768005D01*
X1579853Y766242D01*
X1582528Y765133D01*
X1583900Y764953D01*
Y774350D01*
D02*
G37*
G36*
X1596297D02*
X1586900D01*
Y764953D01*
X1588272Y765133D01*
X1590947Y766242D01*
X1593245Y768005D01*
X1595009Y770303D01*
X1596117Y772978D01*
X1596297Y774350D01*
D02*
G37*
G36*
X1743500Y779800D02*
X1743049Y779710D01*
X1741395Y778605D01*
X1740290Y776951D01*
X1740200Y776500D01*
X1743500D01*
Y779800D01*
D02*
G37*
G36*
X1746497Y841200D02*
X1737100D01*
Y831803D01*
X1738472Y831983D01*
X1741147Y833092D01*
X1743445Y834855D01*
X1745208Y837153D01*
X1746317Y839828D01*
X1746497Y841200D01*
D02*
G37*
G36*
X1636000Y841000D02*
X1632700D01*
X1632790Y840549D01*
X1633895Y838895D01*
X1635549Y837790D01*
X1636000Y837700D01*
Y841000D01*
D02*
G37*
G36*
X1734100Y841200D02*
X1724703D01*
X1724883Y839828D01*
X1725992Y837153D01*
X1727755Y834855D01*
X1730053Y833092D01*
X1732728Y831983D01*
X1734100Y831803D01*
Y841200D01*
D02*
G37*
G36*
X1586000Y804800D02*
X1585549Y804710D01*
X1583895Y803605D01*
X1582790Y801951D01*
X1582700Y801500D01*
X1586000D01*
Y804800D01*
D02*
G37*
G36*
X1589000D02*
Y801500D01*
X1592300D01*
X1592210Y801951D01*
X1591105Y803605D01*
X1589451Y804710D01*
X1589000Y804800D01*
D02*
G37*
G36*
X1734100Y853597D02*
X1732728Y853417D01*
X1730053Y852309D01*
X1727755Y850545D01*
X1725992Y848248D01*
X1724883Y845572D01*
X1724703Y844200D01*
X1734100D01*
Y853597D01*
D02*
G37*
G36*
X1737100D02*
Y844200D01*
X1746497D01*
X1746317Y845572D01*
X1745208Y848248D01*
X1743445Y850545D01*
X1741147Y852309D01*
X1738472Y853417D01*
X1737100Y853597D01*
D02*
G37*
G36*
X1639000Y847300D02*
Y844000D01*
X1642300D01*
X1642210Y844451D01*
X1641105Y846105D01*
X1639451Y847210D01*
X1639000Y847300D01*
D02*
G37*
G36*
X1642300Y841000D02*
X1639000D01*
Y837700D01*
X1639451Y837790D01*
X1641105Y838895D01*
X1642210Y840549D01*
X1642300Y841000D01*
D02*
G37*
G36*
X1636000Y847300D02*
X1635549Y847210D01*
X1633895Y846105D01*
X1632790Y844451D01*
X1632700Y844000D01*
X1636000D01*
Y847300D01*
D02*
G37*
G36*
X1592300Y798500D02*
X1589000D01*
Y795200D01*
X1589451Y795290D01*
X1591105Y796395D01*
X1592210Y798049D01*
X1592300Y798500D01*
D02*
G37*
G36*
X1798500Y779800D02*
X1798049Y779710D01*
X1796395Y778605D01*
X1795290Y776951D01*
X1795200Y776500D01*
X1798500D01*
Y779800D01*
D02*
G37*
G36*
X1801500D02*
Y776500D01*
X1804800D01*
X1804710Y776951D01*
X1803605Y778605D01*
X1801951Y779710D01*
X1801500Y779800D01*
D02*
G37*
G36*
X1784000D02*
Y776500D01*
X1787300D01*
X1787210Y776951D01*
X1786105Y778605D01*
X1784451Y779710D01*
X1784000Y779800D01*
D02*
G37*
G36*
X1746500D02*
Y776500D01*
X1749800D01*
X1749710Y776951D01*
X1748605Y778605D01*
X1746951Y779710D01*
X1746500Y779800D01*
D02*
G37*
G36*
X1781000D02*
X1780549Y779710D01*
X1778895Y778605D01*
X1777790Y776951D01*
X1777700Y776500D01*
X1781000D01*
Y779800D01*
D02*
G37*
G36*
X1661500Y782300D02*
Y779000D01*
X1664800D01*
X1664710Y779451D01*
X1663605Y781105D01*
X1661951Y782210D01*
X1661500Y782300D01*
D02*
G37*
G36*
X1586000Y798500D02*
X1582700D01*
X1582790Y798049D01*
X1583895Y796395D01*
X1585549Y795290D01*
X1586000Y795200D01*
Y798500D01*
D02*
G37*
G36*
X1658500Y782300D02*
X1658049Y782210D01*
X1656395Y781105D01*
X1655290Y779451D01*
X1655200Y779000D01*
X1658500D01*
Y782300D01*
D02*
G37*
G36*
X1583900Y786747D02*
X1582528Y786567D01*
X1579853Y785458D01*
X1577555Y783695D01*
X1575791Y781397D01*
X1574683Y778722D01*
X1574503Y777350D01*
X1583900D01*
Y786747D01*
D02*
G37*
G36*
X1586900D02*
Y777350D01*
X1596297D01*
X1596117Y778722D01*
X1595009Y781397D01*
X1593245Y783695D01*
X1590947Y785458D01*
X1588272Y786567D01*
X1586900Y786747D01*
D02*
G37*
G36*
X1801500Y762300D02*
Y759000D01*
X1804800D01*
X1804710Y759451D01*
X1803605Y761105D01*
X1801951Y762210D01*
X1801500Y762300D01*
D02*
G37*
G36*
X1686000Y684800D02*
X1685549Y684710D01*
X1683895Y683605D01*
X1682790Y681951D01*
X1682700Y681500D01*
X1686000D01*
Y684800D01*
D02*
G37*
G36*
X1689000D02*
Y681500D01*
X1692300D01*
X1692210Y681951D01*
X1691105Y683605D01*
X1689451Y684710D01*
X1689000Y684800D01*
D02*
G37*
G36*
X1671500D02*
Y681500D01*
X1674800D01*
X1674710Y681951D01*
X1673605Y683605D01*
X1671951Y684710D01*
X1671500Y684800D01*
D02*
G37*
G36*
X1692300Y678500D02*
X1689000D01*
Y675200D01*
X1689451Y675290D01*
X1691105Y676395D01*
X1692210Y678049D01*
X1692300Y678500D01*
D02*
G37*
G36*
X1668500Y684800D02*
X1668049Y684710D01*
X1666395Y683605D01*
X1665290Y681951D01*
X1665200Y681500D01*
X1668500D01*
Y684800D01*
D02*
G37*
G36*
X1596297Y698150D02*
X1586900D01*
Y688753D01*
X1588272Y688933D01*
X1590947Y690042D01*
X1593245Y691805D01*
X1595009Y694102D01*
X1596117Y696778D01*
X1596297Y698150D01*
D02*
G37*
G36*
X1708100Y718686D02*
X1705490Y718343D01*
X1703057Y717335D01*
X1700968Y715732D01*
X1699365Y713643D01*
X1698357Y711210D01*
X1698014Y708600D01*
X1698357Y705990D01*
X1699365Y703557D01*
X1700968Y701468D01*
X1703057Y699865D01*
X1705490Y698857D01*
X1708100Y698514D01*
X1710710Y698857D01*
X1713143Y699865D01*
X1715232Y701468D01*
X1716835Y703557D01*
X1717843Y705990D01*
X1718186Y708600D01*
X1717843Y711210D01*
X1716835Y713643D01*
X1715232Y715732D01*
X1713143Y717335D01*
X1710710Y718343D01*
X1708100Y718686D01*
D02*
G37*
G36*
X1583900Y698150D02*
X1574503D01*
X1574683Y696778D01*
X1575791Y694102D01*
X1577555Y691805D01*
X1579853Y690042D01*
X1582528Y688933D01*
X1583900Y688753D01*
Y698150D01*
D02*
G37*
G36*
X1762400Y707995D02*
X1759528Y707617D01*
X1756853Y706508D01*
X1754555Y704745D01*
X1752791Y702447D01*
X1751683Y699772D01*
X1751305Y696900D01*
X1751683Y694028D01*
X1752791Y691353D01*
X1754555Y689055D01*
X1756853Y687291D01*
X1759528Y686183D01*
X1762400Y685805D01*
X1765272Y686183D01*
X1767948Y687291D01*
X1770245Y689055D01*
X1772009Y691353D01*
X1773117Y694028D01*
X1773495Y696900D01*
X1773117Y699772D01*
X1772009Y702447D01*
X1770245Y704745D01*
X1767948Y706508D01*
X1765272Y707617D01*
X1762400Y707995D01*
D02*
G37*
G36*
X1560000Y710745D02*
X1557128Y710367D01*
X1554453Y709258D01*
X1552155Y707495D01*
X1550392Y705197D01*
X1549283Y702522D01*
X1548905Y699650D01*
X1549283Y696778D01*
X1550392Y694102D01*
X1552155Y691805D01*
X1554453Y690042D01*
X1557128Y688933D01*
X1560000Y688555D01*
X1562872Y688933D01*
X1565547Y690042D01*
X1567845Y691805D01*
X1569608Y694102D01*
X1570717Y696778D01*
X1571095Y699650D01*
X1570717Y702522D01*
X1569608Y705197D01*
X1567845Y707495D01*
X1565547Y709258D01*
X1562872Y710367D01*
X1560000Y710745D01*
D02*
G37*
G36*
X1686000Y678500D02*
X1682700D01*
X1682790Y678049D01*
X1683895Y676395D01*
X1685549Y675290D01*
X1686000Y675200D01*
Y678500D01*
D02*
G37*
G36*
X1671500Y667300D02*
Y664000D01*
X1674800D01*
X1674710Y664451D01*
X1673605Y666105D01*
X1671951Y667210D01*
X1671500Y667300D01*
D02*
G37*
G36*
X1686000D02*
X1685549Y667210D01*
X1683895Y666105D01*
X1682790Y664451D01*
X1682700Y664000D01*
X1686000D01*
Y667300D01*
D02*
G37*
G36*
X1668500D02*
X1668049Y667210D01*
X1666395Y666105D01*
X1665290Y664451D01*
X1665200Y664000D01*
X1668500D01*
Y667300D01*
D02*
G37*
G36*
X1692300Y661000D02*
X1689000D01*
Y657700D01*
X1689451Y657790D01*
X1691105Y658895D01*
X1692210Y660549D01*
X1692300Y661000D01*
D02*
G37*
G36*
X1545497Y667600D02*
X1536100D01*
Y658203D01*
X1537472Y658383D01*
X1540148Y659492D01*
X1542445Y661255D01*
X1544209Y663552D01*
X1545317Y666228D01*
X1545497Y667600D01*
D02*
G37*
G36*
X1668500Y678500D02*
X1665200D01*
X1665290Y678049D01*
X1666395Y676395D01*
X1668049Y675290D01*
X1668500Y675200D01*
Y678500D01*
D02*
G37*
G36*
X1674800D02*
X1671500D01*
Y675200D01*
X1671951Y675290D01*
X1673605Y676395D01*
X1674710Y678049D01*
X1674800Y678500D01*
D02*
G37*
G36*
X1708100Y693286D02*
X1705490Y692943D01*
X1703057Y691935D01*
X1700968Y690332D01*
X1699365Y688243D01*
X1698357Y685810D01*
X1698014Y683200D01*
X1698357Y680590D01*
X1699365Y678157D01*
X1700968Y676068D01*
X1703057Y674465D01*
X1705490Y673457D01*
X1708100Y673114D01*
X1710710Y673457D01*
X1713143Y674465D01*
X1715232Y676068D01*
X1716835Y678157D01*
X1717843Y680590D01*
X1718186Y683200D01*
X1717843Y685810D01*
X1716835Y688243D01*
X1715232Y690332D01*
X1713143Y691935D01*
X1710710Y692943D01*
X1708100Y693286D01*
D02*
G37*
G36*
X1689000Y667300D02*
Y664000D01*
X1692300D01*
X1692210Y664451D01*
X1691105Y666105D01*
X1689451Y667210D01*
X1689000Y667300D01*
D02*
G37*
G36*
X1536100Y679997D02*
Y670600D01*
X1545497D01*
X1545317Y671972D01*
X1544209Y674647D01*
X1542445Y676945D01*
X1540148Y678708D01*
X1537472Y679817D01*
X1536100Y679997D01*
D02*
G37*
G36*
X1583900Y710547D02*
X1582528Y710367D01*
X1579853Y709258D01*
X1577555Y707495D01*
X1575791Y705197D01*
X1574683Y702522D01*
X1574503Y701150D01*
X1583900D01*
Y710547D01*
D02*
G37*
G36*
Y761347D02*
X1582528Y761167D01*
X1579853Y760058D01*
X1577555Y758295D01*
X1575791Y755997D01*
X1574683Y753322D01*
X1574503Y751950D01*
X1583900D01*
Y761347D01*
D02*
G37*
G36*
X1586900D02*
Y751950D01*
X1596297D01*
X1596117Y753322D01*
X1595009Y755997D01*
X1593245Y758295D01*
X1590947Y760058D01*
X1588272Y761167D01*
X1586900Y761347D01*
D02*
G37*
G36*
X1596297Y748950D02*
X1586900D01*
Y739553D01*
X1588272Y739733D01*
X1590947Y740842D01*
X1593245Y742605D01*
X1595009Y744902D01*
X1596117Y747578D01*
X1596297Y748950D01*
D02*
G37*
G36*
X1560000Y761545D02*
X1557128Y761167D01*
X1554453Y760058D01*
X1552155Y758295D01*
X1550392Y755997D01*
X1549283Y753322D01*
X1548905Y750450D01*
X1549283Y747578D01*
X1550392Y744902D01*
X1552155Y742605D01*
X1554453Y740842D01*
X1557128Y739733D01*
X1560000Y739355D01*
X1562872Y739733D01*
X1565547Y740842D01*
X1567845Y742605D01*
X1569608Y744902D01*
X1570717Y747578D01*
X1571095Y750450D01*
X1570717Y753322D01*
X1569608Y755997D01*
X1567845Y758295D01*
X1565547Y760058D01*
X1562872Y761167D01*
X1560000Y761545D01*
D02*
G37*
G36*
X1583900Y748950D02*
X1574503D01*
X1574683Y747578D01*
X1575791Y744902D01*
X1577555Y742605D01*
X1579853Y740842D01*
X1582528Y739733D01*
X1583900Y739553D01*
Y748950D01*
D02*
G37*
G36*
X1734800Y758500D02*
X1731500D01*
Y755200D01*
X1731951Y755290D01*
X1733605Y756395D01*
X1734710Y758049D01*
X1734800Y758500D01*
D02*
G37*
G36*
X1798500Y762300D02*
X1798049Y762210D01*
X1796395Y761105D01*
X1795290Y759451D01*
X1795200Y759000D01*
X1798500D01*
Y762300D01*
D02*
G37*
G36*
X1728500Y758500D02*
X1725200D01*
X1725290Y758049D01*
X1726395Y756395D01*
X1728049Y755290D01*
X1728500Y755200D01*
Y758500D01*
D02*
G37*
G36*
X1798500Y756000D02*
X1795200D01*
X1795290Y755549D01*
X1796395Y753895D01*
X1798049Y752790D01*
X1798500Y752700D01*
Y756000D01*
D02*
G37*
G36*
X1804800D02*
X1801500D01*
Y752700D01*
X1801951Y752790D01*
X1803605Y753895D01*
X1804710Y755549D01*
X1804800Y756000D01*
D02*
G37*
G36*
X1794500Y731250D02*
Y727950D01*
X1797800D01*
X1797710Y728401D01*
X1796605Y730055D01*
X1794951Y731160D01*
X1794500Y731250D01*
D02*
G37*
G36*
X1596297Y723550D02*
X1586900D01*
Y714153D01*
X1588272Y714333D01*
X1590947Y715442D01*
X1593245Y717205D01*
X1595009Y719502D01*
X1596117Y722178D01*
X1596297Y723550D01*
D02*
G37*
G36*
X1791500Y724950D02*
X1788200D01*
X1788290Y724500D01*
X1789395Y722846D01*
X1791049Y721740D01*
X1791500Y721651D01*
Y724950D01*
D02*
G37*
G36*
X1583900Y723550D02*
X1574503D01*
X1574683Y722178D01*
X1575791Y719502D01*
X1577555Y717205D01*
X1579853Y715442D01*
X1582528Y714333D01*
X1583900Y714153D01*
Y723550D01*
D02*
G37*
G36*
X1586900Y710547D02*
Y701150D01*
X1596297D01*
X1596117Y702522D01*
X1595009Y705197D01*
X1593245Y707495D01*
X1590947Y709258D01*
X1588272Y710367D01*
X1586900Y710547D01*
D02*
G37*
G36*
X1560000Y736145D02*
X1557128Y735767D01*
X1554453Y734658D01*
X1552155Y732895D01*
X1550392Y730597D01*
X1549283Y727922D01*
X1548905Y725050D01*
X1549283Y722178D01*
X1550392Y719502D01*
X1552155Y717205D01*
X1554453Y715442D01*
X1557128Y714333D01*
X1560000Y713955D01*
X1562872Y714333D01*
X1565547Y715442D01*
X1567845Y717205D01*
X1569608Y719502D01*
X1570717Y722178D01*
X1571095Y725050D01*
X1570717Y727922D01*
X1569608Y730597D01*
X1567845Y732895D01*
X1565547Y734658D01*
X1562872Y735767D01*
X1560000Y736145D01*
D02*
G37*
G36*
X1586900Y735947D02*
Y726550D01*
X1596297D01*
X1596117Y727922D01*
X1595009Y730597D01*
X1593245Y732895D01*
X1590947Y734658D01*
X1588272Y735767D01*
X1586900Y735947D01*
D02*
G37*
G36*
X1791500Y731250D02*
X1791049Y731160D01*
X1789395Y730055D01*
X1788290Y728401D01*
X1788200Y727950D01*
X1791500D01*
Y731250D01*
D02*
G37*
G36*
X1583900Y735947D02*
X1582528Y735767D01*
X1579853Y734658D01*
X1577555Y732895D01*
X1575791Y730597D01*
X1574683Y727922D01*
X1574503Y726550D01*
X1583900D01*
Y735947D01*
D02*
G37*
G36*
X1797800Y724950D02*
X1794500D01*
Y721651D01*
X1794951Y721740D01*
X1796605Y722846D01*
X1797710Y724500D01*
X1797800Y724950D01*
D02*
G37*
G36*
X1708100Y744086D02*
X1705490Y743743D01*
X1703057Y742735D01*
X1700968Y741132D01*
X1699365Y739043D01*
X1698357Y736610D01*
X1698014Y734000D01*
X1698357Y731389D01*
X1699365Y728957D01*
X1700968Y726868D01*
X1703057Y725265D01*
X1705490Y724257D01*
X1708100Y723914D01*
X1710710Y724257D01*
X1713143Y725265D01*
X1715232Y726868D01*
X1716835Y728957D01*
X1717843Y731389D01*
X1718186Y734000D01*
X1717843Y736610D01*
X1716835Y739043D01*
X1715232Y741132D01*
X1713143Y742735D01*
X1710710Y743743D01*
X1708100Y744086D01*
D02*
G37*
%LPD*%
D24*
X1534600Y643700D02*
X1541422D01*
X1554822Y630300D01*
X1566200D01*
X1627750Y568750D01*
X1695550D01*
X1708100Y556200D01*
X1560000Y642800D02*
X1560771D01*
X1621971Y581600D01*
X1631900D01*
X1560000Y617400D02*
X1572029D01*
X1631900Y557529D01*
Y556200D02*
Y557529D01*
X1695500Y802600D02*
X1710200Y817300D01*
X1695500Y772000D02*
Y802600D01*
Y772000D02*
X1708100Y759400D01*
X1710200Y842300D02*
X1722700Y829800D01*
X1708100Y784800D02*
X1722700Y799400D01*
Y829800D01*
X1710200Y842300D02*
Y842700D01*
X1631900Y683200D02*
X1672250Y723550D01*
Y830150D01*
X1684800Y842700D01*
X1631900Y708600D02*
X1645500Y722200D01*
Y828800D02*
X1659400Y842700D01*
X1645500Y722200D02*
Y828800D01*
X1671500Y514000D02*
X1701000Y543500D01*
X1714000D01*
X1731500Y561000D01*
X1671500Y436750D02*
Y514000D01*
X1534600Y592900D02*
X1547500Y580000D01*
Y505622D02*
X1554822Y498300D01*
X1622737D01*
X1627137Y493900D01*
X1659850D01*
X1660500Y493250D01*
X1547500Y505622D02*
Y580000D01*
X1560000Y592000D02*
X1572500Y579500D01*
Y530250D02*
Y579500D01*
Y530250D02*
X1579250Y523500D01*
X1622937D01*
X1627137Y519300D01*
X1661450D01*
X1661750Y519000D01*
X1759750Y517500D02*
X1806750D01*
X1807500Y518250D01*
X1534600Y618300D02*
X1541422D01*
X1565178Y604500D02*
X1572500Y597178D01*
Y593750D02*
Y597178D01*
X1541422Y618300D02*
X1555222Y604500D01*
X1565178D01*
X1572500Y593750D02*
X1623500Y542750D01*
X1647500D01*
D25*
X1570400Y657800D02*
X1631900D01*
X1560000Y668200D02*
X1570400Y657800D01*
D26*
X1598750Y451500D02*
X1613500Y436750D01*
X1724000Y385500D02*
X1807500Y469000D01*
X1613500Y436750D02*
X1671500D01*
X1701000D01*
X1807500Y469000D02*
Y518250D01*
Y732000D01*
X1735600Y803900D02*
Y817300D01*
Y803900D02*
X1807500Y732000D01*
D27*
X1585400Y561600D02*
D03*
Y536200D02*
D03*
Y510800D02*
D03*
Y485400D02*
D03*
X1534600D02*
D03*
Y510800D02*
D03*
Y536200D02*
D03*
Y561600D02*
D03*
X1560000Y485400D02*
D03*
Y510800D02*
D03*
Y536200D02*
D03*
Y561600D02*
D03*
X1735600Y817300D02*
D03*
X1710200D02*
D03*
X1684800D02*
D03*
X1659400D02*
D03*
X1735600Y842700D02*
D03*
X1710200D02*
D03*
X1684800D02*
D03*
X1659400D02*
D03*
X1560000Y775850D02*
D03*
Y750450D02*
D03*
Y725050D02*
D03*
Y699650D02*
D03*
X1534600Y775850D02*
D03*
Y750450D02*
D03*
Y725050D02*
D03*
Y699650D02*
D03*
X1585400D02*
D03*
Y725050D02*
D03*
Y750450D02*
D03*
Y775850D02*
D03*
X1560000Y592000D02*
D03*
Y617400D02*
D03*
Y642800D02*
D03*
Y668200D02*
D03*
X1534600Y669100D02*
D03*
Y643700D02*
D03*
Y618300D02*
D03*
Y592900D02*
D03*
X1762400Y696900D02*
D03*
X1762500Y648100D02*
D03*
D28*
X1538500Y392500D02*
D03*
X1611500D02*
D03*
D29*
X1670000Y395000D02*
D03*
X1785000Y825000D02*
D03*
X1555000D02*
D03*
D30*
X1631900Y454600D02*
D03*
Y480000D02*
D03*
Y505400D02*
D03*
Y530800D02*
D03*
Y556200D02*
D03*
Y581600D02*
D03*
Y607000D02*
D03*
Y632400D02*
D03*
Y657800D02*
D03*
Y683200D02*
D03*
Y708600D02*
D03*
Y734000D02*
D03*
Y759400D02*
D03*
Y784800D02*
D03*
X1708100D02*
D03*
Y759400D02*
D03*
Y734000D02*
D03*
Y708600D02*
D03*
Y683200D02*
D03*
Y657800D02*
D03*
Y632400D02*
D03*
Y607000D02*
D03*
Y581600D02*
D03*
Y556200D02*
D03*
Y530800D02*
D03*
Y505400D02*
D03*
Y480000D02*
D03*
Y454600D02*
D03*
D31*
X1701000Y436750D02*
D03*
X1598750Y451500D02*
D03*
X1724000Y385500D02*
D03*
X1731500Y561000D02*
D03*
X1660500Y493250D02*
D03*
X1661750Y519000D02*
D03*
X1759750Y517500D02*
D03*
X1647500Y542750D02*
D03*
X1670000Y680000D02*
D03*
X1730000Y760000D02*
D03*
X1793500Y614750D02*
D03*
X1787500Y547500D02*
D03*
X1742500D02*
D03*
X1795000Y480000D02*
D03*
X1807500Y447500D02*
D03*
Y377500D02*
D03*
X1710000Y372500D02*
D03*
X1637500Y422500D02*
D03*
X1660000Y590000D02*
D03*
Y777500D02*
D03*
X1587500Y800000D02*
D03*
X1637500Y842500D02*
D03*
X1612500Y765000D02*
D03*
X1735000Y615000D02*
D03*
X1670000Y662500D02*
D03*
X1687500Y680000D02*
D03*
Y662500D02*
D03*
X1793000Y726450D02*
D03*
X1614750Y417250D02*
D03*
X1534998Y417730D02*
D03*
X1800000Y757500D02*
D03*
X1782500Y775000D02*
D03*
X1800000D02*
D03*
X1730000D02*
D03*
X1745000D02*
D03*
M02*
