%FSLAX44Y44*%
%MOMM*%
G71*
G01*
G75*
%ADD10R,1.3000X1.5000*%
%ADD11R,1.1000X1.0000*%
%ADD12R,2.1000X2.9000*%
%ADD13R,0.5000X1.6000*%
%ADD14R,1.0000X1.1000*%
%ADD15R,2.4000X3.3000*%
%ADD16R,2.4000X1.0000*%
%ADD17R,1.0000X0.8500*%
%ADD18R,1.0000X0.8500*%
%ADD19R,0.8000X0.8000*%
%ADD20R,2.8000X1.5000*%
%ADD21R,0.8000X0.8000*%
%ADD22R,4.5000X5.0000*%
G04:AMPARAMS|DCode=23|XSize=5.6mm|YSize=2.1mm|CornerRadius=0.525mm|HoleSize=0mm|Usage=FLASHONLY|Rotation=270.000|XOffset=0mm|YOffset=0mm|HoleType=Round|Shape=RoundedRectangle|*
%AMROUNDEDRECTD23*
21,1,5.6000,1.0500,0,0,270.0*
21,1,4.5500,2.1000,0,0,270.0*
1,1,1.0500,-0.5250,-2.2750*
1,1,1.0500,-0.5250,2.2750*
1,1,1.0500,0.5250,2.2750*
1,1,1.0500,0.5250,-2.2750*
%
%ADD23ROUNDEDRECTD23*%
%ADD24C,0.3000*%
%ADD25C,0.5000*%
%ADD26C,0.7500*%
%ADD27C,1.8000*%
%ADD28O,1.0000X1.7000*%
%ADD29C,6.0000*%
%ADD30C,1.6000*%
%ADD31C,0.6000*%
%ADD32C,0.2500*%
%ADD33C,0.1000*%
%ADD34C,0.2000*%
%ADD35C,0.0800*%
%ADD36R,1.5032X1.7032*%
%ADD37R,1.3032X1.2032*%
%ADD38R,2.3032X3.1032*%
%ADD39R,0.7032X1.8032*%
%ADD40R,1.2032X1.3032*%
%ADD41R,2.6032X3.5032*%
%ADD42R,2.6032X1.2032*%
%ADD43R,1.2032X1.0532*%
%ADD44R,1.2032X1.0532*%
%ADD45R,1.0032X1.0032*%
%ADD46R,3.4000X2.1000*%
%ADD47R,1.0032X1.0032*%
%ADD48R,4.7032X5.2032*%
G04:AMPARAMS|DCode=49|XSize=5.8032mm|YSize=2.3032mm|CornerRadius=0.6266mm|HoleSize=0mm|Usage=FLASHONLY|Rotation=270.000|XOffset=0mm|YOffset=0mm|HoleType=Round|Shape=RoundedRectangle|*
%AMROUNDEDRECTD49*
21,1,5.8032,1.0500,0,0,270.0*
21,1,4.5500,2.3032,0,0,270.0*
1,1,1.2532,-0.5250,-2.2750*
1,1,1.2532,-0.5250,2.2750*
1,1,1.2532,0.5250,2.2750*
1,1,1.2532,0.5250,-2.2750*
%
%ADD49ROUNDEDRECTD49*%
%ADD50C,2.0032*%
%ADD51O,1.2032X1.9032*%
%ADD52C,6.2032*%
%ADD53C,1.8032*%
%ADD54C,0.2540*%
%ADD55C,0.1524*%
%ADD56C,0.1270*%
%ADD57C,0.1693*%
D56*
X1579900Y561600D02*
X1590900D01*
X1585400Y556100D02*
Y567100D01*
X1579900Y536200D02*
X1590900D01*
X1585400Y530700D02*
Y541700D01*
X1579900Y510800D02*
X1590900D01*
X1585400Y505300D02*
Y516300D01*
X1579900Y485400D02*
X1590900D01*
X1585400Y479900D02*
Y490900D01*
X1529100Y485400D02*
X1540100D01*
X1534600Y479900D02*
Y490900D01*
X1529100Y510800D02*
X1540100D01*
X1534600Y505300D02*
Y516300D01*
X1529100Y536200D02*
X1540100D01*
X1534600Y530700D02*
Y541700D01*
X1529100Y561600D02*
X1540100D01*
X1534600Y556100D02*
Y567100D01*
X1554500Y485400D02*
X1565500D01*
X1560000Y479900D02*
Y490900D01*
X1554500Y510800D02*
X1565500D01*
X1560000Y505300D02*
Y516300D01*
X1554500Y536200D02*
X1565500D01*
X1560000Y530700D02*
Y541700D01*
X1554500Y561600D02*
X1565500D01*
X1560000Y556100D02*
Y567100D01*
X1535000Y392500D02*
X1542000D01*
X1538500Y389000D02*
Y396000D01*
X1608000Y392500D02*
X1615000D01*
X1611500Y389000D02*
Y396000D01*
X1652500Y395000D02*
X1687500D01*
X1670000Y377500D02*
Y412500D01*
X1767500Y825000D02*
X1802500D01*
X1785000Y807500D02*
Y842500D01*
X1537500Y825000D02*
X1572500D01*
X1555000Y807500D02*
Y842500D01*
X1730100Y817300D02*
X1741100D01*
X1735600Y811800D02*
Y822800D01*
X1704700Y817300D02*
X1715700D01*
X1710200Y811800D02*
Y822800D01*
X1679300Y817300D02*
X1690300D01*
X1684800Y811800D02*
Y822800D01*
X1653900Y817300D02*
X1664900D01*
X1659400Y811800D02*
Y822800D01*
X1730100Y842700D02*
X1741100D01*
X1735600Y837200D02*
Y848200D01*
X1704700Y842700D02*
X1715700D01*
X1710200Y837200D02*
Y848200D01*
X1679300Y842700D02*
X1690300D01*
X1684800Y837200D02*
Y848200D01*
X1653900Y842700D02*
X1664900D01*
X1659400Y837200D02*
Y848200D01*
X1554500Y775850D02*
X1565500D01*
X1560000Y770350D02*
Y781350D01*
X1554500Y750450D02*
X1565500D01*
X1560000Y744950D02*
Y755950D01*
X1554500Y725050D02*
X1565500D01*
X1560000Y719550D02*
Y730550D01*
X1554500Y699650D02*
X1565500D01*
X1560000Y694150D02*
Y705150D01*
X1529100Y775850D02*
X1540100D01*
X1534600Y770350D02*
Y781350D01*
X1529100Y750450D02*
X1540100D01*
X1534600Y744950D02*
Y755950D01*
X1529100Y725050D02*
X1540100D01*
X1534600Y719550D02*
Y730550D01*
X1529100Y699650D02*
X1540100D01*
X1534600Y694150D02*
Y705150D01*
X1579900Y699650D02*
X1590900D01*
X1585400Y694150D02*
Y705150D01*
X1579900Y725050D02*
X1590900D01*
X1585400Y719550D02*
Y730550D01*
X1579900Y750450D02*
X1590900D01*
X1585400Y744950D02*
Y755950D01*
X1579900Y775850D02*
X1590900D01*
X1585400Y770350D02*
Y781350D01*
X1626900Y454600D02*
X1636900D01*
X1631900Y449600D02*
Y459600D01*
X1626900Y480000D02*
X1636900D01*
X1631900Y475000D02*
Y485000D01*
X1626900Y505400D02*
X1636900D01*
X1631900Y500400D02*
Y510400D01*
X1626900Y530800D02*
X1636900D01*
X1631900Y525800D02*
Y535800D01*
X1626900Y556200D02*
X1636900D01*
X1631900Y551200D02*
Y561200D01*
X1626900Y581600D02*
X1636900D01*
X1631900Y576600D02*
Y586600D01*
X1626900Y607000D02*
X1636900D01*
X1631900Y602000D02*
Y612000D01*
X1626900Y632400D02*
X1636900D01*
X1631900Y627400D02*
Y637400D01*
X1626900Y657800D02*
X1636900D01*
X1631900Y652800D02*
Y662800D01*
X1626900Y683200D02*
X1636900D01*
X1631900Y678200D02*
Y688200D01*
X1626900Y708600D02*
X1636900D01*
X1631900Y703600D02*
Y713600D01*
X1626900Y734000D02*
X1636900D01*
X1631900Y729000D02*
Y739000D01*
X1626900Y759400D02*
X1636900D01*
X1631900Y754400D02*
Y764400D01*
X1626900Y784800D02*
X1636900D01*
X1631900Y779800D02*
Y789800D01*
X1703100Y784800D02*
X1713100D01*
X1708100Y779800D02*
Y789800D01*
X1703100Y759400D02*
X1713100D01*
X1708100Y754400D02*
Y764400D01*
X1703100Y734000D02*
X1713100D01*
X1708100Y729000D02*
Y739000D01*
X1703100Y708600D02*
X1713100D01*
X1708100Y703600D02*
Y713600D01*
X1703100Y683200D02*
X1713100D01*
X1708100Y678200D02*
Y688200D01*
X1703100Y657800D02*
X1713100D01*
X1708100Y652800D02*
Y662800D01*
X1703100Y632400D02*
X1713100D01*
X1708100Y627400D02*
Y637400D01*
X1703100Y607000D02*
X1713100D01*
X1708100Y602000D02*
Y612000D01*
X1703100Y581600D02*
X1713100D01*
X1708100Y576600D02*
Y586600D01*
X1703100Y556200D02*
X1713100D01*
X1708100Y551200D02*
Y561200D01*
X1703100Y530800D02*
X1713100D01*
X1708100Y525800D02*
Y535800D01*
X1703100Y505400D02*
X1713100D01*
X1708100Y500400D02*
Y510400D01*
X1703100Y480000D02*
X1713100D01*
X1708100Y475000D02*
Y485000D01*
X1703100Y454600D02*
X1713100D01*
X1708100Y449600D02*
Y459600D01*
X1554500Y592000D02*
X1565500D01*
X1560000Y586500D02*
Y597500D01*
X1554500Y617400D02*
X1565500D01*
X1560000Y611900D02*
Y622900D01*
X1554500Y642800D02*
X1565500D01*
X1560000Y637300D02*
Y648300D01*
X1554500Y668200D02*
X1565500D01*
X1560000Y662700D02*
Y673700D01*
X1529100Y669100D02*
X1540100D01*
X1534600Y663600D02*
Y674600D01*
X1529100Y643700D02*
X1540100D01*
X1534600Y638200D02*
Y649200D01*
X1529100Y618300D02*
X1540100D01*
X1534600Y612800D02*
Y623800D01*
X1529100Y592900D02*
X1540100D01*
X1534600Y587400D02*
Y598400D01*
X1757400Y696900D02*
X1767400D01*
X1762400Y691900D02*
Y701900D01*
X1757500Y648100D02*
X1767500D01*
X1762500Y643100D02*
Y653100D01*
X1699500Y436750D02*
X1702500D01*
X1701000Y435250D02*
Y438250D01*
X1597250Y451500D02*
X1600250D01*
X1598750Y450000D02*
Y453000D01*
X1722500Y385500D02*
X1725500D01*
X1724000Y384000D02*
Y387000D01*
X1730000Y561000D02*
X1733000D01*
X1731500Y559500D02*
Y562500D01*
X1659000Y493250D02*
X1662000D01*
X1660500Y491750D02*
Y494750D01*
X1660250Y519000D02*
X1663250D01*
X1661750Y517500D02*
Y520500D01*
X1758250Y517500D02*
X1761250D01*
X1759750Y516000D02*
Y519000D01*
X1646000Y542750D02*
X1649000D01*
X1647500Y541250D02*
Y544250D01*
X1668500Y680000D02*
X1671500D01*
X1670000Y678500D02*
Y681500D01*
X1728500Y760000D02*
X1731500D01*
X1730000Y758500D02*
Y761500D01*
X1792000Y614750D02*
X1795000D01*
X1793500Y613250D02*
Y616250D01*
X1786000Y547500D02*
X1789000D01*
X1787500Y546000D02*
Y549000D01*
X1741000Y547500D02*
X1744000D01*
X1742500Y546000D02*
Y549000D01*
X1793500Y480000D02*
X1796500D01*
X1795000Y478500D02*
Y481500D01*
X1806000Y447500D02*
X1809000D01*
X1807500Y446000D02*
Y449000D01*
X1806000Y377500D02*
X1809000D01*
X1807500Y376000D02*
Y379000D01*
X1708500Y372500D02*
X1711500D01*
X1710000Y371000D02*
Y374000D01*
X1636000Y422500D02*
X1639000D01*
X1637500Y421000D02*
Y424000D01*
X1658500Y590000D02*
X1661500D01*
X1660000Y588500D02*
Y591500D01*
X1658500Y777500D02*
X1661500D01*
X1660000Y776000D02*
Y779000D01*
X1586000Y800000D02*
X1589000D01*
X1587500Y798500D02*
Y801500D01*
X1636000Y842500D02*
X1639000D01*
X1637500Y841000D02*
Y844000D01*
X1611000Y765000D02*
X1614000D01*
X1612500Y763500D02*
Y766500D01*
X1733500Y615000D02*
X1736500D01*
X1735000Y613500D02*
Y616500D01*
X1668500Y662500D02*
X1671500D01*
X1670000Y661000D02*
Y664000D01*
X1686000Y680000D02*
X1689000D01*
X1687500Y678500D02*
Y681500D01*
X1686000Y662500D02*
X1689000D01*
X1687500Y661000D02*
Y664000D01*
X1791500Y726450D02*
X1794500D01*
X1793000Y724950D02*
Y727950D01*
X1613250Y417250D02*
X1616250D01*
X1614750Y415750D02*
Y418750D01*
X1533497Y417730D02*
X1536497D01*
X1534998Y416230D02*
Y419230D01*
X1798500Y757500D02*
X1801500D01*
X1800000Y756000D02*
Y759000D01*
X1781000Y775000D02*
X1784000D01*
X1782500Y773500D02*
Y776500D01*
X1798500Y775000D02*
X1801500D01*
X1800000Y773500D02*
Y776500D01*
X1728500Y775000D02*
X1731500D01*
X1730000Y773500D02*
Y776500D01*
X1743500Y775000D02*
X1746500D01*
X1745000Y773500D02*
Y776500D01*
M02*
