%FSLAX44Y44*%
%MOMM*%
G71*
G01*
G75*
G04 Layer_Color=32896*
%ADD10R,1.3000X1.5000*%
%ADD11R,1.1000X1.0000*%
%ADD12R,2.1000X2.9000*%
%ADD13R,0.5000X1.6000*%
%ADD14R,1.0000X1.1000*%
%ADD15R,2.4000X3.3000*%
%ADD16R,2.4000X1.0000*%
%ADD17R,1.0000X0.8500*%
%ADD18R,1.0000X0.8500*%
%ADD19R,0.8000X0.8000*%
%ADD20R,2.8000X1.5000*%
%ADD21R,0.8000X0.8000*%
%ADD22R,4.5000X5.0000*%
G04:AMPARAMS|DCode=23|XSize=5.6mm|YSize=2.1mm|CornerRadius=0.525mm|HoleSize=0mm|Usage=FLASHONLY|Rotation=270.000|XOffset=0mm|YOffset=0mm|HoleType=Round|Shape=RoundedRectangle|*
%AMROUNDEDRECTD23*
21,1,5.6000,1.0500,0,0,270.0*
21,1,4.5500,2.1000,0,0,270.0*
1,1,1.0500,-0.5250,-2.2750*
1,1,1.0500,-0.5250,2.2750*
1,1,1.0500,0.5250,2.2750*
1,1,1.0500,0.5250,-2.2750*
%
%ADD23ROUNDEDRECTD23*%
%ADD24C,0.3000*%
%ADD25C,0.5000*%
%ADD26C,0.7500*%
%ADD27C,1.8000*%
%ADD28O,1.0000X1.7000*%
%ADD29C,6.0000*%
%ADD30C,1.6000*%
%ADD31C,0.6000*%
%ADD32C,0.2500*%
%ADD33C,0.1000*%
%ADD34C,0.2000*%
%ADD35C,0.0800*%
%ADD36R,1.5032X1.7032*%
%ADD37R,1.3032X1.2032*%
%ADD38R,2.3032X3.1032*%
%ADD39R,0.7032X1.8032*%
%ADD40R,1.2032X1.3032*%
%ADD41R,2.6032X3.5032*%
%ADD42R,2.6032X1.2032*%
%ADD43R,1.2032X1.0532*%
%ADD44R,1.2032X1.0532*%
%ADD45R,1.0032X1.0032*%
%ADD46R,3.4000X2.1000*%
%ADD47R,1.0032X1.0032*%
%ADD48R,4.7032X5.2032*%
G04:AMPARAMS|DCode=49|XSize=5.8032mm|YSize=2.3032mm|CornerRadius=0.6266mm|HoleSize=0mm|Usage=FLASHONLY|Rotation=270.000|XOffset=0mm|YOffset=0mm|HoleType=Round|Shape=RoundedRectangle|*
%AMROUNDEDRECTD49*
21,1,5.8032,1.0500,0,0,270.0*
21,1,4.5500,2.3032,0,0,270.0*
1,1,1.2532,-0.5250,-2.2750*
1,1,1.2532,-0.5250,2.2750*
1,1,1.2532,0.5250,2.2750*
1,1,1.2532,0.5250,-2.2750*
%
%ADD49ROUNDEDRECTD49*%
%ADD50C,2.0032*%
%ADD51O,1.2032X1.9032*%
%ADD52C,6.2032*%
%ADD53C,1.8032*%
G36*
X1744466Y495605D02*
X1745416D01*
Y495288D01*
X1745733D01*
Y494971D01*
X1746049D01*
Y495288D01*
X1746366D01*
Y494971D01*
X1746683D01*
Y494655D01*
X1746999D01*
Y494338D01*
X1747316D01*
Y494021D01*
X1747633D01*
Y493704D01*
X1747949D01*
Y493388D01*
X1748266D01*
Y492438D01*
X1748583D01*
Y492121D01*
X1748899D01*
Y491804D01*
X1748583D01*
Y492121D01*
X1748266D01*
Y491804D01*
X1748583D01*
Y491488D01*
X1748899D01*
Y490538D01*
X1749216D01*
Y490221D01*
X1748899D01*
Y489904D01*
X1749216D01*
Y489588D01*
X1749533D01*
Y489271D01*
X1749216D01*
Y488954D01*
X1749533D01*
Y487371D01*
X1749849D01*
Y487054D01*
X1749533D01*
Y486738D01*
X1749849D01*
Y486421D01*
X1750166D01*
Y486104D01*
X1749849D01*
Y485787D01*
X1750166D01*
Y484837D01*
X1750483D01*
Y484521D01*
X1750800D01*
Y483887D01*
X1751433D01*
Y483571D01*
X1751750D01*
Y483887D01*
X1752383D01*
Y484521D01*
X1752700D01*
Y484837D01*
X1753016D01*
Y485787D01*
X1753333D01*
Y486104D01*
X1753016D01*
Y486421D01*
X1753333D01*
Y486738D01*
X1753016D01*
Y487054D01*
X1753333D01*
Y487371D01*
X1753016D01*
Y487687D01*
X1753333D01*
Y488004D01*
X1753016D01*
Y488321D01*
X1753333D01*
Y488638D01*
X1753016D01*
Y488954D01*
X1753333D01*
Y489271D01*
X1753016D01*
Y490221D01*
X1752700D01*
Y490538D01*
X1753016D01*
Y490854D01*
X1752700D01*
Y491171D01*
X1752383D01*
Y492121D01*
X1752066D01*
Y493071D01*
X1751750D01*
Y493388D01*
X1751433D01*
Y493704D01*
X1751116D01*
Y494655D01*
X1751433D01*
Y494971D01*
X1752383D01*
Y494655D01*
X1752700D01*
Y494971D01*
X1753016D01*
Y494655D01*
X1753333D01*
Y494971D01*
X1753650D01*
Y494655D01*
X1753966D01*
Y494971D01*
X1754916D01*
Y494655D01*
X1755233D01*
Y494971D01*
X1755866D01*
Y494338D01*
X1756183D01*
Y494021D01*
X1756500D01*
Y493704D01*
X1756817D01*
Y493388D01*
X1756500D01*
Y493071D01*
X1756817D01*
Y492754D01*
X1757133D01*
Y492438D01*
X1756817D01*
Y492121D01*
X1757133D01*
Y490538D01*
X1757450D01*
Y490221D01*
X1757133D01*
Y489904D01*
X1757450D01*
Y489588D01*
X1757133D01*
Y489271D01*
X1757450D01*
Y488954D01*
X1757767D01*
Y488638D01*
X1757450D01*
Y488321D01*
X1757767D01*
Y488004D01*
X1757450D01*
Y488321D01*
X1757133D01*
Y488004D01*
X1757450D01*
Y487687D01*
X1757767D01*
Y487371D01*
X1757450D01*
Y487054D01*
X1757767D01*
Y486738D01*
X1757450D01*
Y487054D01*
X1757133D01*
Y486738D01*
X1757450D01*
Y486421D01*
X1757767D01*
Y486104D01*
X1757450D01*
Y485787D01*
X1757133D01*
Y485471D01*
X1757450D01*
Y485154D01*
X1757133D01*
Y484837D01*
X1757450D01*
Y484521D01*
X1757133D01*
Y482937D01*
X1756817D01*
Y482621D01*
X1756500D01*
Y482304D01*
X1756817D01*
Y481987D01*
X1756500D01*
Y481037D01*
X1756183D01*
Y480720D01*
X1755866D01*
Y479771D01*
X1755550D01*
Y479454D01*
X1755233D01*
Y479137D01*
X1754916D01*
Y478820D01*
X1754600D01*
Y478504D01*
X1754283D01*
Y478187D01*
X1753333D01*
Y477870D01*
X1753016D01*
Y477554D01*
X1752700D01*
Y477237D01*
X1752383D01*
Y477554D01*
X1752066D01*
Y477237D01*
X1751750D01*
Y477554D01*
X1751433D01*
Y477237D01*
X1751116D01*
Y477554D01*
X1750800D01*
Y477237D01*
X1750483D01*
Y477554D01*
X1750166D01*
Y477237D01*
X1749849D01*
Y477554D01*
X1749533D01*
Y477237D01*
X1749216D01*
Y477554D01*
X1748266D01*
Y477870D01*
X1747949D01*
Y478187D01*
X1747633D01*
Y478504D01*
X1747316D01*
Y478820D01*
X1746999D01*
Y479137D01*
X1746683D01*
Y479454D01*
X1746366D01*
Y479771D01*
X1746049D01*
Y480087D01*
X1745733D01*
Y480404D01*
X1745416D01*
Y481987D01*
X1745099D01*
Y482304D01*
X1744783D01*
Y482621D01*
X1745099D01*
Y482937D01*
X1744783D01*
Y483887D01*
X1744466D01*
Y484204D01*
X1744783D01*
Y484521D01*
X1744466D01*
Y484837D01*
X1744783D01*
Y485154D01*
X1744466D01*
Y485471D01*
X1744149D01*
Y485787D01*
X1744466D01*
Y486104D01*
X1744149D01*
Y487054D01*
X1743833D01*
Y487371D01*
X1744149D01*
Y487687D01*
X1743833D01*
Y488004D01*
X1743516D01*
Y488321D01*
X1743833D01*
Y488638D01*
X1743516D01*
Y488954D01*
X1743199D01*
Y489271D01*
X1742249D01*
Y488954D01*
X1741299D01*
Y488638D01*
X1741616D01*
Y488321D01*
X1741299D01*
Y488004D01*
X1740982D01*
Y487687D01*
X1741299D01*
Y487371D01*
X1740982D01*
Y487054D01*
X1740666D01*
Y486738D01*
X1740982D01*
Y486421D01*
X1740666D01*
Y486104D01*
X1740982D01*
Y485787D01*
X1740666D01*
Y485471D01*
X1740982D01*
Y485154D01*
X1740666D01*
Y484837D01*
X1740982D01*
Y484521D01*
X1740666D01*
Y484204D01*
X1740982D01*
Y483254D01*
X1741299D01*
Y482304D01*
X1741616D01*
Y481987D01*
X1741299D01*
Y481671D01*
X1741616D01*
Y481354D01*
X1741932D01*
Y481037D01*
X1741616D01*
Y480720D01*
X1741932D01*
Y479771D01*
X1742249D01*
Y479454D01*
X1742566D01*
Y478504D01*
X1742882D01*
Y478187D01*
X1743199D01*
Y477870D01*
X1743516D01*
Y477554D01*
X1743199D01*
Y477237D01*
X1741616D01*
Y476920D01*
X1741299D01*
Y477237D01*
X1739082D01*
Y476920D01*
X1738766D01*
Y477237D01*
X1738132D01*
Y477870D01*
X1737816D01*
Y478820D01*
X1737499D01*
Y479771D01*
X1737182D01*
Y481354D01*
X1736866D01*
Y481671D01*
X1737182D01*
Y481987D01*
X1736866D01*
Y482304D01*
X1736549D01*
Y482621D01*
X1736866D01*
Y482937D01*
X1736549D01*
Y483254D01*
X1736866D01*
Y483571D01*
X1736549D01*
Y483887D01*
X1736866D01*
Y484204D01*
X1736549D01*
Y486421D01*
X1736866D01*
Y486738D01*
X1736549D01*
Y487054D01*
X1736866D01*
Y487371D01*
X1736549D01*
Y487687D01*
X1736866D01*
Y488004D01*
X1736549D01*
Y488321D01*
X1736866D01*
Y488004D01*
X1737182D01*
Y488321D01*
X1736866D01*
Y488638D01*
X1737182D01*
Y488954D01*
X1736866D01*
Y489271D01*
X1737182D01*
Y490221D01*
X1737499D01*
Y490538D01*
X1737182D01*
Y490854D01*
X1737499D01*
Y491171D01*
X1737816D01*
Y492121D01*
X1738132D01*
Y492438D01*
X1738449D01*
Y493388D01*
X1738766D01*
Y493704D01*
X1739082D01*
Y494021D01*
X1739399D01*
Y494338D01*
X1739716D01*
Y494655D01*
X1740349D01*
Y494971D01*
X1740982D01*
Y495288D01*
X1741932D01*
Y495605D01*
X1742882D01*
Y495921D01*
X1743199D01*
Y495605D01*
X1743516D01*
Y495921D01*
X1743833D01*
Y495605D01*
X1744149D01*
Y495921D01*
X1744466D01*
Y495605D01*
D02*
G37*
G36*
X1786901Y501305D02*
X1787851D01*
Y500988D01*
X1788168D01*
Y501305D01*
X1788485D01*
Y500988D01*
X1790068D01*
Y500672D01*
X1790385D01*
Y500988D01*
X1790701D01*
Y500672D01*
X1791018D01*
Y500988D01*
X1791335D01*
Y500672D01*
X1791651D01*
Y500355D01*
X1792601D01*
Y500038D01*
X1792918D01*
Y500355D01*
X1793235D01*
Y500038D01*
X1793552D01*
Y499721D01*
X1793868D01*
Y499405D01*
X1794185D01*
Y499721D01*
X1794502D01*
Y499405D01*
X1794818D01*
Y499721D01*
X1795135D01*
Y499405D01*
X1795452D01*
Y499088D01*
X1795768D01*
Y498771D01*
X1796085D01*
Y499088D01*
X1796402D01*
Y498771D01*
X1796718D01*
Y498455D01*
X1797035D01*
Y498138D01*
X1797352D01*
Y498455D01*
X1797668D01*
Y498138D01*
X1797985D01*
Y497821D01*
X1798302D01*
Y497505D01*
X1798618D01*
Y497821D01*
X1798935D01*
Y497505D01*
X1799252D01*
Y497188D01*
X1799568D01*
Y496871D01*
X1799885D01*
Y496555D01*
X1800835D01*
Y496238D01*
X1801152D01*
Y495921D01*
X1801469D01*
Y495605D01*
X1801785D01*
Y495288D01*
X1802102D01*
Y494971D01*
X1802735D01*
Y494338D01*
X1803369D01*
Y494021D01*
X1804002D01*
Y493071D01*
X1804319D01*
Y493388D01*
X1804635D01*
Y492754D01*
X1805269D01*
Y491804D01*
X1805902D01*
Y491171D01*
X1806536D01*
Y490538D01*
X1806852D01*
Y490221D01*
X1807169D01*
Y489904D01*
X1807486D01*
Y489588D01*
X1807802D01*
Y488638D01*
X1808119D01*
Y488321D01*
X1808436D01*
Y488004D01*
X1808752D01*
Y487687D01*
X1809069D01*
Y486738D01*
X1809386D01*
Y486421D01*
X1809702D01*
Y485471D01*
X1810019D01*
Y485154D01*
X1810336D01*
Y484204D01*
X1810652D01*
Y483887D01*
X1810969D01*
Y483571D01*
X1810652D01*
Y483254D01*
X1810969D01*
Y482937D01*
X1811286D01*
Y482621D01*
X1810969D01*
Y482304D01*
X1811286D01*
Y481987D01*
X1811602D01*
Y481671D01*
X1811286D01*
Y481354D01*
X1811602D01*
Y480404D01*
X1811286D01*
Y480087D01*
X1811602D01*
Y479771D01*
X1811286D01*
Y479454D01*
X1811602D01*
Y479137D01*
X1811286D01*
Y478820D01*
X1810969D01*
Y478504D01*
X1810652D01*
Y478187D01*
X1810336D01*
Y477870D01*
X1810019D01*
Y477554D01*
X1809702D01*
Y477237D01*
X1809386D01*
Y476920D01*
X1809069D01*
Y476604D01*
X1808752D01*
Y476920D01*
X1808436D01*
Y476604D01*
X1808119D01*
Y476920D01*
X1807802D01*
Y476604D01*
X1806852D01*
Y476920D01*
X1806536D01*
Y476604D01*
X1806219D01*
Y476920D01*
X1805585D01*
Y477237D01*
X1804952D01*
Y477554D01*
X1804635D01*
Y477870D01*
X1804319D01*
Y478187D01*
X1804002D01*
Y478504D01*
X1803685D01*
Y478820D01*
X1803369D01*
Y479137D01*
X1803685D01*
Y479454D01*
X1803369D01*
Y479771D01*
X1803052D01*
Y480720D01*
X1802735D01*
Y481037D01*
X1802419D01*
Y481354D01*
X1802735D01*
Y481671D01*
X1802419D01*
Y481987D01*
X1802102D01*
Y482304D01*
X1801785D01*
Y483254D01*
X1801469D01*
Y483571D01*
X1801152D01*
Y484521D01*
X1800835D01*
Y484837D01*
X1800519D01*
Y485154D01*
X1800202D01*
Y485471D01*
X1799885D01*
Y485787D01*
X1799568D01*
Y486104D01*
X1799252D01*
Y486421D01*
X1798935D01*
Y486738D01*
X1798618D01*
Y487054D01*
X1798302D01*
Y487371D01*
X1797985D01*
Y487687D01*
X1797668D01*
Y488004D01*
X1797352D01*
Y488321D01*
X1797035D01*
Y488638D01*
X1796718D01*
Y488954D01*
X1796402D01*
Y489271D01*
X1796085D01*
Y489588D01*
X1795452D01*
Y489904D01*
X1794818D01*
Y490221D01*
X1794502D01*
Y490538D01*
X1794185D01*
Y490854D01*
X1793868D01*
Y490538D01*
X1793552D01*
Y490854D01*
X1793235D01*
Y491171D01*
X1792285D01*
Y491488D01*
X1791651D01*
Y491804D01*
X1791018D01*
Y492121D01*
X1790701D01*
Y491804D01*
X1790385D01*
Y492121D01*
X1789435D01*
Y492438D01*
X1789118D01*
Y492754D01*
X1788801D01*
Y492438D01*
X1788485D01*
Y492754D01*
X1788168D01*
Y492438D01*
X1787851D01*
Y492754D01*
X1786268D01*
Y493071D01*
X1785951D01*
Y492754D01*
X1785634D01*
Y493071D01*
X1785318D01*
Y492754D01*
X1785001D01*
Y493071D01*
X1784051D01*
Y492754D01*
X1783734D01*
Y493071D01*
X1783418D01*
Y492754D01*
X1783101D01*
Y493071D01*
X1782784D01*
Y492754D01*
X1781834D01*
Y492438D01*
X1781518D01*
Y492754D01*
X1781201D01*
Y492438D01*
X1780884D01*
Y492754D01*
X1780568D01*
Y492438D01*
X1780251D01*
Y492754D01*
X1779934D01*
Y492438D01*
X1779617D01*
Y492754D01*
X1779301D01*
Y492438D01*
X1778984D01*
Y492754D01*
X1778667D01*
Y493071D01*
X1777717D01*
Y493388D01*
X1777401D01*
Y493704D01*
X1777084D01*
Y494021D01*
X1776767D01*
Y494338D01*
X1776451D01*
Y495288D01*
X1776134D01*
Y495605D01*
X1775817D01*
Y497821D01*
X1776134D01*
Y498138D01*
X1775817D01*
Y498455D01*
X1776134D01*
Y498138D01*
X1776451D01*
Y499088D01*
X1776767D01*
Y499405D01*
X1777084D01*
Y499721D01*
X1777401D01*
Y500038D01*
X1777717D01*
Y500355D01*
X1778034D01*
Y500672D01*
X1778351D01*
Y500988D01*
X1778667D01*
Y500672D01*
X1778984D01*
Y500988D01*
X1779301D01*
Y500672D01*
X1779617D01*
Y500988D01*
X1780568D01*
Y501305D01*
X1782784D01*
Y501622D01*
X1783101D01*
Y501305D01*
X1783418D01*
Y501622D01*
X1783734D01*
Y501305D01*
X1784051D01*
Y501622D01*
X1784368D01*
Y501305D01*
X1784684D01*
Y501622D01*
X1785001D01*
Y501305D01*
X1785318D01*
Y501622D01*
X1785634D01*
Y501305D01*
X1785951D01*
Y501622D01*
X1786268D01*
Y501305D01*
X1786585D01*
Y501622D01*
X1786901D01*
Y501305D01*
D02*
G37*
G36*
X1785001Y489271D02*
X1786585D01*
Y488954D01*
X1786901D01*
Y489271D01*
X1787218D01*
Y488954D01*
X1788168D01*
Y488638D01*
X1788485D01*
Y488954D01*
X1788801D01*
Y488638D01*
X1789118D01*
Y488321D01*
X1789435D01*
Y488638D01*
X1789751D01*
Y488321D01*
X1790068D01*
Y488004D01*
X1790385D01*
Y488321D01*
X1790701D01*
Y488004D01*
X1791018D01*
Y487687D01*
X1791335D01*
Y487371D01*
X1791651D01*
Y487687D01*
X1791968D01*
Y487371D01*
X1792601D01*
Y486738D01*
X1792918D01*
Y487054D01*
X1793235D01*
Y486738D01*
X1793552D01*
Y486421D01*
X1793868D01*
Y486104D01*
X1794502D01*
Y485787D01*
X1795135D01*
Y485471D01*
X1795452D01*
Y485154D01*
X1795768D01*
Y484837D01*
X1796085D01*
Y484521D01*
X1796402D01*
Y484204D01*
X1796718D01*
Y483887D01*
X1797035D01*
Y483571D01*
X1797352D01*
Y483254D01*
X1797668D01*
Y482937D01*
X1797985D01*
Y482621D01*
X1798302D01*
Y482304D01*
X1798618D01*
Y481987D01*
X1798935D01*
Y481037D01*
X1799252D01*
Y480720D01*
X1799568D01*
Y480404D01*
X1799885D01*
Y480087D01*
X1800202D01*
Y479137D01*
X1800519D01*
Y478820D01*
X1800835D01*
Y477870D01*
X1801152D01*
Y477554D01*
X1801469D01*
Y477237D01*
X1801152D01*
Y476920D01*
X1801469D01*
Y475337D01*
X1801785D01*
Y475020D01*
X1801469D01*
Y474070D01*
X1801152D01*
Y473754D01*
X1801469D01*
Y473437D01*
X1801152D01*
Y473120D01*
X1800835D01*
Y472803D01*
X1800519D01*
Y472487D01*
X1800202D01*
Y472170D01*
X1799885D01*
Y471853D01*
X1799568D01*
Y471537D01*
X1799252D01*
Y471853D01*
X1798935D01*
Y471537D01*
X1798618D01*
Y471220D01*
X1796402D01*
Y471537D01*
X1795452D01*
Y471853D01*
X1795135D01*
Y472170D01*
X1794818D01*
Y472487D01*
X1794502D01*
Y472803D01*
X1794185D01*
Y473120D01*
X1793868D01*
Y473437D01*
X1793552D01*
Y474387D01*
X1793235D01*
Y474703D01*
X1792918D01*
Y475654D01*
X1792601D01*
Y475970D01*
X1792285D01*
Y476604D01*
X1791968D01*
Y477237D01*
X1791651D01*
Y477554D01*
X1791335D01*
Y477870D01*
X1791018D01*
Y478187D01*
X1790701D01*
Y478504D01*
X1790385D01*
Y478820D01*
X1789751D01*
Y479137D01*
X1789118D01*
Y479454D01*
X1788801D01*
Y479771D01*
X1788485D01*
Y480087D01*
X1788168D01*
Y479771D01*
X1787851D01*
Y480087D01*
X1787535D01*
Y480404D01*
X1786585D01*
Y480720D01*
X1786268D01*
Y480404D01*
X1785951D01*
Y480720D01*
X1784368D01*
Y481037D01*
X1783418D01*
Y480720D01*
X1783101D01*
Y481037D01*
X1782784D01*
Y480720D01*
X1781201D01*
Y480404D01*
X1780884D01*
Y480720D01*
X1779934D01*
Y481037D01*
X1779617D01*
Y481354D01*
X1779301D01*
Y481037D01*
X1778984D01*
Y481354D01*
X1778667D01*
Y481671D01*
X1778351D01*
Y481987D01*
X1778034D01*
Y482304D01*
X1777717D01*
Y482621D01*
X1777401D01*
Y482937D01*
X1777084D01*
Y483887D01*
X1776767D01*
Y484204D01*
X1777084D01*
Y484521D01*
X1776767D01*
Y484837D01*
X1777084D01*
Y485154D01*
X1776767D01*
Y485471D01*
X1777084D01*
Y485787D01*
X1776767D01*
Y486104D01*
X1777084D01*
Y487054D01*
X1777401D01*
Y487371D01*
X1777717D01*
Y487687D01*
X1778034D01*
Y488004D01*
X1778351D01*
Y488321D01*
X1778667D01*
Y488638D01*
X1778984D01*
Y488954D01*
X1779301D01*
Y488638D01*
X1779617D01*
Y488954D01*
X1780568D01*
Y489271D01*
X1782151D01*
Y489588D01*
X1782468D01*
Y489271D01*
X1782784D01*
Y489588D01*
X1783101D01*
Y489271D01*
X1783418D01*
Y489588D01*
X1783734D01*
Y489271D01*
X1784051D01*
Y489588D01*
X1784368D01*
Y489271D01*
X1784684D01*
Y489588D01*
X1785001D01*
Y489271D01*
D02*
G37*
G36*
X1758716Y471220D02*
X1760300D01*
Y470903D01*
X1760617D01*
Y471220D01*
X1760933D01*
Y470903D01*
X1761250D01*
Y471220D01*
X1761567D01*
Y470903D01*
X1761883D01*
Y470587D01*
X1762200D01*
Y470270D01*
X1762517D01*
Y470587D01*
X1762833D01*
Y470270D01*
X1763150D01*
Y469953D01*
X1763467D01*
Y469637D01*
X1763784D01*
Y469320D01*
X1764100D01*
Y469003D01*
X1764417D01*
Y468687D01*
X1764733D01*
Y467737D01*
X1765050D01*
Y467420D01*
X1765367D01*
Y467103D01*
X1765050D01*
Y466786D01*
X1765367D01*
Y465836D01*
X1765684D01*
Y465520D01*
X1765367D01*
Y463303D01*
X1765050D01*
Y462986D01*
X1764733D01*
Y462036D01*
X1764417D01*
Y461720D01*
X1764100D01*
Y461403D01*
X1763784D01*
Y461086D01*
X1763467D01*
Y460770D01*
X1763150D01*
Y460453D01*
X1762833D01*
Y460136D01*
X1762517D01*
Y460453D01*
X1762200D01*
Y460136D01*
X1761883D01*
Y459819D01*
X1761567D01*
Y459503D01*
X1761250D01*
Y459819D01*
X1760933D01*
Y459503D01*
X1760617D01*
Y459819D01*
X1760300D01*
Y459503D01*
X1759350D01*
Y459186D01*
X1759033D01*
Y459503D01*
X1758716D01*
Y459186D01*
X1758400D01*
Y459503D01*
X1758083D01*
Y459186D01*
X1757767D01*
Y459503D01*
X1756817D01*
Y459186D01*
X1756500D01*
Y459503D01*
X1755550D01*
Y459186D01*
X1755233D01*
Y459503D01*
X1754283D01*
Y459186D01*
X1753966D01*
Y459503D01*
X1753650D01*
Y459186D01*
X1753333D01*
Y459503D01*
X1753016D01*
Y459186D01*
X1752700D01*
Y459503D01*
X1751750D01*
Y459186D01*
X1751433D01*
Y459503D01*
X1750483D01*
Y459186D01*
X1750166D01*
Y459503D01*
X1749216D01*
Y459186D01*
X1748899D01*
Y459503D01*
X1748583D01*
Y459186D01*
X1748266D01*
Y459503D01*
X1747949D01*
Y459186D01*
X1747633D01*
Y459503D01*
X1746683D01*
Y459186D01*
X1746366D01*
Y459503D01*
X1745416D01*
Y459186D01*
X1745099D01*
Y459503D01*
X1744149D01*
Y459186D01*
X1743833D01*
Y459503D01*
X1743516D01*
Y459186D01*
X1743199D01*
Y459503D01*
X1742882D01*
Y459186D01*
X1742566D01*
Y459503D01*
X1740349D01*
Y459819D01*
X1740032D01*
Y459503D01*
X1739716D01*
Y459819D01*
X1739399D01*
Y460136D01*
X1739082D01*
Y460453D01*
X1738766D01*
Y460136D01*
X1738449D01*
Y460770D01*
X1737816D01*
Y461086D01*
X1737499D01*
Y461403D01*
X1737182D01*
Y462353D01*
X1736866D01*
Y462670D01*
X1736549D01*
Y462986D01*
X1736232D01*
Y463303D01*
X1736549D01*
Y463620D01*
X1736232D01*
Y463936D01*
X1735915D01*
Y464253D01*
X1736232D01*
Y464570D01*
X1735915D01*
Y465520D01*
X1736232D01*
Y465836D01*
X1735915D01*
Y466153D01*
X1736232D01*
Y466470D01*
X1735915D01*
Y466786D01*
X1736232D01*
Y467103D01*
X1736549D01*
Y467420D01*
X1736232D01*
Y467737D01*
X1736549D01*
Y468053D01*
X1736866D01*
Y469003D01*
X1737182D01*
Y469320D01*
X1737499D01*
Y469637D01*
X1737816D01*
Y469953D01*
X1738132D01*
Y470270D01*
X1739082D01*
Y470587D01*
X1739399D01*
Y470903D01*
X1739716D01*
Y471220D01*
X1740032D01*
Y470903D01*
X1740349D01*
Y471220D01*
X1740666D01*
Y470903D01*
X1740982D01*
Y471220D01*
X1741932D01*
Y471537D01*
X1742249D01*
Y471220D01*
X1742566D01*
Y471537D01*
X1742882D01*
Y471220D01*
X1743199D01*
Y471537D01*
X1743516D01*
Y471220D01*
X1744466D01*
Y471537D01*
X1744783D01*
Y471220D01*
X1745099D01*
Y471537D01*
X1745416D01*
Y471220D01*
X1745733D01*
Y471537D01*
X1746049D01*
Y471220D01*
X1746999D01*
Y471537D01*
X1747316D01*
Y471220D01*
X1747633D01*
Y471537D01*
X1747949D01*
Y471220D01*
X1748266D01*
Y471537D01*
X1748583D01*
Y471220D01*
X1749533D01*
Y471537D01*
X1749849D01*
Y471220D01*
X1750166D01*
Y471537D01*
X1750483D01*
Y471220D01*
X1750800D01*
Y471537D01*
X1751116D01*
Y471220D01*
X1752066D01*
Y471537D01*
X1752383D01*
Y471220D01*
X1752700D01*
Y471537D01*
X1753016D01*
Y471220D01*
X1753333D01*
Y471537D01*
X1753650D01*
Y471220D01*
X1754600D01*
Y471537D01*
X1754916D01*
Y471220D01*
X1755233D01*
Y471537D01*
X1755550D01*
Y471220D01*
X1755866D01*
Y471537D01*
X1756183D01*
Y471220D01*
X1757133D01*
Y471537D01*
X1757450D01*
Y471220D01*
X1757767D01*
Y471537D01*
X1758083D01*
Y471220D01*
X1758400D01*
Y471537D01*
X1758716D01*
Y471220D01*
D02*
G37*
G36*
X1782468Y475970D02*
X1783418D01*
Y475654D01*
X1783734D01*
Y475337D01*
X1784051D01*
Y475654D01*
X1784368D01*
Y475337D01*
X1784684D01*
Y475654D01*
X1785001D01*
Y475337D01*
X1785318D01*
Y475020D01*
X1785634D01*
Y474703D01*
X1786268D01*
Y474387D01*
X1786901D01*
Y474070D01*
X1787218D01*
Y473754D01*
X1787535D01*
Y473437D01*
X1787851D01*
Y473120D01*
X1788168D01*
Y472803D01*
X1788485D01*
Y472487D01*
X1788801D01*
Y472170D01*
X1789118D01*
Y471853D01*
X1789435D01*
Y471537D01*
X1789751D01*
Y471220D01*
X1790068D01*
Y470270D01*
X1790385D01*
Y469953D01*
X1790701D01*
Y469003D01*
X1791018D01*
Y468687D01*
X1791335D01*
Y468370D01*
X1791018D01*
Y468053D01*
X1791335D01*
Y466470D01*
X1791651D01*
Y466153D01*
X1791335D01*
Y465836D01*
X1791651D01*
Y465520D01*
X1791335D01*
Y465203D01*
X1791651D01*
Y464886D01*
X1791335D01*
Y464570D01*
X1791651D01*
Y464253D01*
X1791335D01*
Y463936D01*
X1791651D01*
Y463620D01*
X1791335D01*
Y462036D01*
X1791018D01*
Y461720D01*
X1791335D01*
Y461403D01*
X1791018D01*
Y461086D01*
X1790701D01*
Y460136D01*
X1790385D01*
Y459819D01*
X1790068D01*
Y458869D01*
X1789751D01*
Y458553D01*
X1789435D01*
Y458236D01*
X1789118D01*
Y457919D01*
X1788801D01*
Y457603D01*
X1788485D01*
Y457286D01*
X1788168D01*
Y456969D01*
X1787851D01*
Y456653D01*
X1787535D01*
Y456336D01*
X1787218D01*
Y456019D01*
X1786901D01*
Y455703D01*
X1786268D01*
Y455386D01*
X1785634D01*
Y447469D01*
X1785318D01*
Y447152D01*
X1785634D01*
Y446836D01*
X1785318D01*
Y446519D01*
X1785001D01*
Y445569D01*
X1784684D01*
Y445252D01*
X1784368D01*
Y444935D01*
X1784051D01*
Y444619D01*
X1783734D01*
Y444302D01*
X1783418D01*
Y443985D01*
X1783101D01*
Y443669D01*
X1782784D01*
Y443985D01*
X1782468D01*
Y443669D01*
X1782151D01*
Y443352D01*
X1781834D01*
Y443035D01*
X1781518D01*
Y443352D01*
X1781201D01*
Y443035D01*
X1780884D01*
Y442719D01*
X1780568D01*
Y443035D01*
X1780251D01*
Y442719D01*
X1779934D01*
Y442402D01*
X1779617D01*
Y442719D01*
X1779301D01*
Y442402D01*
X1778984D01*
Y442719D01*
X1778667D01*
Y442402D01*
X1778351D01*
Y442085D01*
X1777401D01*
Y441769D01*
X1777084D01*
Y442085D01*
X1776767D01*
Y441769D01*
X1776134D01*
Y441452D01*
X1775501D01*
Y441135D01*
X1775184D01*
Y441452D01*
X1774867D01*
Y441135D01*
X1773917D01*
Y440818D01*
X1772967D01*
Y440502D01*
X1772651D01*
Y440818D01*
X1772334D01*
Y440502D01*
X1772017D01*
Y440185D01*
X1771700D01*
Y440502D01*
X1771384D01*
Y440185D01*
X1771067D01*
Y439869D01*
X1770750D01*
Y440185D01*
X1770434D01*
Y439869D01*
X1770117D01*
Y440185D01*
X1769800D01*
Y439869D01*
X1769484D01*
Y439552D01*
X1769167D01*
Y439235D01*
X1768850D01*
Y439552D01*
X1768534D01*
Y439235D01*
X1768217D01*
Y439552D01*
X1767900D01*
Y439235D01*
X1767267D01*
Y438918D01*
X1766634D01*
Y438602D01*
X1766317D01*
Y438918D01*
X1766000D01*
Y438602D01*
X1765050D01*
Y438285D01*
X1764100D01*
Y437968D01*
X1763784D01*
Y438285D01*
X1763467D01*
Y437968D01*
X1763150D01*
Y437652D01*
X1762833D01*
Y437968D01*
X1762517D01*
Y437652D01*
X1762833D01*
Y437335D01*
X1763784D01*
Y437018D01*
X1764733D01*
Y436702D01*
X1765050D01*
Y437018D01*
X1765367D01*
Y436702D01*
X1766317D01*
Y436385D01*
X1767267D01*
Y436068D01*
X1767584D01*
Y436385D01*
X1767900D01*
Y436068D01*
X1768850D01*
Y435752D01*
X1769167D01*
Y435435D01*
X1769484D01*
Y435752D01*
X1769800D01*
Y435435D01*
X1770117D01*
Y435752D01*
X1770434D01*
Y435435D01*
X1771067D01*
Y435118D01*
X1771700D01*
Y434802D01*
X1772017D01*
Y435118D01*
X1772334D01*
Y434802D01*
X1773284D01*
Y434485D01*
X1773601D01*
Y434802D01*
X1773917D01*
Y434485D01*
X1774234D01*
Y434168D01*
X1774551D01*
Y434485D01*
X1774867D01*
Y434168D01*
X1775184D01*
Y434485D01*
X1775501D01*
Y434168D01*
X1775817D01*
Y433852D01*
X1776767D01*
Y433535D01*
X1777084D01*
Y433852D01*
X1777401D01*
Y433535D01*
X1778351D01*
Y433218D01*
X1779301D01*
Y432901D01*
X1779617D01*
Y433218D01*
X1779934D01*
Y432901D01*
X1780884D01*
Y432585D01*
X1781201D01*
Y432268D01*
X1781518D01*
Y432585D01*
X1781834D01*
Y432268D01*
X1782151D01*
Y432585D01*
X1782468D01*
Y432268D01*
X1783418D01*
Y431951D01*
X1783734D01*
Y431635D01*
X1784051D01*
Y431951D01*
X1784368D01*
Y431635D01*
X1784684D01*
Y431951D01*
X1785001D01*
Y431635D01*
X1785318D01*
Y431318D01*
X1785634D01*
Y431635D01*
X1785951D01*
Y431318D01*
X1786268D01*
Y431001D01*
X1786585D01*
Y431318D01*
X1786901D01*
Y431001D01*
X1787218D01*
Y431318D01*
X1787535D01*
Y431001D01*
X1787851D01*
Y430685D01*
X1788801D01*
Y430368D01*
X1789118D01*
Y430685D01*
X1789435D01*
Y430368D01*
X1790385D01*
Y430051D01*
X1791335D01*
Y429735D01*
X1792285D01*
Y429418D01*
X1792601D01*
Y429101D01*
X1792918D01*
Y429418D01*
X1793235D01*
Y428785D01*
X1793868D01*
Y428151D01*
X1794502D01*
Y427835D01*
X1794185D01*
Y427518D01*
X1794502D01*
Y427201D01*
X1794818D01*
Y426884D01*
X1795135D01*
Y424668D01*
X1795452D01*
Y424351D01*
X1795135D01*
Y422768D01*
X1794818D01*
Y422451D01*
X1794502D01*
Y421501D01*
X1794185D01*
Y421184D01*
X1793868D01*
Y420868D01*
X1793552D01*
Y420551D01*
X1793235D01*
Y420234D01*
X1792601D01*
Y419917D01*
X1791968D01*
Y419601D01*
X1791651D01*
Y419917D01*
X1791335D01*
Y419601D01*
X1791018D01*
Y419284D01*
X1790068D01*
Y418968D01*
X1789751D01*
Y419284D01*
X1789435D01*
Y418968D01*
X1788485D01*
Y418651D01*
X1787535D01*
Y418334D01*
X1787218D01*
Y418651D01*
X1786901D01*
Y418334D01*
X1785951D01*
Y418017D01*
X1785634D01*
Y417701D01*
X1785318D01*
Y418017D01*
X1785001D01*
Y417701D01*
X1784684D01*
Y418017D01*
X1784368D01*
Y417701D01*
X1783734D01*
Y417384D01*
X1783101D01*
Y417067D01*
X1782784D01*
Y417384D01*
X1782468D01*
Y417067D01*
X1781518D01*
Y416751D01*
X1780568D01*
Y416434D01*
X1780251D01*
Y416751D01*
X1779934D01*
Y416434D01*
X1779617D01*
Y416751D01*
X1779301D01*
Y416434D01*
X1778984D01*
Y416117D01*
X1778667D01*
Y415801D01*
X1778351D01*
Y416117D01*
X1778034D01*
Y415801D01*
X1777717D01*
Y416117D01*
X1777401D01*
Y415801D01*
X1776451D01*
Y415484D01*
X1775501D01*
Y415167D01*
X1775184D01*
Y415484D01*
X1774867D01*
Y415167D01*
X1773917D01*
Y414851D01*
X1773601D01*
Y414534D01*
X1773284D01*
Y414851D01*
X1772967D01*
Y414534D01*
X1772651D01*
Y414851D01*
X1772334D01*
Y414534D01*
X1771384D01*
Y414217D01*
X1770434D01*
Y413901D01*
X1770117D01*
Y414217D01*
X1769800D01*
Y413901D01*
X1769484D01*
Y413584D01*
X1769167D01*
Y413901D01*
X1768850D01*
Y413584D01*
X1768534D01*
Y413267D01*
X1768217D01*
Y413584D01*
X1767900D01*
Y413267D01*
X1767584D01*
Y413584D01*
X1767267D01*
Y413267D01*
X1766634D01*
Y412951D01*
X1766000D01*
Y412634D01*
X1766950D01*
Y412317D01*
X1768534D01*
Y412001D01*
X1768850D01*
Y412317D01*
X1769167D01*
Y412001D01*
X1770117D01*
Y411684D01*
X1771067D01*
Y411367D01*
X1771384D01*
Y411684D01*
X1771700D01*
Y411367D01*
X1772017D01*
Y411684D01*
X1772334D01*
Y411367D01*
X1772651D01*
Y411050D01*
X1772967D01*
Y411367D01*
X1773284D01*
Y411050D01*
X1773601D01*
Y410734D01*
X1773917D01*
Y411050D01*
X1774234D01*
Y410734D01*
X1774551D01*
Y411050D01*
X1774867D01*
Y410734D01*
X1775817D01*
Y410417D01*
X1776134D01*
Y410734D01*
X1776451D01*
Y410417D01*
X1776767D01*
Y410100D01*
X1777084D01*
Y410417D01*
X1777401D01*
Y410100D01*
X1777717D01*
Y410417D01*
X1778034D01*
Y410100D01*
X1778984D01*
Y409784D01*
X1779301D01*
Y410100D01*
X1779617D01*
Y409784D01*
X1779934D01*
Y409467D01*
X1780251D01*
Y409784D01*
X1780568D01*
Y409467D01*
X1780884D01*
Y409784D01*
X1781201D01*
Y409467D01*
X1782151D01*
Y409150D01*
X1783101D01*
Y408834D01*
X1783418D01*
Y409150D01*
X1783734D01*
Y408834D01*
X1784051D01*
Y409150D01*
X1784368D01*
Y408834D01*
X1785318D01*
Y408517D01*
X1786268D01*
Y408200D01*
X1786585D01*
Y408517D01*
X1786901D01*
Y408200D01*
X1787218D01*
Y408517D01*
X1787535D01*
Y408200D01*
X1788485D01*
Y407884D01*
X1789435D01*
Y407567D01*
X1789751D01*
Y407884D01*
X1790068D01*
Y407567D01*
X1790385D01*
Y407884D01*
X1790701D01*
Y407567D01*
X1791335D01*
Y407250D01*
X1792601D01*
Y406934D01*
X1792918D01*
Y407250D01*
X1793235D01*
Y406934D01*
X1793552D01*
Y407250D01*
X1793868D01*
Y406934D01*
X1794185D01*
Y406617D01*
X1795135D01*
Y406300D01*
X1795452D01*
Y406617D01*
X1795768D01*
Y406300D01*
X1796085D01*
Y406617D01*
X1796402D01*
Y406300D01*
X1797352D01*
Y405984D01*
X1797668D01*
Y405667D01*
X1797985D01*
Y405984D01*
X1798935D01*
Y405667D01*
X1799252D01*
Y405984D01*
X1799568D01*
Y405667D01*
X1799885D01*
Y405984D01*
X1800202D01*
Y405667D01*
X1800519D01*
Y405350D01*
X1800835D01*
Y405033D01*
X1801152D01*
Y405350D01*
X1801469D01*
Y405033D01*
X1802419D01*
Y404717D01*
X1802735D01*
Y404400D01*
X1803052D01*
Y404083D01*
X1803369D01*
Y403767D01*
X1803685D01*
Y403450D01*
X1804002D01*
Y402500D01*
X1804319D01*
Y402183D01*
X1804635D01*
Y401233D01*
X1804952D01*
Y400917D01*
X1804635D01*
Y400600D01*
X1804952D01*
Y400283D01*
X1804635D01*
Y399967D01*
X1804952D01*
Y399650D01*
X1804635D01*
Y399333D01*
X1804952D01*
Y399016D01*
X1804635D01*
Y398066D01*
X1804319D01*
Y397750D01*
X1804002D01*
Y396800D01*
X1803685D01*
Y396483D01*
X1803369D01*
Y396166D01*
X1803052D01*
Y395850D01*
X1802735D01*
Y395533D01*
X1801785D01*
Y395216D01*
X1801469D01*
Y394900D01*
X1801152D01*
Y395216D01*
X1800835D01*
Y394900D01*
X1800202D01*
Y394583D01*
X1799568D01*
Y394266D01*
X1799252D01*
Y394583D01*
X1798935D01*
Y394266D01*
X1797985D01*
Y393950D01*
X1797035D01*
Y393633D01*
X1796718D01*
Y393950D01*
X1796402D01*
Y393633D01*
X1796085D01*
Y393316D01*
X1795768D01*
Y393633D01*
X1795452D01*
Y393316D01*
X1795135D01*
Y392999D01*
X1794818D01*
Y393316D01*
X1794502D01*
Y392999D01*
X1794185D01*
Y393316D01*
X1793868D01*
Y392999D01*
X1793552D01*
Y392683D01*
X1792601D01*
Y392366D01*
X1792285D01*
Y392683D01*
X1791968D01*
Y392366D01*
X1791335D01*
Y391733D01*
X1791018D01*
Y392049D01*
X1790701D01*
Y391733D01*
X1790385D01*
Y392049D01*
X1790068D01*
Y391733D01*
X1789118D01*
Y391416D01*
X1788168D01*
Y391099D01*
X1787851D01*
Y391416D01*
X1787535D01*
Y391099D01*
X1787218D01*
Y390783D01*
X1786901D01*
Y391099D01*
X1786585D01*
Y390783D01*
X1786268D01*
Y390466D01*
X1785951D01*
Y390783D01*
X1785634D01*
Y390466D01*
X1785318D01*
Y390783D01*
X1785001D01*
Y390466D01*
X1784684D01*
Y390149D01*
X1784368D01*
Y389833D01*
X1784051D01*
Y390149D01*
X1783734D01*
Y389833D01*
X1783418D01*
Y390149D01*
X1783101D01*
Y389833D01*
X1782468D01*
Y389516D01*
X1781834D01*
Y389199D01*
X1781518D01*
Y389516D01*
X1781201D01*
Y389199D01*
X1780251D01*
Y388883D01*
X1779301D01*
Y388566D01*
X1778984D01*
Y388883D01*
X1778667D01*
Y388566D01*
X1778351D01*
Y388249D01*
X1778034D01*
Y388566D01*
X1777717D01*
Y388249D01*
X1777401D01*
Y387933D01*
X1777084D01*
Y388249D01*
X1776767D01*
Y387933D01*
X1775817D01*
Y387616D01*
X1775501D01*
Y387299D01*
X1775184D01*
Y387616D01*
X1774867D01*
Y387299D01*
X1774551D01*
Y387616D01*
X1774234D01*
Y387299D01*
X1773601D01*
Y386666D01*
X1773284D01*
Y386983D01*
X1772967D01*
Y386666D01*
X1772651D01*
Y386983D01*
X1772334D01*
Y386666D01*
X1771384D01*
Y386349D01*
X1771067D01*
Y386032D01*
X1771384D01*
Y385716D01*
X1771067D01*
Y385399D01*
X1771384D01*
Y385083D01*
X1771067D01*
Y384132D01*
X1771384D01*
Y383816D01*
X1771067D01*
Y383499D01*
X1771384D01*
Y383182D01*
X1771067D01*
Y382866D01*
X1771384D01*
Y382549D01*
X1771067D01*
Y381599D01*
X1771384D01*
Y381282D01*
X1771067D01*
Y380966D01*
X1771384D01*
Y380649D01*
X1771067D01*
Y380332D01*
X1771384D01*
Y380015D01*
X1771067D01*
Y379066D01*
X1771384D01*
Y378749D01*
X1771067D01*
Y378432D01*
X1771384D01*
Y378116D01*
X1771067D01*
Y377799D01*
X1771384D01*
Y377482D01*
X1771067D01*
Y376532D01*
X1760617D01*
Y376849D01*
X1760300D01*
Y377165D01*
X1760617D01*
Y377482D01*
X1760300D01*
Y377799D01*
X1760617D01*
Y378116D01*
X1760300D01*
Y378432D01*
X1760617D01*
Y378749D01*
X1760300D01*
Y379066D01*
X1760617D01*
Y379382D01*
X1760300D01*
Y379699D01*
X1760617D01*
Y380015D01*
X1760300D01*
Y380332D01*
X1760617D01*
Y380649D01*
X1760300D01*
Y380966D01*
X1760617D01*
Y381282D01*
X1760300D01*
Y381599D01*
X1760617D01*
Y381916D01*
X1760300D01*
Y382232D01*
X1760617D01*
Y382549D01*
X1760300D01*
Y382866D01*
X1760617D01*
Y383182D01*
X1760300D01*
Y383499D01*
X1760617D01*
Y383816D01*
X1760300D01*
Y384132D01*
X1760617D01*
Y384449D01*
X1760300D01*
Y384766D01*
X1760617D01*
Y385083D01*
X1760300D01*
Y385399D01*
X1760617D01*
Y385716D01*
X1760300D01*
Y386032D01*
X1760617D01*
Y386349D01*
X1760300D01*
Y386666D01*
X1760617D01*
Y386983D01*
X1760300D01*
Y387299D01*
X1760617D01*
Y387616D01*
X1760300D01*
Y387933D01*
X1760617D01*
Y388249D01*
X1760300D01*
Y388566D01*
X1760617D01*
Y388883D01*
X1760300D01*
Y389199D01*
X1760617D01*
Y389516D01*
X1760300D01*
Y389833D01*
X1760617D01*
Y390149D01*
X1760300D01*
Y390466D01*
X1760617D01*
Y390783D01*
X1760300D01*
Y391099D01*
X1760617D01*
Y392683D01*
X1760933D01*
Y392999D01*
X1761250D01*
Y393950D01*
X1761883D01*
Y394583D01*
X1762200D01*
Y394266D01*
X1762517D01*
Y395216D01*
X1762833D01*
Y394900D01*
X1763150D01*
Y395216D01*
X1763467D01*
Y395533D01*
X1764417D01*
Y395850D01*
X1764733D01*
Y395533D01*
X1765050D01*
Y395850D01*
X1765367D01*
Y396166D01*
X1765684D01*
Y396483D01*
X1766000D01*
Y396166D01*
X1766317D01*
Y396483D01*
X1766634D01*
Y396166D01*
X1766950D01*
Y396483D01*
X1767267D01*
Y396800D01*
X1768217D01*
Y397116D01*
X1768534D01*
Y396800D01*
X1768850D01*
Y397116D01*
X1769800D01*
Y397433D01*
X1770117D01*
Y397750D01*
X1770434D01*
Y397433D01*
X1770750D01*
Y397750D01*
X1771067D01*
Y397433D01*
X1771384D01*
Y397750D01*
X1771700D01*
Y398066D01*
X1772651D01*
Y398383D01*
X1772967D01*
Y398066D01*
X1773284D01*
Y398383D01*
X1774234D01*
Y398700D01*
X1774551D01*
Y399016D01*
X1774867D01*
Y398700D01*
X1775184D01*
Y399016D01*
X1775501D01*
Y398700D01*
X1775817D01*
Y399016D01*
X1776134D01*
Y399333D01*
X1775817D01*
Y399650D01*
X1774867D01*
Y399967D01*
X1774551D01*
Y399650D01*
X1774234D01*
Y399967D01*
X1773917D01*
Y400283D01*
X1773601D01*
Y399967D01*
X1773284D01*
Y400283D01*
X1772967D01*
Y399967D01*
X1772651D01*
Y400283D01*
X1771700D01*
Y400600D01*
X1771384D01*
Y400917D01*
X1771067D01*
Y400600D01*
X1770750D01*
Y400917D01*
X1770434D01*
Y400600D01*
X1770117D01*
Y400917D01*
X1769800D01*
Y400600D01*
X1769484D01*
Y400917D01*
X1768534D01*
Y401233D01*
X1767584D01*
Y401550D01*
X1767267D01*
Y401233D01*
X1766950D01*
Y401550D01*
X1766634D01*
Y401233D01*
X1766317D01*
Y401550D01*
X1765367D01*
Y401867D01*
X1764417D01*
Y402183D01*
X1764100D01*
Y401867D01*
X1763784D01*
Y402183D01*
X1763467D01*
Y401867D01*
X1763150D01*
Y402183D01*
X1762833D01*
Y402500D01*
X1761883D01*
Y402817D01*
X1761567D01*
Y402500D01*
X1761250D01*
Y402817D01*
X1760933D01*
Y402500D01*
X1760617D01*
Y402817D01*
X1759667D01*
Y403133D01*
X1758716D01*
Y403450D01*
X1758400D01*
Y403133D01*
X1758083D01*
Y403450D01*
X1757767D01*
Y403133D01*
X1757450D01*
Y403450D01*
X1757133D01*
Y403133D01*
X1756817D01*
Y403450D01*
X1756500D01*
Y403767D01*
X1755550D01*
Y404083D01*
X1755233D01*
Y403767D01*
X1754916D01*
Y404083D01*
X1754600D01*
Y403767D01*
X1754283D01*
Y404083D01*
X1753333D01*
Y404400D01*
X1752383D01*
Y404717D01*
X1752066D01*
Y404400D01*
X1751750D01*
Y404717D01*
X1750166D01*
Y405033D01*
X1749216D01*
Y405350D01*
X1748899D01*
Y405033D01*
X1748583D01*
Y405350D01*
X1748266D01*
Y405033D01*
X1747949D01*
Y405350D01*
X1746999D01*
Y405667D01*
X1746049D01*
Y405984D01*
X1745733D01*
Y405667D01*
X1745416D01*
Y405984D01*
X1743833D01*
Y406300D01*
X1743516D01*
Y406617D01*
X1743199D01*
Y406300D01*
X1742882D01*
Y406617D01*
X1742566D01*
Y406300D01*
X1742249D01*
Y406617D01*
X1741299D01*
Y406934D01*
X1740982D01*
Y407250D01*
X1740666D01*
Y406934D01*
X1740349D01*
Y407250D01*
X1740032D01*
Y406934D01*
X1739716D01*
Y407250D01*
X1739399D01*
Y407567D01*
X1739082D01*
Y407884D01*
X1738766D01*
Y407567D01*
X1738449D01*
Y407884D01*
X1738132D01*
Y408200D01*
X1737816D01*
Y408517D01*
X1737499D01*
Y408834D01*
X1737182D01*
Y409784D01*
X1736866D01*
Y410100D01*
X1736549D01*
Y411050D01*
X1736232D01*
Y411367D01*
X1736549D01*
Y411684D01*
X1736232D01*
Y412001D01*
X1736549D01*
Y412317D01*
X1736232D01*
Y412634D01*
X1736549D01*
Y414217D01*
X1736866D01*
Y414534D01*
X1737182D01*
Y415484D01*
X1737499D01*
Y415801D01*
X1737816D01*
Y416117D01*
X1738132D01*
Y416434D01*
X1738449D01*
Y416751D01*
X1739399D01*
Y417067D01*
X1739716D01*
Y417384D01*
X1740666D01*
Y417701D01*
X1741616D01*
Y418017D01*
X1741932D01*
Y417701D01*
X1742249D01*
Y418017D01*
X1743199D01*
Y418334D01*
X1744149D01*
Y418651D01*
X1744466D01*
Y418334D01*
X1744783D01*
Y418651D01*
X1745099D01*
Y418968D01*
X1745416D01*
Y418651D01*
X1745733D01*
Y418968D01*
X1746049D01*
Y419284D01*
X1746366D01*
Y418968D01*
X1746683D01*
Y419284D01*
X1746999D01*
Y418968D01*
X1747316D01*
Y419284D01*
X1748266D01*
Y419601D01*
X1749216D01*
Y419917D01*
X1749533D01*
Y419601D01*
X1749849D01*
Y419917D01*
X1750166D01*
Y420234D01*
X1751116D01*
Y420551D01*
X1751433D01*
Y420234D01*
X1751750D01*
Y420551D01*
X1752700D01*
Y420868D01*
X1753016D01*
Y421184D01*
X1753333D01*
Y420868D01*
X1753650D01*
Y421184D01*
X1753966D01*
Y420868D01*
X1754283D01*
Y421184D01*
X1754600D01*
Y420868D01*
X1754916D01*
Y421184D01*
X1755233D01*
Y421501D01*
X1756183D01*
Y421818D01*
X1756500D01*
Y421501D01*
X1756817D01*
Y421818D01*
X1757767D01*
Y422134D01*
X1758083D01*
Y422451D01*
X1758400D01*
Y422134D01*
X1758716D01*
Y422451D01*
X1759033D01*
Y422134D01*
X1759350D01*
Y422451D01*
X1760300D01*
Y422768D01*
X1760617D01*
Y423084D01*
X1760933D01*
Y422768D01*
X1761250D01*
Y423084D01*
X1761567D01*
Y422768D01*
X1761883D01*
Y423084D01*
X1762200D01*
Y423401D01*
X1763150D01*
Y423718D01*
X1763467D01*
Y423401D01*
X1763784D01*
Y423718D01*
X1765367D01*
Y424034D01*
X1765684D01*
Y424351D01*
X1766000D01*
Y424034D01*
X1766317D01*
Y424351D01*
X1766634D01*
Y424034D01*
X1766950D01*
Y424351D01*
X1767267D01*
Y424668D01*
X1767584D01*
Y424984D01*
X1766634D01*
Y425301D01*
X1766317D01*
Y425618D01*
X1766000D01*
Y425301D01*
X1765684D01*
Y425618D01*
X1765367D01*
Y425301D01*
X1765050D01*
Y425618D01*
X1764733D01*
Y425934D01*
X1763784D01*
Y426251D01*
X1763467D01*
Y425934D01*
X1763150D01*
Y426251D01*
X1762200D01*
Y426568D01*
X1761250D01*
Y426884D01*
X1760933D01*
Y426568D01*
X1760617D01*
Y426884D01*
X1759667D01*
Y427201D01*
X1758716D01*
Y427518D01*
X1758400D01*
Y427201D01*
X1758083D01*
Y427518D01*
X1757133D01*
Y427835D01*
X1756817D01*
Y428151D01*
X1756500D01*
Y427835D01*
X1756183D01*
Y428151D01*
X1755866D01*
Y427835D01*
X1755550D01*
Y428151D01*
X1754600D01*
Y428468D01*
X1753650D01*
Y428785D01*
X1753333D01*
Y428468D01*
X1753016D01*
Y428785D01*
X1752700D01*
Y429101D01*
X1751750D01*
Y429418D01*
X1751433D01*
Y429101D01*
X1751116D01*
Y429418D01*
X1750166D01*
Y429735D01*
X1749216D01*
Y430051D01*
X1748899D01*
Y429735D01*
X1748583D01*
Y430051D01*
X1748266D01*
Y429735D01*
X1747949D01*
Y430051D01*
X1747633D01*
Y430368D01*
X1746683D01*
Y430685D01*
X1746366D01*
Y430368D01*
X1746049D01*
Y430685D01*
X1745099D01*
Y431001D01*
X1744783D01*
Y431318D01*
X1744466D01*
Y431001D01*
X1744149D01*
Y431318D01*
X1743833D01*
Y431001D01*
X1743516D01*
Y431318D01*
X1742566D01*
Y431635D01*
X1741616D01*
Y431951D01*
X1741299D01*
Y431635D01*
X1740982D01*
Y431951D01*
X1740349D01*
Y432268D01*
X1739716D01*
Y432585D01*
X1739399D01*
Y432268D01*
X1739082D01*
Y432585D01*
X1738766D01*
Y432901D01*
X1738449D01*
Y433218D01*
X1738132D01*
Y433535D01*
X1737816D01*
Y433852D01*
X1737499D01*
Y434168D01*
X1737182D01*
Y435118D01*
X1736866D01*
Y435435D01*
X1736549D01*
Y436385D01*
X1736232D01*
Y436702D01*
X1736549D01*
Y437018D01*
X1736232D01*
Y437335D01*
X1736549D01*
Y437652D01*
X1736232D01*
Y437968D01*
X1736549D01*
Y439552D01*
X1736866D01*
Y439869D01*
X1737182D01*
Y440818D01*
X1737816D01*
Y441452D01*
X1738132D01*
Y441135D01*
X1738449D01*
Y442085D01*
X1738766D01*
Y441769D01*
X1739082D01*
Y442085D01*
X1739399D01*
Y442402D01*
X1740349D01*
Y442719D01*
X1740666D01*
Y442402D01*
X1740982D01*
Y442719D01*
X1741299D01*
Y443035D01*
X1742249D01*
Y443352D01*
X1742566D01*
Y443035D01*
X1742882D01*
Y443352D01*
X1743199D01*
Y443669D01*
X1744149D01*
Y443985D01*
X1744466D01*
Y443669D01*
X1744783D01*
Y443985D01*
X1745733D01*
Y444302D01*
X1746683D01*
Y444619D01*
X1746999D01*
Y444302D01*
X1747316D01*
Y444619D01*
X1747633D01*
Y444935D01*
X1747949D01*
Y444619D01*
X1748266D01*
Y444935D01*
X1747949D01*
Y445252D01*
X1748266D01*
Y444935D01*
X1748583D01*
Y445252D01*
X1748899D01*
Y444935D01*
X1749216D01*
Y445252D01*
X1750166D01*
Y445569D01*
X1751116D01*
Y445886D01*
X1751433D01*
Y445569D01*
X1751750D01*
Y445886D01*
X1752066D01*
Y446202D01*
X1753016D01*
Y446519D01*
X1753333D01*
Y446202D01*
X1753650D01*
Y446519D01*
X1754600D01*
Y446836D01*
X1754916D01*
Y447152D01*
X1755233D01*
Y446836D01*
X1755550D01*
Y447152D01*
X1755866D01*
Y446836D01*
X1756183D01*
Y447152D01*
X1756500D01*
Y447469D01*
X1757450D01*
Y447786D01*
X1757767D01*
Y447469D01*
X1758083D01*
Y447786D01*
X1758400D01*
Y447469D01*
X1758716D01*
Y447786D01*
X1759033D01*
Y448102D01*
X1759983D01*
Y448419D01*
X1760300D01*
Y448102D01*
X1760617D01*
Y448419D01*
X1760933D01*
Y448736D01*
X1761883D01*
Y449052D01*
X1762200D01*
Y448736D01*
X1762517D01*
Y449052D01*
X1763467D01*
Y449369D01*
X1763784D01*
Y449686D01*
X1764100D01*
Y449369D01*
X1764417D01*
Y449686D01*
X1765367D01*
Y450002D01*
X1765684D01*
Y450319D01*
X1766000D01*
Y450002D01*
X1766317D01*
Y450319D01*
X1766634D01*
Y450002D01*
X1766950D01*
Y450319D01*
X1767900D01*
Y450636D01*
X1768217D01*
Y450952D01*
X1768534D01*
Y450636D01*
X1768850D01*
Y450952D01*
X1769167D01*
Y450636D01*
X1769484D01*
Y450952D01*
X1769800D01*
Y451269D01*
X1770750D01*
Y451586D01*
X1771067D01*
Y451269D01*
X1771384D01*
Y451586D01*
X1771700D01*
Y451902D01*
X1772651D01*
Y452219D01*
X1772967D01*
Y451902D01*
X1773284D01*
Y452219D01*
X1774234D01*
Y452536D01*
X1774551D01*
Y452853D01*
X1774867D01*
Y452536D01*
X1775184D01*
Y452853D01*
X1774867D01*
Y453169D01*
X1774551D01*
Y453486D01*
X1774867D01*
Y453802D01*
X1774551D01*
Y454119D01*
X1774867D01*
Y453802D01*
X1775184D01*
Y454119D01*
X1774867D01*
Y454436D01*
X1774551D01*
Y454753D01*
X1774867D01*
Y455069D01*
X1774551D01*
Y455386D01*
X1774867D01*
Y455069D01*
X1775184D01*
Y455386D01*
X1774867D01*
Y455703D01*
X1774551D01*
Y456019D01*
X1774234D01*
Y455703D01*
X1773917D01*
Y456653D01*
X1773601D01*
Y456336D01*
X1773284D01*
Y456653D01*
X1772967D01*
Y456969D01*
X1772651D01*
Y457286D01*
X1772334D01*
Y457603D01*
X1772017D01*
Y457919D01*
X1771700D01*
Y458236D01*
X1771384D01*
Y459186D01*
X1771067D01*
Y459503D01*
X1770750D01*
Y460453D01*
X1770434D01*
Y460770D01*
X1770117D01*
Y461720D01*
X1769800D01*
Y462036D01*
X1769484D01*
Y462353D01*
X1769800D01*
Y462670D01*
X1769484D01*
Y467420D01*
X1769800D01*
Y467737D01*
X1769484D01*
Y468053D01*
X1769800D01*
Y467737D01*
X1770117D01*
Y468053D01*
X1769800D01*
Y468370D01*
X1770117D01*
Y469320D01*
X1770434D01*
Y469637D01*
X1770117D01*
Y469953D01*
X1770434D01*
Y469637D01*
X1770750D01*
Y469953D01*
X1770434D01*
Y470270D01*
X1770750D01*
Y470587D01*
X1771067D01*
Y470903D01*
X1771384D01*
Y471853D01*
X1771700D01*
Y472170D01*
X1772017D01*
Y472487D01*
X1772334D01*
Y472803D01*
X1772651D01*
Y473120D01*
X1772967D01*
Y473437D01*
X1773284D01*
Y473754D01*
X1773601D01*
Y474070D01*
X1773917D01*
Y474387D01*
X1774867D01*
Y474703D01*
X1775184D01*
Y475020D01*
X1776134D01*
Y475337D01*
X1776451D01*
Y475654D01*
X1776767D01*
Y475337D01*
X1777084D01*
Y475654D01*
X1778034D01*
Y475970D01*
X1778351D01*
Y476287D01*
X1778667D01*
Y475970D01*
X1778984D01*
Y476287D01*
X1779301D01*
Y475970D01*
X1779617D01*
Y476287D01*
X1779934D01*
Y475970D01*
X1780251D01*
Y476287D01*
X1780568D01*
Y475970D01*
X1780884D01*
Y476287D01*
X1781201D01*
Y475970D01*
X1781518D01*
Y476287D01*
X1781834D01*
Y475970D01*
X1782151D01*
Y476287D01*
X1782468D01*
Y475970D01*
D02*
G37*
G36*
X1763150Y547224D02*
X1763467D01*
Y540574D01*
X1763150D01*
Y540890D01*
X1762833D01*
Y540574D01*
X1761883D01*
Y540890D01*
X1761567D01*
Y540574D01*
X1760617D01*
Y540890D01*
X1760300D01*
Y540574D01*
X1759350D01*
Y540890D01*
X1759033D01*
Y540574D01*
X1758083D01*
Y540890D01*
X1757767D01*
Y540574D01*
X1756817D01*
Y540890D01*
X1756500D01*
Y540574D01*
X1755550D01*
Y540890D01*
X1755233D01*
Y540574D01*
X1754283D01*
Y540890D01*
X1753966D01*
Y540574D01*
X1753016D01*
Y540890D01*
X1752700D01*
Y540574D01*
X1751750D01*
Y540890D01*
X1751433D01*
Y540574D01*
X1750483D01*
Y540890D01*
X1750166D01*
Y540574D01*
X1749216D01*
Y540890D01*
X1748899D01*
Y540574D01*
X1747949D01*
Y540890D01*
X1747633D01*
Y540574D01*
X1746683D01*
Y540890D01*
X1746366D01*
Y540574D01*
X1745416D01*
Y540257D01*
X1745099D01*
Y540574D01*
X1744783D01*
Y540257D01*
X1744466D01*
Y539940D01*
X1744149D01*
Y540257D01*
X1743833D01*
Y539940D01*
X1743516D01*
Y539623D01*
X1743199D01*
Y539307D01*
X1742882D01*
Y538990D01*
X1742566D01*
Y538673D01*
X1742249D01*
Y538357D01*
X1741932D01*
Y537407D01*
X1741616D01*
Y537090D01*
X1741932D01*
Y536773D01*
X1741616D01*
Y536457D01*
X1741932D01*
Y536140D01*
X1741616D01*
Y535823D01*
X1741932D01*
Y535507D01*
X1741616D01*
Y535823D01*
X1741299D01*
Y535507D01*
X1741616D01*
Y535190D01*
X1741932D01*
Y534873D01*
X1741616D01*
Y534557D01*
X1741932D01*
Y532973D01*
X1742249D01*
Y532656D01*
X1742566D01*
Y532340D01*
X1742882D01*
Y532023D01*
X1743199D01*
Y531706D01*
X1743516D01*
Y531390D01*
X1744466D01*
Y531073D01*
X1745416D01*
Y530756D01*
X1745733D01*
Y531073D01*
X1746049D01*
Y530756D01*
X1763467D01*
Y524106D01*
X1763150D01*
Y523789D01*
X1762833D01*
Y524106D01*
X1761883D01*
Y523789D01*
X1761567D01*
Y524106D01*
X1760617D01*
Y523789D01*
X1760300D01*
Y524106D01*
X1759350D01*
Y523789D01*
X1759033D01*
Y524106D01*
X1758083D01*
Y523789D01*
X1757767D01*
Y524106D01*
X1756817D01*
Y523789D01*
X1756500D01*
Y524106D01*
X1755550D01*
Y523789D01*
X1755233D01*
Y524106D01*
X1754283D01*
Y523789D01*
X1753966D01*
Y524106D01*
X1753016D01*
Y523789D01*
X1752700D01*
Y524106D01*
X1751750D01*
Y523789D01*
X1751433D01*
Y524106D01*
X1750483D01*
Y523789D01*
X1750166D01*
Y524106D01*
X1749216D01*
Y523789D01*
X1748899D01*
Y524106D01*
X1747949D01*
Y523789D01*
X1747633D01*
Y524106D01*
X1746683D01*
Y523789D01*
X1746366D01*
Y524106D01*
X1745416D01*
Y524423D01*
X1745099D01*
Y524106D01*
X1744783D01*
Y524423D01*
X1744466D01*
Y524106D01*
X1744149D01*
Y524423D01*
X1743833D01*
Y524106D01*
X1743516D01*
Y524423D01*
X1743199D01*
Y524739D01*
X1742249D01*
Y525056D01*
X1741932D01*
Y524739D01*
X1741616D01*
Y525056D01*
X1741299D01*
Y525373D01*
X1740982D01*
Y525689D01*
X1740666D01*
Y526006D01*
X1740349D01*
Y526323D01*
X1739716D01*
Y526956D01*
X1739399D01*
Y526639D01*
X1739082D01*
Y527589D01*
X1738766D01*
Y527906D01*
X1738449D01*
Y528223D01*
X1738132D01*
Y528540D01*
X1737816D01*
Y529490D01*
X1737499D01*
Y529806D01*
X1737816D01*
Y530123D01*
X1737499D01*
Y530440D01*
X1737182D01*
Y532023D01*
X1736866D01*
Y532340D01*
X1736549D01*
Y532656D01*
X1736866D01*
Y532340D01*
X1737182D01*
Y532656D01*
X1736866D01*
Y532973D01*
X1736549D01*
Y533290D01*
X1736866D01*
Y533606D01*
X1736549D01*
Y533923D01*
X1736866D01*
Y534240D01*
X1736549D01*
Y534557D01*
X1736866D01*
Y534873D01*
X1736549D01*
Y537090D01*
X1736866D01*
Y537407D01*
X1736549D01*
Y537723D01*
X1736866D01*
Y538040D01*
X1736549D01*
Y538357D01*
X1736866D01*
Y538673D01*
X1736549D01*
Y538990D01*
X1736866D01*
Y538673D01*
X1737182D01*
Y538990D01*
X1736866D01*
Y539307D01*
X1737182D01*
Y539623D01*
X1736866D01*
Y539940D01*
X1737182D01*
Y540890D01*
X1737499D01*
Y541840D01*
X1737816D01*
Y542790D01*
X1738132D01*
Y543107D01*
X1738449D01*
Y543424D01*
X1738766D01*
Y543740D01*
X1739082D01*
Y544690D01*
X1739716D01*
Y545324D01*
X1740349D01*
Y545640D01*
X1740982D01*
Y545957D01*
X1741299D01*
Y546274D01*
X1741616D01*
Y546590D01*
X1741932D01*
Y546274D01*
X1742249D01*
Y546590D01*
X1742566D01*
Y546907D01*
X1743516D01*
Y547224D01*
X1743833D01*
Y546907D01*
X1744149D01*
Y547224D01*
X1745733D01*
Y547541D01*
X1746049D01*
Y547224D01*
X1746366D01*
Y547541D01*
X1746683D01*
Y547224D01*
X1746999D01*
Y547541D01*
X1747949D01*
Y547224D01*
X1748266D01*
Y547541D01*
X1748583D01*
Y547224D01*
X1748899D01*
Y547541D01*
X1749216D01*
Y547224D01*
X1749533D01*
Y547541D01*
X1750483D01*
Y547224D01*
X1750800D01*
Y547541D01*
X1751116D01*
Y547224D01*
X1751433D01*
Y547541D01*
X1751750D01*
Y547224D01*
X1752066D01*
Y547541D01*
X1753016D01*
Y547224D01*
X1753333D01*
Y547541D01*
X1753650D01*
Y547224D01*
X1753966D01*
Y547541D01*
X1754283D01*
Y547224D01*
X1754600D01*
Y547541D01*
X1755550D01*
Y547224D01*
X1755866D01*
Y547541D01*
X1756183D01*
Y547224D01*
X1756500D01*
Y547541D01*
X1756817D01*
Y547224D01*
X1757133D01*
Y547541D01*
X1758083D01*
Y547224D01*
X1758400D01*
Y547541D01*
X1758716D01*
Y547224D01*
X1759033D01*
Y547541D01*
X1759350D01*
Y547224D01*
X1759667D01*
Y547541D01*
X1760617D01*
Y547224D01*
X1760933D01*
Y547541D01*
X1761250D01*
Y547224D01*
X1761567D01*
Y547541D01*
X1761883D01*
Y547224D01*
X1762200D01*
Y547541D01*
X1763150D01*
Y547224D01*
D02*
G37*
G36*
X1749849Y573825D02*
X1750800D01*
Y573508D01*
X1751116D01*
Y573825D01*
X1751433D01*
Y573508D01*
X1752383D01*
Y573192D01*
X1753333D01*
Y572875D01*
X1753650D01*
Y572558D01*
X1753966D01*
Y572242D01*
X1754283D01*
Y572558D01*
X1754600D01*
Y572242D01*
X1754916D01*
Y571925D01*
X1755233D01*
Y571608D01*
X1755550D01*
Y571292D01*
X1755866D01*
Y570975D01*
X1756183D01*
Y570658D01*
X1756500D01*
Y569708D01*
X1756817D01*
Y569392D01*
X1757133D01*
Y568442D01*
X1757450D01*
Y568125D01*
X1757133D01*
Y567808D01*
X1757450D01*
Y567491D01*
X1757767D01*
Y567175D01*
X1757450D01*
Y566858D01*
X1757767D01*
Y566541D01*
X1757450D01*
Y566858D01*
X1757133D01*
Y566541D01*
X1757450D01*
Y566225D01*
X1757767D01*
Y565908D01*
X1757450D01*
Y565591D01*
X1757133D01*
Y565275D01*
X1757450D01*
Y564958D01*
X1757133D01*
Y564641D01*
X1757450D01*
Y564325D01*
X1757133D01*
Y563375D01*
X1756817D01*
Y563058D01*
X1757133D01*
Y562741D01*
X1756817D01*
Y562425D01*
X1756500D01*
Y562108D01*
X1756183D01*
Y561791D01*
X1755866D01*
Y561474D01*
X1756183D01*
Y561158D01*
X1755866D01*
Y560841D01*
X1755550D01*
Y560524D01*
X1755233D01*
Y560208D01*
X1754916D01*
Y559891D01*
X1755233D01*
Y559574D01*
X1755550D01*
Y559891D01*
X1755866D01*
Y559574D01*
X1756183D01*
Y559891D01*
X1756500D01*
Y559574D01*
X1756817D01*
Y559258D01*
X1757133D01*
Y558941D01*
X1756817D01*
Y558624D01*
X1757133D01*
Y558308D01*
X1756817D01*
Y557991D01*
X1757133D01*
Y557674D01*
X1756817D01*
Y557358D01*
X1757133D01*
Y557041D01*
X1756817D01*
Y556724D01*
X1757133D01*
Y556408D01*
X1756817D01*
Y556091D01*
X1757133D01*
Y555774D01*
X1756817D01*
Y555457D01*
X1757133D01*
Y555141D01*
X1756817D01*
Y554824D01*
X1757133D01*
Y554507D01*
X1756817D01*
Y554191D01*
X1757133D01*
Y553874D01*
X1756817D01*
Y553557D01*
X1757133D01*
Y553241D01*
X1756817D01*
Y553557D01*
X1756500D01*
Y553241D01*
X1756183D01*
Y553557D01*
X1755866D01*
Y553241D01*
X1755550D01*
Y553557D01*
X1755233D01*
Y553241D01*
X1754916D01*
Y553557D01*
X1754600D01*
Y553241D01*
X1754283D01*
Y553557D01*
X1753966D01*
Y553241D01*
X1753650D01*
Y553557D01*
X1753333D01*
Y553241D01*
X1753016D01*
Y553557D01*
X1752700D01*
Y553241D01*
X1752383D01*
Y553557D01*
X1752066D01*
Y553241D01*
X1751750D01*
Y553557D01*
X1751433D01*
Y553241D01*
X1751116D01*
Y553557D01*
X1750800D01*
Y553241D01*
X1750483D01*
Y553557D01*
X1750166D01*
Y553241D01*
X1749849D01*
Y553557D01*
X1749533D01*
Y553241D01*
X1749216D01*
Y553557D01*
X1748899D01*
Y553241D01*
X1748583D01*
Y553557D01*
X1748266D01*
Y553241D01*
X1747949D01*
Y553557D01*
X1747633D01*
Y553241D01*
X1747316D01*
Y553557D01*
X1746999D01*
Y553241D01*
X1746683D01*
Y553557D01*
X1746366D01*
Y553241D01*
X1746049D01*
Y553557D01*
X1745733D01*
Y553241D01*
X1745416D01*
Y553557D01*
X1745099D01*
Y553241D01*
X1744783D01*
Y553557D01*
X1744466D01*
Y553241D01*
X1744149D01*
Y553557D01*
X1743833D01*
Y553241D01*
X1743516D01*
Y553557D01*
X1743199D01*
Y553241D01*
X1742882D01*
Y553557D01*
X1742566D01*
Y553241D01*
X1742249D01*
Y553557D01*
X1741932D01*
Y553241D01*
X1741616D01*
Y553557D01*
X1741299D01*
Y553241D01*
X1740982D01*
Y553557D01*
X1740666D01*
Y553241D01*
X1740349D01*
Y553557D01*
X1740032D01*
Y553241D01*
X1739716D01*
Y553557D01*
X1739399D01*
Y553241D01*
X1739082D01*
Y553557D01*
X1738766D01*
Y553241D01*
X1738449D01*
Y553557D01*
X1738132D01*
Y553241D01*
X1737816D01*
Y553557D01*
X1737499D01*
Y553241D01*
X1737182D01*
Y553557D01*
X1736866D01*
Y553241D01*
X1736549D01*
Y553557D01*
X1736232D01*
Y553241D01*
X1735915D01*
Y553557D01*
X1735599D01*
Y553241D01*
X1735282D01*
Y553557D01*
X1734965D01*
Y553241D01*
X1734649D01*
Y553557D01*
X1734332D01*
Y553241D01*
X1734015D01*
Y553557D01*
X1733699D01*
Y553241D01*
X1733382D01*
Y553557D01*
X1733065D01*
Y553241D01*
X1732749D01*
Y553557D01*
X1732432D01*
Y553241D01*
X1732115D01*
Y553557D01*
X1731799D01*
Y553241D01*
X1731482D01*
Y553557D01*
X1731165D01*
Y553241D01*
X1730849D01*
Y553557D01*
X1730532D01*
Y553241D01*
X1730215D01*
Y553557D01*
X1729898D01*
Y559574D01*
X1730215D01*
Y559891D01*
X1730532D01*
Y559574D01*
X1730849D01*
Y559891D01*
X1731165D01*
Y559574D01*
X1731482D01*
Y559891D01*
X1731799D01*
Y559574D01*
X1732115D01*
Y559891D01*
X1732432D01*
Y559574D01*
X1732749D01*
Y559891D01*
X1733065D01*
Y559574D01*
X1733382D01*
Y559891D01*
X1733699D01*
Y559574D01*
X1734015D01*
Y559891D01*
X1734332D01*
Y559574D01*
X1734649D01*
Y559891D01*
X1734965D01*
Y559574D01*
X1735282D01*
Y559891D01*
X1735599D01*
Y559574D01*
X1735915D01*
Y559891D01*
X1736232D01*
Y559574D01*
X1736549D01*
Y559891D01*
X1736866D01*
Y559574D01*
X1737182D01*
Y559891D01*
X1737499D01*
Y559574D01*
X1737816D01*
Y559891D01*
X1738132D01*
Y560208D01*
X1737816D01*
Y560524D01*
X1737499D01*
Y560841D01*
X1737816D01*
Y561158D01*
X1737499D01*
Y561474D01*
X1737182D01*
Y562425D01*
X1736866D01*
Y562741D01*
X1737182D01*
Y563058D01*
X1736866D01*
Y564008D01*
X1736549D01*
Y564325D01*
X1736866D01*
Y564008D01*
X1737182D01*
Y564325D01*
X1736866D01*
Y564641D01*
X1736549D01*
Y564958D01*
X1736866D01*
Y565275D01*
X1736549D01*
Y565591D01*
X1736866D01*
Y565275D01*
X1737182D01*
Y565591D01*
X1736866D01*
Y566541D01*
X1737182D01*
Y566858D01*
X1736866D01*
Y567175D01*
X1737182D01*
Y568125D01*
X1737499D01*
Y568442D01*
X1737816D01*
Y569392D01*
X1738132D01*
Y569708D01*
X1738449D01*
Y570658D01*
X1738766D01*
Y570975D01*
X1739082D01*
Y571292D01*
X1739399D01*
Y571608D01*
X1739716D01*
Y571925D01*
X1740349D01*
Y572242D01*
X1740982D01*
Y572558D01*
X1741299D01*
Y572875D01*
X1741616D01*
Y573192D01*
X1741932D01*
Y572875D01*
X1742249D01*
Y573192D01*
X1742566D01*
Y573508D01*
X1743516D01*
Y573825D01*
X1743833D01*
Y573508D01*
X1744149D01*
Y573825D01*
X1745099D01*
Y574142D01*
X1745416D01*
Y573825D01*
X1745733D01*
Y574142D01*
X1749216D01*
Y573825D01*
X1749533D01*
Y574142D01*
X1749849D01*
Y573825D01*
D02*
G37*
G36*
X1748583Y519356D02*
X1750800D01*
Y519039D01*
X1751116D01*
Y519356D01*
X1751433D01*
Y519039D01*
X1752383D01*
Y518722D01*
X1752700D01*
Y518406D01*
X1753016D01*
Y518722D01*
X1753333D01*
Y518406D01*
X1753650D01*
Y518089D01*
X1753966D01*
Y517772D01*
X1754600D01*
Y517139D01*
X1755233D01*
Y516506D01*
X1755866D01*
Y515872D01*
X1756183D01*
Y515556D01*
X1756500D01*
Y514605D01*
X1756817D01*
Y514289D01*
X1757133D01*
Y512705D01*
X1757450D01*
Y512389D01*
X1757133D01*
Y512072D01*
X1757450D01*
Y511755D01*
X1757767D01*
Y511439D01*
X1757450D01*
Y511122D01*
X1757767D01*
Y510805D01*
X1757450D01*
Y510489D01*
X1757767D01*
Y510172D01*
X1757450D01*
Y509855D01*
X1757767D01*
Y509539D01*
X1757450D01*
Y509222D01*
X1757767D01*
Y508905D01*
X1757450D01*
Y508588D01*
X1757767D01*
Y508272D01*
X1757450D01*
Y508588D01*
X1757133D01*
Y508272D01*
X1757450D01*
Y507955D01*
X1757767D01*
Y507639D01*
X1757450D01*
Y507322D01*
X1757133D01*
Y507005D01*
X1757450D01*
Y506688D01*
X1757133D01*
Y505738D01*
X1756817D01*
Y505422D01*
X1757133D01*
Y505105D01*
X1756817D01*
Y504788D01*
X1756500D01*
Y503838D01*
X1756183D01*
Y503522D01*
X1755866D01*
Y502572D01*
X1755550D01*
Y502255D01*
X1755233D01*
Y501938D01*
X1754916D01*
Y501622D01*
X1754600D01*
Y501305D01*
X1754283D01*
Y500988D01*
X1753966D01*
Y500672D01*
X1753650D01*
Y500355D01*
X1753333D01*
Y500038D01*
X1753016D01*
Y500355D01*
X1752700D01*
Y500038D01*
X1752383D01*
Y499721D01*
X1752066D01*
Y499405D01*
X1751116D01*
Y499088D01*
X1750166D01*
Y498771D01*
X1749849D01*
Y499088D01*
X1749533D01*
Y498771D01*
X1749216D01*
Y498455D01*
X1748899D01*
Y498771D01*
X1747949D01*
Y498455D01*
X1747633D01*
Y498771D01*
X1747316D01*
Y498455D01*
X1746366D01*
Y498771D01*
X1745416D01*
Y498455D01*
X1745099D01*
Y498771D01*
X1744149D01*
Y499088D01*
X1743833D01*
Y498771D01*
X1743516D01*
Y499088D01*
X1742566D01*
Y499405D01*
X1742249D01*
Y499721D01*
X1741932D01*
Y499405D01*
X1741616D01*
Y499721D01*
X1741299D01*
Y500038D01*
X1740982D01*
Y500355D01*
X1740666D01*
Y500672D01*
X1740349D01*
Y500988D01*
X1740032D01*
Y501305D01*
X1739716D01*
Y501622D01*
X1739399D01*
Y501938D01*
X1739082D01*
Y502255D01*
X1738766D01*
Y502572D01*
X1738449D01*
Y503522D01*
X1738132D01*
Y503838D01*
X1737816D01*
Y504788D01*
X1737499D01*
Y505105D01*
X1737182D01*
Y505422D01*
X1737499D01*
Y505738D01*
X1737182D01*
Y506688D01*
X1736866D01*
Y507005D01*
X1737182D01*
Y507322D01*
X1736866D01*
Y508272D01*
X1736549D01*
Y508588D01*
X1736866D01*
Y508905D01*
X1736549D01*
Y509222D01*
X1736866D01*
Y509539D01*
X1736549D01*
Y511755D01*
X1736866D01*
Y512072D01*
X1736549D01*
Y512389D01*
X1736866D01*
Y512705D01*
X1736549D01*
Y513022D01*
X1736866D01*
Y513339D01*
X1736549D01*
Y513656D01*
X1736866D01*
Y514605D01*
X1737182D01*
Y516189D01*
X1737499D01*
Y516506D01*
X1737182D01*
Y516822D01*
X1737499D01*
Y517139D01*
X1737816D01*
Y517456D01*
X1737499D01*
Y517772D01*
X1737816D01*
Y518089D01*
X1738132D01*
Y518406D01*
X1737816D01*
Y518722D01*
X1738132D01*
Y518406D01*
X1738449D01*
Y518722D01*
X1738132D01*
Y519039D01*
X1738449D01*
Y519356D01*
X1738766D01*
Y519039D01*
X1739082D01*
Y519356D01*
X1739399D01*
Y519039D01*
X1739716D01*
Y519356D01*
X1740032D01*
Y519039D01*
X1740349D01*
Y519356D01*
X1740666D01*
Y519039D01*
X1740982D01*
Y519356D01*
X1741299D01*
Y519039D01*
X1741616D01*
Y519356D01*
X1741932D01*
Y519039D01*
X1742249D01*
Y519356D01*
X1742566D01*
Y519039D01*
X1742882D01*
Y519356D01*
X1743199D01*
Y519039D01*
X1743516D01*
Y518722D01*
X1743199D01*
Y517772D01*
X1742882D01*
Y517456D01*
X1742566D01*
Y516506D01*
X1742249D01*
Y516189D01*
X1741932D01*
Y515239D01*
X1741616D01*
Y514922D01*
X1741932D01*
Y514605D01*
X1741616D01*
Y514289D01*
X1741299D01*
Y512705D01*
X1740982D01*
Y512389D01*
X1741299D01*
Y512072D01*
X1740982D01*
Y511755D01*
X1741299D01*
Y511439D01*
X1740982D01*
Y511122D01*
X1741299D01*
Y510805D01*
X1740982D01*
Y510489D01*
X1741299D01*
Y510172D01*
X1740982D01*
Y509855D01*
X1741299D01*
Y508905D01*
X1741616D01*
Y508588D01*
X1741299D01*
Y508272D01*
X1741616D01*
Y507955D01*
X1741932D01*
Y507005D01*
X1742249D01*
Y506688D01*
X1742566D01*
Y506372D01*
X1742882D01*
Y506055D01*
X1743199D01*
Y505738D01*
X1743516D01*
Y505422D01*
X1743833D01*
Y505105D01*
X1744149D01*
Y505422D01*
X1744466D01*
Y505105D01*
X1744783D01*
Y505422D01*
X1745099D01*
Y505105D01*
X1746049D01*
Y505422D01*
X1745733D01*
Y505738D01*
X1746049D01*
Y506688D01*
X1745733D01*
Y507005D01*
X1746049D01*
Y507322D01*
X1745733D01*
Y507639D01*
X1746049D01*
Y507955D01*
X1745733D01*
Y508272D01*
X1746049D01*
Y509222D01*
X1745733D01*
Y509539D01*
X1746049D01*
Y509855D01*
X1745733D01*
Y510172D01*
X1746049D01*
Y510489D01*
X1745733D01*
Y510805D01*
X1746049D01*
Y511755D01*
X1745733D01*
Y512072D01*
X1746049D01*
Y512389D01*
X1745733D01*
Y512705D01*
X1746049D01*
Y513022D01*
X1745733D01*
Y513339D01*
X1746049D01*
Y514289D01*
X1745733D01*
Y514605D01*
X1746049D01*
Y514922D01*
X1745733D01*
Y515239D01*
X1746049D01*
Y515556D01*
X1745733D01*
Y515872D01*
X1746049D01*
Y516822D01*
X1745733D01*
Y517139D01*
X1746049D01*
Y517456D01*
X1745733D01*
Y517772D01*
X1746049D01*
Y518089D01*
X1745733D01*
Y518406D01*
X1746049D01*
Y519356D01*
X1746366D01*
Y519672D01*
X1746683D01*
Y519356D01*
X1746999D01*
Y519672D01*
X1747316D01*
Y519356D01*
X1747633D01*
Y519672D01*
X1747949D01*
Y519356D01*
X1748266D01*
Y519672D01*
X1748583D01*
Y519356D01*
D02*
G37*
%LPC*%
G36*
X1776451Y399650D02*
X1776134D01*
Y399333D01*
X1776451D01*
Y399650D01*
D02*
G37*
G36*
X1762517Y437652D02*
X1762200D01*
Y437335D01*
X1762517D01*
Y437652D01*
D02*
G37*
G36*
X1768217Y424984D02*
X1767900D01*
Y424668D01*
X1768217D01*
Y424984D01*
D02*
G37*
G36*
X1799252Y487054D02*
X1798935D01*
Y486738D01*
X1799252D01*
Y487054D01*
D02*
G37*
G36*
X1750166Y513339D02*
X1749849D01*
Y513022D01*
X1749533D01*
Y512072D01*
X1749849D01*
Y511755D01*
X1749533D01*
Y509539D01*
X1749849D01*
Y509222D01*
X1749533D01*
Y507005D01*
X1749849D01*
Y506688D01*
X1749533D01*
Y505105D01*
X1749849D01*
Y504788D01*
X1750166D01*
Y505105D01*
X1751116D01*
Y505422D01*
X1751433D01*
Y505105D01*
X1751750D01*
Y505422D01*
X1752066D01*
Y505738D01*
X1752383D01*
Y506055D01*
X1752700D01*
Y506372D01*
X1753016D01*
Y507322D01*
X1753333D01*
Y507639D01*
X1753650D01*
Y507955D01*
X1753333D01*
Y508272D01*
X1753650D01*
Y510489D01*
X1753333D01*
Y510805D01*
X1753016D01*
Y511122D01*
X1753333D01*
Y510805D01*
X1753650D01*
Y511122D01*
X1753333D01*
Y511439D01*
X1753016D01*
Y511755D01*
X1752700D01*
Y512072D01*
X1752383D01*
Y512389D01*
X1752066D01*
Y512705D01*
X1751750D01*
Y513022D01*
X1751433D01*
Y512705D01*
X1751116D01*
Y513022D01*
X1750166D01*
Y513339D01*
D02*
G37*
G36*
X1749849Y567491D02*
X1749533D01*
Y567175D01*
X1749216D01*
Y567491D01*
X1748899D01*
Y567175D01*
X1748583D01*
Y567491D01*
X1745733D01*
Y567175D01*
X1745416D01*
Y567491D01*
X1745099D01*
Y567175D01*
X1744783D01*
Y567491D01*
X1744466D01*
Y567175D01*
X1744149D01*
Y566858D01*
X1743199D01*
Y566541D01*
X1742882D01*
Y566225D01*
X1742566D01*
Y565908D01*
X1742249D01*
Y565591D01*
X1741932D01*
Y564641D01*
X1741616D01*
Y564325D01*
X1741299D01*
Y564008D01*
X1741616D01*
Y563691D01*
X1741299D01*
Y563375D01*
X1741616D01*
Y563058D01*
X1741299D01*
Y560841D01*
X1741616D01*
Y560524D01*
X1741932D01*
Y560208D01*
X1741616D01*
Y560524D01*
X1741299D01*
Y560208D01*
X1741616D01*
Y559891D01*
X1741932D01*
Y559574D01*
X1742249D01*
Y559891D01*
X1742566D01*
Y559574D01*
X1742882D01*
Y559891D01*
X1743199D01*
Y559574D01*
X1743516D01*
Y559891D01*
X1743833D01*
Y559574D01*
X1744149D01*
Y559891D01*
X1744466D01*
Y559574D01*
X1744783D01*
Y559891D01*
X1745099D01*
Y559574D01*
X1745416D01*
Y559891D01*
X1745733D01*
Y559574D01*
X1746049D01*
Y559891D01*
X1746366D01*
Y559574D01*
X1746683D01*
Y559891D01*
X1746999D01*
Y559574D01*
X1747316D01*
Y559891D01*
X1747633D01*
Y559574D01*
X1747949D01*
Y559891D01*
X1748266D01*
Y559574D01*
X1748583D01*
Y559891D01*
X1748899D01*
Y559574D01*
X1749216D01*
Y559891D01*
X1749533D01*
Y559574D01*
X1749849D01*
Y559891D01*
X1750166D01*
Y559574D01*
X1750483D01*
Y559891D01*
X1750800D01*
Y559574D01*
X1751116D01*
Y559891D01*
X1751433D01*
Y559574D01*
X1751750D01*
Y560524D01*
X1752066D01*
Y560208D01*
X1752383D01*
Y560524D01*
X1752066D01*
Y560841D01*
X1752383D01*
Y561791D01*
X1752700D01*
Y562108D01*
X1752383D01*
Y562425D01*
X1752700D01*
Y563375D01*
X1752383D01*
Y563691D01*
X1752700D01*
Y563375D01*
X1753016D01*
Y563691D01*
X1752700D01*
Y564008D01*
X1752383D01*
Y564325D01*
X1752700D01*
Y564641D01*
X1752383D01*
Y565591D01*
X1752066D01*
Y565908D01*
X1751750D01*
Y566541D01*
X1751116D01*
Y566858D01*
X1750800D01*
Y567175D01*
X1749849D01*
Y567491D01*
D02*
G37*
G36*
X1746049Y480720D02*
X1745733D01*
Y480404D01*
X1746049D01*
Y480720D01*
D02*
G37*
%LPD*%
M02*
