%FSLAX44Y44*%
%MOMM*%
G71*
G01*
G75*
%ADD10R,1.3000X1.5000*%
%ADD11R,1.1000X1.0000*%
%ADD12R,2.1000X2.9000*%
%ADD13R,0.5000X1.6000*%
%ADD14R,1.0000X1.1000*%
%ADD15R,2.4000X3.3000*%
%ADD16R,2.4000X1.0000*%
%ADD17R,1.0000X0.8500*%
%ADD18R,1.0000X0.8500*%
%ADD19R,0.8000X0.8000*%
%ADD20R,2.8000X1.5000*%
%ADD21R,0.8000X0.8000*%
%ADD22R,4.5000X5.0000*%
G04:AMPARAMS|DCode=23|XSize=5.6mm|YSize=2.1mm|CornerRadius=0.525mm|HoleSize=0mm|Usage=FLASHONLY|Rotation=270.000|XOffset=0mm|YOffset=0mm|HoleType=Round|Shape=RoundedRectangle|*
%AMROUNDEDRECTD23*
21,1,5.6000,1.0500,0,0,270.0*
21,1,4.5500,2.1000,0,0,270.0*
1,1,1.0500,-0.5250,-2.2750*
1,1,1.0500,-0.5250,2.2750*
1,1,1.0500,0.5250,2.2750*
1,1,1.0500,0.5250,-2.2750*
%
%ADD23ROUNDEDRECTD23*%
%ADD24C,0.3000*%
%ADD25C,0.5000*%
%ADD26C,0.7500*%
%ADD27C,1.8000*%
%ADD28O,1.0000X1.7000*%
%ADD29C,6.0000*%
%ADD30C,1.6000*%
%ADD31C,0.6000*%
D10*
X1766500Y372520D02*
D03*
X1747500D02*
D03*
X1765500Y463750D02*
D03*
X1746500D02*
D03*
D11*
X1589250Y633250D02*
D03*
X1606250D02*
D03*
X1790500Y581000D02*
D03*
X1807500D02*
D03*
X1790250Y560750D02*
D03*
X1807250D02*
D03*
X1565500Y453250D02*
D03*
X1582500D02*
D03*
X1589250Y610750D02*
D03*
X1606250D02*
D03*
X1606250Y655750D02*
D03*
X1589250D02*
D03*
D12*
X1535000Y419000D02*
D03*
X1615000D02*
D03*
D13*
X1559000Y423500D02*
D03*
X1567000D02*
D03*
X1575000D02*
D03*
X1583000D02*
D03*
X1591000D02*
D03*
D14*
X1717500Y431000D02*
D03*
Y414000D02*
D03*
X1795000Y648500D02*
D03*
Y631500D02*
D03*
Y696500D02*
D03*
Y713500D02*
D03*
X1730000Y681000D02*
D03*
Y664000D02*
D03*
X1618500Y826000D02*
D03*
Y843000D02*
D03*
D15*
X1804000Y417500D02*
D03*
D16*
X1746000Y394500D02*
D03*
Y417500D02*
D03*
Y440500D02*
D03*
D17*
X1750000Y580250D02*
D03*
X1774000Y570750D02*
D03*
D18*
X1750000Y561250D02*
D03*
D19*
X1529000Y453000D02*
D03*
X1544000D02*
D03*
D20*
X1800000Y532500D02*
D03*
Y497500D02*
D03*
X1740000Y532500D02*
D03*
Y497500D02*
D03*
D21*
X1599250Y844500D02*
D03*
Y829500D02*
D03*
D22*
X1793748Y416306D02*
D03*
D23*
X1762500Y718500D02*
D03*
Y626500D02*
D03*
D27*
X1585400Y561600D02*
D03*
Y536200D02*
D03*
Y510800D02*
D03*
Y485400D02*
D03*
X1534600D02*
D03*
Y510800D02*
D03*
Y536200D02*
D03*
Y561600D02*
D03*
X1560000Y485400D02*
D03*
Y510800D02*
D03*
Y536200D02*
D03*
Y561600D02*
D03*
X1735600Y817300D02*
D03*
X1710200D02*
D03*
X1684800D02*
D03*
X1659400D02*
D03*
X1735600Y842700D02*
D03*
X1710200D02*
D03*
X1684800D02*
D03*
X1659400D02*
D03*
X1560000Y775850D02*
D03*
Y750450D02*
D03*
Y725050D02*
D03*
Y699650D02*
D03*
X1534600Y775850D02*
D03*
Y750450D02*
D03*
Y725050D02*
D03*
Y699650D02*
D03*
X1585400D02*
D03*
Y725050D02*
D03*
Y750450D02*
D03*
Y775850D02*
D03*
X1560000Y592000D02*
D03*
Y617400D02*
D03*
Y642800D02*
D03*
Y668200D02*
D03*
X1534600Y669100D02*
D03*
Y643700D02*
D03*
Y618300D02*
D03*
Y592900D02*
D03*
X1762400Y696900D02*
D03*
X1762500Y648100D02*
D03*
D28*
X1538500Y392500D02*
D03*
X1611500D02*
D03*
D29*
X1670000Y395000D02*
D03*
X1785000Y825000D02*
D03*
X1555000D02*
D03*
D30*
X1631900Y454600D02*
D03*
Y480000D02*
D03*
Y505400D02*
D03*
Y530800D02*
D03*
Y556200D02*
D03*
Y581600D02*
D03*
Y607000D02*
D03*
Y632400D02*
D03*
Y657800D02*
D03*
Y683200D02*
D03*
Y708600D02*
D03*
Y734000D02*
D03*
Y759400D02*
D03*
Y784800D02*
D03*
X1708100D02*
D03*
Y759400D02*
D03*
Y734000D02*
D03*
Y708600D02*
D03*
Y683200D02*
D03*
Y657800D02*
D03*
Y632400D02*
D03*
Y607000D02*
D03*
Y581600D02*
D03*
Y556200D02*
D03*
Y530800D02*
D03*
Y505400D02*
D03*
Y480000D02*
D03*
Y454600D02*
D03*
M02*
