M48
;Layer_Color=9474304
;FILE_FORMAT=4:4
METRIC,LZ
;TYPE=PLATED
T1F00S00C0.3000
T3F00S00C1.0000
T4F00S00C1.1000
T5F00S00C3.5000
%
T01
X0171Y003725
X01724Y003855
X018075Y003775
Y004475
X01795Y0048
X0175975Y005175
X017425Y005475
X017315Y00561
X01735Y00615
X017935Y0061475
X017875Y005475
X016475Y0054275
X0166175Y00519
X016605Y0049325
X016375Y004225
X0161475Y0041725
X0159875Y004515
X01701Y0043675
X0166Y0059
X0167Y006625
Y0068
X016875
Y006625
X0173Y0076
Y00775
X01745
X017825
X018
Y007575
X01793Y0072645
X0166Y007775
X016125Y00765
X01534998Y0041773
X015875Y008
X016375Y008425
T03
X016319Y004546
Y0048
Y005054
Y005308
Y005562
Y005816
Y00607
Y006324
Y006578
Y006832
Y007086
Y00734
Y007594
Y007848
X017081
Y007594
Y00734
Y007086
Y006832
Y006578
Y006324
Y00607
Y005816
Y005562
Y005308
Y005054
Y0048
Y004546
X017625Y006481
X017624Y006969
T04
X015346Y004854
Y005108
Y005362
Y005616
X0156
X015854
Y005362
Y005108
Y004854
X0156
Y005108
Y005362
X0156Y00592
Y006174
Y006428
Y006682
X015346Y006691
Y006437
Y006183
Y005929
X015346Y0069965
X0156
Y0072505
Y0075045
Y0077585
X015346
Y0075045
Y0072505
X015854
Y0069965
Y0075045
Y0077585
X016594Y008173
X016848
X017102
X017356
Y008427
X017102
X016848
X016594
T05
X0167Y00395
X01555Y00825
X01785
M30
